Shafarik.ufo
<glyph name="exclam" format="2">
  <advance width="202"/>
  <unicode hex="0021"/>
  <outline>
    <contour>
      <point x="33" y="59" type="curve" smooth="yes"/>
      <point x="33" y="93"/>
      <point x="62" y="122"/>
      <point x="96" y="122" type="curve" smooth="yes"/>
      <point x="130" y="122"/>
      <point x="159" y="93"/>
      <point x="159" y="59" type="curve" smooth="yes"/>
      <point x="159" y="25"/>
      <point x="130" y="-4"/>
      <point x="96" y="-4" type="curve" smooth="yes"/>
      <point x="62" y="-4"/>
      <point x="33" y="25"/>
    </contour>
    <contour>
      <point x="96" y="167" type="curve" smooth="yes"/>
      <point x="57" y="167"/>
      <point x="33" y="193"/>
      <point x="33" y="232" type="curve" smooth="yes"/>
      <point x="33" y="283"/>
      <point x="52" y="311"/>
      <point x="66" y="350" type="curve" smooth="yes"/>
      <point x="70" y="361"/>
      <point x="72" y="374"/>
      <point x="72" y="387" type="curve" smooth="yes"/>
      <point x="72" y="401"/>
      <point x="71" y="414"/>
      <point x="70" y="424" type="curve" smooth="yes"/>
      <point x="67" y="447"/>
      <point x="65" y="469"/>
      <point x="62" y="492" type="curve"/>
      <point x="60" y="531" type="line"/>
      <point x="60" y="603"/>
      <point x="84" y="670"/>
      <point x="120" y="706" type="curve" smooth="yes"/>
      <point x="125" y="711"/>
      <point x="141" y="708"/>
      <point x="140" y="701" type="curve" smooth="yes"/>
      <point x="128" y="667"/>
      <point x="107" y="630"/>
      <point x="107" y="587" type="curve" smooth="yes"/>
      <point x="107" y="529"/>
      <point x="116" y="496"/>
      <point x="134" y="450" type="curve" smooth="yes"/>
      <point x="154" y="399"/>
      <point x="171" y="356"/>
      <point x="171" y="285" type="curve" smooth="yes"/>
      <point x="171" y="237"/>
      <point x="158" y="196"/>
      <point x="129" y="176" type="curve" smooth="yes"/>
      <point x="120" y="170"/>
      <point x="109" y="167"/>
    </contour>
  </outline>
</glyph>
<glyph name="quotedbl" format="2">
  <advance width="329"/>
  <unicode hex="0022"/>
  <outline>
    <contour>
      <point x="124" y="710" type="line"/>
      <point x="131" y="704" type="line"/>
      <point x="116.333" y="582"/>
      <point x="107" y="506.667"/>
      <point x="103" y="478" type="curve"/>
      <point x="73" y="464" type="line"/>
      <point x="59.6667" y="582"/>
      <point x="49" y="654.333"/>
      <point x="41" y="681" type="curve"/>
    </contour>
    <contour>
      <point x="279" y="710" type="line"/>
      <point x="286" y="704" type="line"/>
      <point x="271.333" y="579.333"/>
      <point x="262" y="504"/>
      <point x="258" y="478" type="curve"/>
      <point x="228" y="464" type="line"/>
      <point x="209.333" y="602"/>
      <point x="198.667" y="674.333"/>
      <point x="196" y="681" type="curve"/>
    </contour>
  </outline>
</glyph>
<glyph name="numbersign" format="2">
  <advance width="483"/>
  <unicode hex="0023"/>
  <outline>
    <contour>
      <point x="451" y="456" type="line"/>
      <point x="441" y="394" type="line"/>
      <point x="350" y="394" type="line"/>
      <point x="320" y="260" type="line"/>
      <point x="406" y="260" type="line"/>
      <point x="396" y="198" type="line"/>
      <point x="306" y="198" type="line"/>
      <point x="268" y="25" type="line"/>
      <point x="227" y="25" type="line"/>
      <point x="265" y="198" type="line"/>
      <point x="159" y="198" type="line"/>
      <point x="121" y="25" type="line"/>
      <point x="80" y="25" type="line"/>
      <point x="119" y="198" type="line"/>
      <point x="23" y="198" type="line"/>
      <point x="34" y="260" type="line"/>
      <point x="134" y="260" type="line"/>
      <point x="163" y="394" type="line"/>
      <point x="71" y="394" type="line"/>
      <point x="80" y="456" type="line"/>
      <point x="177" y="456" type="line"/>
      <point x="211" y="609" type="line"/>
      <point x="251" y="609" type="line"/>
      <point x="218" y="456" type="line"/>
      <point x="323" y="456" type="line"/>
      <point x="356" y="609" type="line"/>
      <point x="397" y="609" type="line"/>
      <point x="364" y="456" type="line"/>
    </contour>
    <contour>
      <point x="310" y="394" type="line"/>
      <point x="204" y="394" type="line"/>
      <point x="175" y="260" type="line"/>
      <point x="280" y="260" type="line"/>
    </contour>
  </outline>
</glyph>
<glyph name="dollar" format="2">
  <advance width="483"/>
  <unicode hex="0024"/>
  <outline>
    <contour>
      <point x="266" y="366" type="line"/>
      <point x="296" y="354" type="line"/>
      <point x="391.333" y="320"/>
      <point x="439" y="264.333"/>
      <point x="439" y="187" type="curve" smooth="yes"/>
      <point x="439" y="139"/>
      <point x="423.5" y="99.3333"/>
      <point x="392.5" y="68" type="curve" smooth="yes"/>
      <point x="361.5" y="36.6667"/>
      <point x="319.333" y="18"/>
      <point x="266" y="12" type="curve"/>
      <point x="266" y="-75" type="line"/>
      <point x="230" y="-75" type="line"/>
      <point x="230" y="9" type="line"/>
      <point x="168.667" y="9"/>
      <point x="116" y="22.6667"/>
      <point x="72" y="50" type="curve"/>
      <point x="63.3333" y="82"/>
      <point x="54" y="126.667"/>
      <point x="44" y="184" type="curve"/>
      <point x="75" y="191" type="line"/>
      <point x="102.333" y="101.667"/>
      <point x="154" y="52.667"/>
      <point x="230" y="44" type="curve"/>
      <point x="230" y="280" type="line"/>
      <point x="195" y="295" type="line"/>
      <point x="108.333" y="331"/>
      <point x="65" y="382.667"/>
      <point x="65" y="450" type="curve" smooth="yes"/>
      <point x="65" y="492"/>
      <point x="79.5" y="528.334"/>
      <point x="108.5" y="559" type="curve" smooth="yes"/>
      <point x="137.5" y="589.667"/>
      <point x="178" y="608"/>
      <point x="230" y="614" type="curve"/>
      <point x="230" y="693" type="line"/>
      <point x="266" y="693" type="line"/>
      <point x="266" y="616" type="line"/>
      <point x="299.333" y="616"/>
      <point x="329" y="611.667"/>
      <point x="355" y="603" type="curve" smooth="yes"/>
      <point x="359.667" y="602.333"/>
      <point x="365.667" y="601"/>
      <point x="373" y="599" type="curve" smooth="yes"/>
      <point x="380.336" y="597"/>
      <point x="385.67" y="595.667"/>
      <point x="389" y="595" type="curve"/>
      <point x="403" y="515"/>
      <point x="410.333" y="473.333"/>
      <point x="411" y="470" type="curve"/>
      <point x="382" y="463" type="line"/>
      <point x="372" y="497.667"/>
      <point x="359" y="525"/>
      <point x="343" y="545" type="curve" smooth="yes"/>
      <point x="327" y="565"/>
      <point x="301.333" y="577.667"/>
      <point x="266" y="583" type="curve"/>
    </contour>
    <contour>
      <point x="230" y="380" type="curve"/>
      <point x="230" y="583" type="line"/>
      <point x="200" y="579.667"/>
      <point x="177.333" y="568.5"/>
      <point x="162" y="549.5" type="curve" smooth="yes"/>
      <point x="146.667" y="530.5"/>
      <point x="139" y="508.667"/>
      <point x="139" y="484" type="curve" smooth="yes"/>
      <point x="139" y="438"/>
      <point x="169.333" y="403.333"/>
    </contour>
    <contour>
      <point x="266" y="268" type="line"/>
      <point x="266" y="45" type="line"/>
      <point x="294.667" y="49"/>
      <point x="317.167" y="60.5"/>
      <point x="333.5" y="79.5" type="curve" smooth="yes"/>
      <point x="349.833" y="98.5"/>
      <point x="358" y="122"/>
      <point x="358" y="150" type="curve" smooth="yes"/>
      <point x="358" y="174.667"/>
      <point x="352.333" y="196.167"/>
      <point x="341" y="214.5" type="curve" smooth="yes"/>
      <point x="329.667" y="232.833"/>
      <point x="308.667" y="249"/>
      <point x="278" y="263" type="curve"/>
    </contour>
  </outline>
</glyph>
<glyph name="percent" format="2">
  <advance width="758"/>
  <unicode hex="0025"/>
  <outline>
    <contour>
      <point x="595" y="628" type="line"/>
      <point x="191" y="-33" type="line"/>
      <point x="159" y="-9" type="line"/>
      <point x="561" y="652" type="line"/>
    </contour>
    <contour>
      <point x="195" y="635" type="curve" smooth="yes"/>
      <point x="241.667" y="635"/>
      <point x="277.667" y="616.333"/>
      <point x="303" y="579" type="curve" smooth="yes"/>
      <point x="328.333" y="541.667"/>
      <point x="341" y="500.333"/>
      <point x="341" y="455" type="curve" smooth="yes"/>
      <point x="341" y="409"/>
      <point x="328.5" y="367.333"/>
      <point x="303.5" y="330" type="curve" smooth="yes"/>
      <point x="278.5" y="292.667"/>
      <point x="242" y="274"/>
      <point x="194" y="274" type="curve" smooth="yes"/>
      <point x="146.667" y="274"/>
      <point x="110.5" y="292.5"/>
      <point x="85.5" y="329.5" type="curve" smooth="yes"/>
      <point x="60.5" y="366.5"/>
      <point x="48" y="408"/>
      <point x="48" y="454" type="curve" smooth="yes"/>
      <point x="48" y="500"/>
      <point x="60.5" y="541.667"/>
      <point x="85.5" y="579" type="curve" smooth="yes"/>
      <point x="110.5" y="616.333"/>
      <point x="147" y="635"/>
    </contour>
    <contour>
      <point x="194" y="604" type="curve" smooth="yes"/>
      <point x="176" y="604"/>
      <point x="161.5" y="594.5"/>
      <point x="150.5" y="575.5" type="curve" smooth="yes"/>
      <point x="139.5" y="556.5"/>
      <point x="132.5" y="537"/>
      <point x="129.5" y="517" type="curve" smooth="yes"/>
      <point x="126.5" y="497"/>
      <point x="125" y="476.333"/>
      <point x="125" y="455" type="curve" smooth="yes"/>
      <point x="125" y="440.333"/>
      <point x="126" y="425.333"/>
      <point x="128" y="410" type="curve" smooth="yes"/>
      <point x="130" y="394.667"/>
      <point x="133.333" y="378.667"/>
      <point x="138" y="362" type="curve" smooth="yes"/>
      <point x="142.667" y="345.333"/>
      <point x="149.834" y="331.666"/>
      <point x="159.5" y="321" type="curve" smooth="yes"/>
      <point x="169.167" y="310.333"/>
      <point x="181" y="305"/>
      <point x="195" y="305" type="curve" smooth="yes"/>
      <point x="209" y="305"/>
      <point x="221" y="310.333"/>
      <point x="231" y="321" type="curve" smooth="yes"/>
      <point x="241" y="331.667"/>
      <point x="248.167" y="345.5"/>
      <point x="252.5" y="362.5" type="curve" smooth="yes"/>
      <point x="256.833" y="379.5"/>
      <point x="259.833" y="395.333"/>
      <point x="261.5" y="410" type="curve" smooth="yes"/>
      <point x="263.167" y="424.667"/>
      <point x="264" y="439.667"/>
      <point x="264" y="455" type="curve" smooth="yes"/>
      <point x="264" y="470.333"/>
      <point x="263.167" y="485.333"/>
      <point x="261.5" y="500" type="curve" smooth="yes"/>
      <point x="259.833" y="514.667"/>
      <point x="256.833" y="530.5"/>
      <point x="252.5" y="547.5" type="curve" smooth="yes"/>
      <point x="248.167" y="564.5"/>
      <point x="241" y="578.167"/>
      <point x="231" y="588.5" type="curve" smooth="yes"/>
      <point x="221" y="598.833"/>
      <point x="208.667" y="604"/>
    </contour>
    <contour>
      <point x="567" y="349" type="curve" smooth="yes"/>
      <point x="613.667" y="349"/>
      <point x="649.667" y="330.333"/>
      <point x="675" y="293" type="curve" smooth="yes"/>
      <point x="700.333" y="255.667"/>
      <point x="713" y="214"/>
      <point x="713" y="168" type="curve" smooth="yes"/>
      <point x="713" y="122.667"/>
      <point x="700.333" y="81.3333"/>
      <point x="675" y="44" type="curve" smooth="yes"/>
      <point x="649.665" y="6.6667"/>
      <point x="613.332" y="-12"/>
      <point x="566" y="-12" type="curve" smooth="yes"/>
      <point x="519.333" y="-12"/>
      <point x="483.167" y="6.6667"/>
      <point x="457.5" y="44" type="curve" smooth="yes"/>
      <point x="431.833" y="81.3333"/>
      <point x="419" y="122.667"/>
      <point x="419" y="168" type="curve" smooth="yes"/>
      <point x="419" y="214"/>
      <point x="431.833" y="255.667"/>
      <point x="457.5" y="293" type="curve" smooth="yes"/>
      <point x="483.167" y="330.333"/>
      <point x="519.667" y="349"/>
    </contour>
    <contour>
      <point x="566" y="318" type="curve" smooth="yes"/>
      <point x="548" y="318"/>
      <point x="533.5" y="308.667"/>
      <point x="522.5" y="290" type="curve" smooth="yes"/>
      <point x="511.5" y="271.333"/>
      <point x="504.5" y="252"/>
      <point x="501.5" y="232" type="curve" smooth="yes"/>
      <point x="498.5" y="212"/>
      <point x="497" y="191"/>
      <point x="497" y="169" type="curve" smooth="yes"/>
      <point x="497" y="154.333"/>
      <point x="498" y="139.333"/>
      <point x="500" y="124" type="curve" smooth="yes"/>
      <point x="502" y="108.667"/>
      <point x="505.333" y="92.6667"/>
      <point x="510" y="76" type="curve" smooth="yes"/>
      <point x="514.675" y="59.3333"/>
      <point x="521.841" y="45.6667"/>
      <point x="531.5" y="35" type="curve" smooth="yes"/>
      <point x="541.167" y="24.3333"/>
      <point x="553" y="19"/>
      <point x="567" y="19" type="curve" smooth="yes"/>
      <point x="581" y="19"/>
      <point x="592.833" y="24.3333"/>
      <point x="602.5" y="35" type="curve" smooth="yes"/>
      <point x="612.167" y="45.6667"/>
      <point x="619.167" y="59.5"/>
      <point x="623.5" y="76.5" type="curve" smooth="yes"/>
      <point x="627.833" y="93.5"/>
      <point x="630.833" y="109.333"/>
      <point x="632.5" y="124" type="curve" smooth="yes"/>
      <point x="634.167" y="138.667"/>
      <point x="635" y="153.333"/>
      <point x="635" y="168" type="curve" smooth="yes"/>
      <point x="635" y="183.333"/>
      <point x="634.167" y="198.5"/>
      <point x="632.5" y="213.5" type="curve" smooth="yes"/>
      <point x="630.833" y="228.5"/>
      <point x="627.833" y="244.5"/>
      <point x="623.5" y="261.5" type="curve" smooth="yes"/>
      <point x="619.167" y="278.5"/>
      <point x="612" y="292.167"/>
      <point x="602" y="302.5" type="curve" smooth="yes"/>
      <point x="592" y="312.833"/>
      <point x="580" y="318"/>
    </contour>
  </outline>
</glyph>
<glyph name="asterisk" format="2">
  <advance width="387"/>
  <unicode hex="002A"/>
  <outline>
    <contour>
      <point x="280" y="505" type="line"/>
      <point x="326" y="412" type="line"/>
      <point x="233" y="457" type="line"/>
      <point x="198" y="361" type="line"/>
      <point x="164" y="457" type="line"/>
      <point x="73" y="412" type="line"/>
      <point x="117" y="505" type="line"/>
      <point x="21" y="539" type="line"/>
      <point x="115" y="573" type="line"/>
      <point x="71" y="665" type="line"/>
      <point x="164" y="620" type="line"/>
      <point x="198" y="716" type="line"/>
      <point x="233" y="620" type="line"/>
      <point x="326" y="665" type="line"/>
      <point x="280" y="573" type="line"/>
      <point x="376" y="539" type="line"/>
    </contour>
    <contour>
      <point x="240" y="556" type="line"/>
      <point x="264" y="604" type="line"/>
      <point x="215" y="581" type="line"/>
      <point x="198" y="630" type="line"/>
      <point x="181" y="581" type="line"/>
      <point x="133" y="603" type="line"/>
      <point x="155" y="556" type="line"/>
      <point x="107" y="539" type="line"/>
      <point x="156" y="521" type="line"/>
      <point x="133" y="473" type="line"/>
      <point x="181" y="496" type="line"/>
      <point x="198" y="447" type="line"/>
      <point x="215" y="496" type="line"/>
      <point x="264" y="473" type="line"/>
      <point x="240" y="521" type="line"/>
      <point x="290" y="539" type="line"/>
    </contour>
  </outline>
</glyph>
<glyph name="plus" format="2">
  <advance width="561"/>
  <unicode hex="002B"/>
  <outline>
    <contour>
      <point x="315" y="-2" type="line"/>
      <point x="247" y="-2" type="line"/>
      <point x="247" y="192" type="line"/>
      <point x="57" y="192" type="line"/>
      <point x="57" y="257" type="line"/>
      <point x="247" y="257" type="line"/>
      <point x="247" y="452" type="line"/>
      <point x="315" y="452" type="line"/>
      <point x="315" y="257" type="line"/>
      <point x="506" y="257" type="line"/>
      <point x="506" y="192" type="line"/>
      <point x="315" y="192" type="line"/>
    </contour>
  </outline>
</glyph>
<glyph name="period" format="2">
  <advance width="242"/>
  <unicode hex="002E"/>
  <outline>
    <contour>
      <point x="128" y="116" type="curve" smooth="yes"/>
      <point x="146" y="116"/>
      <point x="162" y="110"/>
      <point x="174" y="98" type="curve" smooth="yes"/>
      <point x="186" y="86"/>
      <point x="193" y="70"/>
      <point x="193" y="52" type="curve" smooth="yes"/>
      <point x="193" y="34"/>
      <point x="186" y="19"/>
      <point x="174" y="7" type="curve" smooth="yes"/>
      <point x="162" y="-5"/>
      <point x="146" y="-12"/>
      <point x="128" y="-12" type="curve" smooth="yes"/>
      <point x="110" y="-12"/>
      <point x="94" y="-5"/>
      <point x="82" y="7" type="curve" smooth="yes"/>
      <point x="70" y="19"/>
      <point x="63" y="34"/>
      <point x="63" y="52" type="curve" smooth="yes"/>
      <point x="63" y="70"/>
      <point x="70" y="86"/>
      <point x="82" y="98" type="curve" smooth="yes"/>
      <point x="94" y="110"/>
      <point x="110" y="116"/>
    </contour>
  </outline>
</glyph>
<glyph name="slash" format="2">
  <advance width="405"/>
  <unicode hex="002F"/>
  <outline>
    <contour>
      <point x="24" y="-281" type="line"/>
      <point x="-45" y="-281" type="line"/>
      <point x="331" y="768" type="line"/>
      <point x="400" y="768" type="line"/>
    </contour>
  </outline>
</glyph>
<glyph name="zero" format="2">
  <advance width="534"/>
  <unicode hex="0030"/>
  <outline>
    <contour>
      <point x="268" y="454" type="curve" smooth="yes"/>
      <point x="328" y="454"/>
      <point x="379.167" y="433"/>
      <point x="421.5" y="391" type="curve" smooth="yes"/>
      <point x="463.833" y="349"/>
      <point x="485" y="292.667"/>
      <point x="485" y="222" type="curve" smooth="yes"/>
      <point x="485" y="151.333"/>
      <point x="463.5" y="94.667"/>
      <point x="420.5" y="52" type="curve" smooth="yes"/>
      <point x="377.5" y="9.3333"/>
      <point x="326.333" y="-12"/>
      <point x="267" y="-12" type="curve" smooth="yes"/>
      <point x="206.333" y="-12"/>
      <point x="154.667" y="8.8333"/>
      <point x="112" y="50.5" type="curve" smooth="yes"/>
      <point x="69.3333" y="92.1667"/>
      <point x="48" y="148.333"/>
      <point x="48" y="219" type="curve" smooth="yes"/>
      <point x="48" y="290.333"/>
      <point x="69.5" y="347.333"/>
      <point x="112.5" y="390" type="curve" smooth="yes"/>
      <point x="155.5" y="432.667"/>
      <point x="207.333" y="454"/>
    </contour>
    <contour>
      <point x="266" y="407" type="curve" smooth="yes"/>
      <point x="227.333" y="407"/>
      <point x="195.5" y="389.833"/>
      <point x="170.5" y="355.5" type="curve" smooth="yes"/>
      <point x="145.5" y="321.167"/>
      <point x="133" y="276"/>
      <point x="133" y="220" type="curve" smooth="yes"/>
      <point x="133" y="164.667"/>
      <point x="145.5" y="120"/>
      <point x="170.5" y="86" type="curve" smooth="yes"/>
      <point x="195.5" y="52"/>
      <point x="227.667" y="35"/>
      <point x="267" y="35" type="curve" smooth="yes"/>
      <point x="307" y="35"/>
      <point x="339.333" y="51.8333"/>
      <point x="364" y="85.5" type="curve" smooth="yes"/>
      <point x="388.667" y="119.167"/>
      <point x="401" y="164"/>
      <point x="401" y="220" type="curve" smooth="yes"/>
      <point x="401" y="276.667"/>
      <point x="388.5" y="322"/>
      <point x="363.5" y="356" type="curve" smooth="yes"/>
      <point x="338.5" y="390"/>
      <point x="306" y="407"/>
    </contour>
  </outline>
</glyph>
<glyph name="one" format="2">
  <advance width="345"/>
  <unicode hex="0031"/>
  <outline>
    <contour>
      <point x="316" y="0" type="line"/>
      <point x="49" y="0" type="line"/>
      <point x="49" y="28" type="line"/>
      <point x="101" y="35" type="line" smooth="yes"/>
      <point x="117.667" y="37"/>
      <point x="128.167" y="41.8333"/>
      <point x="132.5" y="49.5" type="curve" smooth="yes"/>
      <point x="136.833" y="57.1667"/>
      <point x="139" y="73.6667"/>
      <point x="139" y="99" type="curve" smooth="yes"/>
      <point x="139" y="320" type="line" smooth="yes"/>
      <point x="139" y="346"/>
      <point x="136.667" y="362.5"/>
      <point x="132" y="369.5" type="curve" smooth="yes"/>
      <point x="127.333" y="376.5"/>
      <point x="116.333" y="380.333"/>
      <point x="99" y="381" type="curve" smooth="yes"/>
      <point x="41" y="384" type="line"/>
      <point x="41" y="411" type="line"/>
      <point x="103" y="421"/>
      <point x="164.667" y="435.333"/>
      <point x="226" y="454" type="curve"/>
      <point x="226" y="99" type="line" smooth="yes"/>
      <point x="226" y="73.6667"/>
      <point x="228.167" y="57.3333"/>
      <point x="232.5" y="50" type="curve" smooth="yes"/>
      <point x="236.833" y="42.6667"/>
      <point x="247.333" y="37.6667"/>
      <point x="264" y="35" type="curve" smooth="yes"/>
      <point x="316" y="28" type="line"/>
    </contour>
  </outline>
</glyph>
<glyph name="two" format="2">
  <advance width="451"/>
  <unicode hex="0032"/>
  <outline>
    <contour>
      <point x="430" y="122" type="line"/>
      <point x="401" y="0" type="line"/>
      <point x="41" y="0" type="line"/>
      <point x="41" y="24" type="line"/>
      <point x="116.058" y="78.588"/>
      <point x="167.121" y="119.378"/>
      <point x="194.189" y="146.369" type="curve" smooth="yes"/>
      <point x="246.063" y="198.096"/>
      <point x="272" y="246.307"/>
      <point x="272" y="291" type="curve" smooth="yes"/>
      <point x="272" y="318.333"/>
      <point x="264.333" y="340.833"/>
      <point x="249" y="358.5" type="curve" smooth="yes"/>
      <point x="233.667" y="376.167"/>
      <point x="211" y="385"/>
      <point x="181" y="385" type="curve" smooth="yes"/>
      <point x="165" y="385"/>
      <point x="148.833" y="379.833"/>
      <point x="132.5" y="369.5" type="curve" smooth="yes"/>
      <point x="116.167" y="359.167"/>
      <point x="104" y="349.667"/>
      <point x="96" y="341" type="curve" smooth="yes"/>
      <point x="88" y="332.333"/>
      <point x="78.6667" y="320.666"/>
      <point x="68" y="306" type="curve"/>
      <point x="45" y="326" type="line"/>
      <point x="97" y="400" type="line"/>
      <point x="131.667" y="436"/>
      <point x="172" y="454"/>
      <point x="218" y="454" type="curve" smooth="yes"/>
      <point x="262.667" y="454"/>
      <point x="298.5" y="440.5"/>
      <point x="325.5" y="413.5" type="curve" smooth="yes"/>
      <point x="352.5" y="386.5"/>
      <point x="366" y="352.667"/>
      <point x="366" y="312" type="curve" smooth="yes"/>
      <point x="366" y="268"/>
      <point x="342.667" y="224.333"/>
      <point x="296" y="181" type="curve" smooth="yes"/>
      <point x="283.333" y="168.333"/>
      <point x="240.333" y="133"/>
      <point x="167" y="75" type="curve"/>
      <point x="167" y="73" type="line"/>
      <point x="320" y="73" type="line" smooth="yes"/>
      <point x="343.333" y="73"/>
      <point x="360" y="76.3333"/>
      <point x="370" y="83" type="curve" smooth="yes"/>
      <point x="380" y="89.6667"/>
      <point x="390.667" y="104.333"/>
      <point x="402" y="127" type="curve"/>
    </contour>
  </outline>
</glyph>
<glyph name="five" format="2">
  <advance width="405"/>
  <unicode hex="0035"/>
  <outline>
    <contour>
      <point x="125" y="357" type="line"/>
      <point x="106" y="255" type="line"/>
      <point x="137.333" y="253.666"/>
      <point x="166.5" y="249.832"/>
      <point x="193.5" y="243.5" type="curve" smooth="yes"/>
      <point x="220.5" y="237.166"/>
      <point x="246.5" y="227.333"/>
      <point x="271.5" y="214" type="curve" smooth="yes"/>
      <point x="296.5" y="200.667"/>
      <point x="316.333" y="181.667"/>
      <point x="331" y="157" type="curve" smooth="yes"/>
      <point x="345.667" y="132.333"/>
      <point x="353" y="103"/>
      <point x="353" y="69" type="curve" smooth="yes"/>
      <point x="353" y="5.6667"/>
      <point x="322.667" y="-47.667"/>
      <point x="262" y="-91" type="curve" smooth="yes"/>
      <point x="232" y="-113"/>
      <point x="196" y="-130.333"/>
      <point x="154" y="-143" type="curve" smooth="yes"/>
      <point x="112" y="-155.667"/>
      <point x="74" y="-162.333"/>
      <point x="40" y="-163" type="curve"/>
      <point x="35" y="-130" type="line"/>
      <point x="49.6667" y="-128"/>
      <point x="64.5" y="-125.167"/>
      <point x="79.5" y="-121.5" type="curve" smooth="yes"/>
      <point x="94.5" y="-117.833"/>
      <point x="113.833" y="-111.333"/>
      <point x="137.5" y="-102" type="curve" smooth="yes"/>
      <point x="161.167" y="-92.6667"/>
      <point x="181.667" y="-81.6667"/>
      <point x="199" y="-69" type="curve" smooth="yes"/>
      <point x="216.333" y="-56.3333"/>
      <point x="231.5" y="-39.5"/>
      <point x="244.5" y="-18.5" type="curve" smooth="yes"/>
      <point x="257.5" y="2.5"/>
      <point x="264" y="26"/>
      <point x="264" y="52" type="curve" smooth="yes"/>
      <point x="264" y="98"/>
      <point x="243.833" y="130.833"/>
      <point x="203.5" y="150.5" type="curve" smooth="yes"/>
      <point x="163.167" y="170.167"/>
      <point x="113.333" y="180"/>
      <point x="54" y="180" type="curve"/>
      <point x="93" y="431" type="line"/>
      <point x="352" y="454" type="line"/>
      <point x="338" y="376" type="line"/>
    </contour>
  </outline>
</glyph>
<glyph name="six" format="2">
  <advance width="504"/>
  <unicode hex="0036"/>
  <outline>
    <contour>
      <point x="439" y="607" type="curve"/>
      <point x="445" y="575" type="line"/>
      <point x="397.667" y="563.667"/>
      <point x="357" y="545"/>
      <point x="323" y="519" type="curve"/>
      <point x="283.667" y="497.667"/>
      <point x="250.333" y="471.167"/>
      <point x="223" y="439.5" type="curve" smooth="yes"/>
      <point x="195.666" y="407.833"/>
      <point x="176.333" y="374.333"/>
      <point x="165" y="339" type="curve"/>
      <point x="221" y="363" type="line" smooth="yes"/>
      <point x="249.667" y="375"/>
      <point x="270.667" y="381"/>
      <point x="284" y="381" type="curve" smooth="yes"/>
      <point x="334" y="381"/>
      <point x="375.333" y="364.5"/>
      <point x="408" y="331.5" type="curve" smooth="yes"/>
      <point x="440.667" y="298.5"/>
      <point x="457" y="254.667"/>
      <point x="457" y="200" type="curve" smooth="yes"/>
      <point x="457" y="140"/>
      <point x="437.333" y="89.667"/>
      <point x="398" y="49" type="curve" smooth="yes"/>
      <point x="358.667" y="8.3333"/>
      <point x="309.667" y="-12"/>
      <point x="251" y="-12" type="curve" smooth="yes"/>
      <point x="195.667" y="-12"/>
      <point x="148.5" y="8.5"/>
      <point x="109.5" y="49.5" type="curve" smooth="yes"/>
      <point x="70.5" y="90.5"/>
      <point x="51" y="149"/>
      <point x="51" y="225" type="curve" smooth="yes"/>
      <point x="51" y="306.333"/>
      <point x="75.6667" y="377.333"/>
      <point x="125" y="438" type="curve" smooth="yes"/>
      <point x="174.333" y="498.667"/>
      <point x="235.333" y="543.667"/>
      <point x="308" y="573" type="curve"/>
      <point x="350" y="588.333"/>
      <point x="393.667" y="599.667"/>
    </contour>
    <contour>
      <point x="232" y="323" type="curve" smooth="yes"/>
      <point x="208.667" y="323"/>
      <point x="183.667" y="316.333"/>
      <point x="157" y="303" type="curve"/>
      <point x="152.333" y="282.333"/>
      <point x="150" y="258.333"/>
      <point x="150" y="231" type="curve" smooth="yes"/>
      <point x="150" y="167.667"/>
      <point x="161.5" y="117.5"/>
      <point x="184.5" y="80.5" type="curve" smooth="yes"/>
      <point x="207.5" y="43.5"/>
      <point x="236" y="25"/>
      <point x="270" y="25" type="curve" smooth="yes"/>
      <point x="297.333" y="25"/>
      <point x="320" y="36.1667"/>
      <point x="338" y="58.5" type="curve" smooth="yes"/>
      <point x="356" y="80.8333"/>
      <point x="365" y="113.667"/>
      <point x="365" y="157" type="curve" smooth="yes"/>
      <point x="365" y="202.333"/>
      <point x="354.5" y="241.333"/>
      <point x="333.5" y="274" type="curve" smooth="yes"/>
      <point x="312.5" y="306.667"/>
      <point x="278.667" y="323"/>
    </contour>
  </outline>
</glyph>
<glyph name="seven" format="2">
  <advance width="440"/>
  <unicode hex="0037"/>
  <outline>
    <contour>
      <point x="418" y="442" type="line"/>
      <point x="427" y="430" type="line"/>
      <point x="117" y="-148" type="line"/>
      <point x="36" y="-163" type="line"/>
      <point x="29" y="-150" type="line"/>
      <point x="129" y="-9.333"/>
      <point x="234.667" y="161.667"/>
      <point x="346" y="363" type="curve"/>
      <point x="37" y="363" type="line"/>
      <point x="37" y="442" type="line"/>
    </contour>
  </outline>
</glyph>
<glyph name="eight" format="2">
  <advance width="471"/>
  <unicode hex="0038"/>
  <outline>
    <contour>
      <point x="243" y="606" type="curve" smooth="yes"/>
      <point x="289" y="606"/>
      <point x="326.667" y="592.333"/>
      <point x="356" y="565" type="curve" smooth="yes"/>
      <point x="385.333" y="537.667"/>
      <point x="400" y="503.333"/>
      <point x="400" y="462" type="curve" smooth="yes"/>
      <point x="400" y="433.333"/>
      <point x="390.667" y="408.666"/>
      <point x="372" y="388" type="curve" smooth="yes"/>
      <point x="357.333" y="372"/>
      <point x="333.666" y="352"/>
      <point x="301" y="328" type="curve"/>
      <point x="320.333" y="316"/>
      <point x="336" y="305.833"/>
      <point x="348" y="297.5" type="curve" smooth="yes"/>
      <point x="360" y="289.167"/>
      <point x="372.667" y="278.167"/>
      <point x="386" y="264.5" type="curve" smooth="yes"/>
      <point x="399.335" y="250.833"/>
      <point x="409.168" y="235.667"/>
      <point x="415.5" y="219" type="curve" smooth="yes"/>
      <point x="421.833" y="202.333"/>
      <point x="425" y="183.667"/>
      <point x="425" y="163" type="curve" smooth="yes"/>
      <point x="425" y="109"/>
      <point x="404.833" y="66.3333"/>
      <point x="364.5" y="35" type="curve" smooth="yes"/>
      <point x="324.167" y="3.6667"/>
      <point x="280" y="-12"/>
      <point x="232" y="-12" type="curve" smooth="yes"/>
      <point x="178" y="-12"/>
      <point x="133.667" y="2.3333"/>
      <point x="99" y="31" type="curve" smooth="yes"/>
      <point x="64.3333" y="59.6667"/>
      <point x="47" y="98.6667"/>
      <point x="47" y="148" type="curve" smooth="yes"/>
      <point x="47" y="183.333"/>
      <point x="61" y="213.667"/>
      <point x="89" y="239" type="curve"/>
      <point x="108.333" y="258.334"/>
      <point x="136" y="278.667"/>
      <point x="172" y="300" type="curve"/>
      <point x="140" y="319.333"/>
      <point x="115.167" y="340.333"/>
      <point x="97.5" y="363" type="curve" smooth="yes"/>
      <point x="79.8333" y="385.667"/>
      <point x="71" y="413.667"/>
      <point x="71" y="447" type="curve" smooth="yes"/>
      <point x="71" y="489.667"/>
      <point x="87.3334" y="526.833"/>
      <point x="120" y="558.5" type="curve" smooth="yes"/>
      <point x="152.667" y="590.167"/>
      <point x="193.667" y="606"/>
    </contour>
    <contour>
      <point x="234" y="572" type="curve" smooth="yes"/>
      <point x="208.667" y="572"/>
      <point x="188.5" y="562.5"/>
      <point x="173.5" y="543.5" type="curve" smooth="yes"/>
      <point x="158.5" y="524.5"/>
      <point x="151" y="502.667"/>
      <point x="151" y="478" type="curve" smooth="yes"/>
      <point x="151" y="446.667"/>
      <point x="160.833" y="422"/>
      <point x="180.5" y="404" type="curve" smooth="yes"/>
      <point x="200.167" y="386"/>
      <point x="231" y="366"/>
      <point x="273" y="344" type="curve"/>
      <point x="305.667" y="374"/>
      <point x="322" y="412.667"/>
      <point x="322" y="460" type="curve" smooth="yes"/>
      <point x="322" y="496"/>
      <point x="313" y="523.667"/>
      <point x="295" y="543" type="curve" smooth="yes"/>
      <point x="277" y="562.333"/>
      <point x="256.667" y="572"/>
    </contour>
    <contour>
      <point x="245" y="22" type="curve" smooth="yes"/>
      <point x="271.667" y="22"/>
      <point x="293.833" y="31.8333"/>
      <point x="311.5" y="51.5" type="curve" smooth="yes"/>
      <point x="329.167" y="71.1667"/>
      <point x="338" y="98.6667"/>
      <point x="338" y="134" type="curve" smooth="yes"/>
      <point x="338" y="166.667"/>
      <point x="326.5" y="193.5"/>
      <point x="303.5" y="214.5" type="curve" smooth="yes"/>
      <point x="280.5" y="235.5"/>
      <point x="246.333" y="258.333"/>
      <point x="201" y="283" type="curve"/>
      <point x="155" y="248.333"/>
      <point x="132" y="205.667"/>
      <point x="132" y="155" type="curve" smooth="yes"/>
      <point x="132" y="114.333"/>
      <point x="143.333" y="82"/>
      <point x="166" y="58" type="curve" smooth="yes"/>
      <point x="188.667" y="34"/>
      <point x="215" y="22"/>
    </contour>
  </outline>
</glyph>
<glyph name="semicolon" format="2">
  <advance width="241"/>
  <unicode hex="003B"/>
  <outline>
    <contour>
      <point x="83" y="360" type="curve" smooth="yes"/>
      <point x="81" y="364"/>
      <point x="79" y="381"/>
      <point x="78" y="410" type="curve" smooth="yes"/>
      <point x="78" y="425"/>
      <point x="78" y="435"/>
      <point x="80" y="442" type="curve" smooth="yes"/>
      <point x="82" y="449"/>
      <point x="84" y="455"/>
      <point x="87" y="457" type="curve" smooth="yes"/>
      <point x="90" y="459"/>
      <point x="93" y="461"/>
      <point x="98" y="462" type="curve" smooth="yes"/>
      <point x="109" y="464"/>
      <point x="119" y="465"/>
      <point x="127" y="466" type="curve" smooth="yes"/>
      <point x="134" y="466"/>
      <point x="145" y="465"/>
      <point x="163" y="463" type="curve" smooth="yes"/>
      <point x="175" y="461"/>
      <point x="182" y="458"/>
      <point x="183" y="450" type="curve" smooth="yes"/>
      <point x="185" y="436"/>
      <point x="186" y="422"/>
      <point x="186" y="410" type="curve" smooth="yes"/>
      <point x="186" y="402"/>
      <point x="185" y="388"/>
      <point x="183" y="370" type="curve" smooth="yes"/>
      <point x="182" y="362"/>
      <point x="178" y="356"/>
      <point x="170" y="354" type="curve" smooth="yes"/>
      <point x="161" y="352"/>
      <point x="147" y="352"/>
      <point x="129" y="352" type="curve" smooth="yes"/>
      <point x="126" y="352"/>
      <point x="117" y="352"/>
      <point x="105" y="354" type="curve" smooth="yes"/>
      <point x="93" y="356"/>
      <point x="85" y="358"/>
    </contour>
    <contour>
      <point x="57" y="-129" type="line"/>
      <point x="79" y="-114"/>
      <point x="97" y="-97"/>
      <point x="114" y="-77" type="curve" smooth="yes"/>
      <point x="131" y="-57"/>
      <point x="140" y="-42"/>
      <point x="140" y="-31" type="curve" smooth="yes"/>
      <point x="140" y="-19"/>
      <point x="133" y="-12"/>
      <point x="120" y="-12" type="curve" smooth="yes"/>
      <point x="82" y="-12"/>
      <point x="64" y="9"/>
      <point x="64" y="51" type="curve" smooth="yes"/>
      <point x="64" y="67"/>
      <point x="70" y="80"/>
      <point x="83" y="90" type="curve" smooth="yes"/>
      <point x="96" y="100"/>
      <point x="111" y="105"/>
      <point x="128" y="105" type="curve" smooth="yes"/>
      <point x="148" y="105"/>
      <point x="165" y="97"/>
      <point x="177" y="83" type="curve" smooth="yes"/>
      <point x="189" y="69"/>
      <point x="195" y="47"/>
      <point x="195" y="18" type="curve" smooth="yes"/>
      <point x="195" y="-12"/>
      <point x="185" y="-44"/>
      <point x="164" y="-77" type="curve" smooth="yes"/>
      <point x="143" y="-110"/>
      <point x="113" y="-139"/>
      <point x="71" y="-163" type="curve"/>
    </contour>
  </outline>
</glyph>
<glyph name="less" format="2">
  <advance width="552"/>
  <unicode hex="003C"/>
  <outline>
    <contour>
      <point x="493" y="0" type="line"/>
      <point x="59" y="228" type="line"/>
      <point x="59" y="279" type="line"/>
      <point x="493" y="507" type="line"/>
      <point x="493" y="448" type="line"/>
      <point x="120" y="254" type="line"/>
      <point x="120" y="252" type="line"/>
      <point x="493" y="58" type="line"/>
    </contour>
  </outline>
</glyph>
<glyph name="equal" format="2">
  <advance width="593"/>
  <unicode hex="003D"/>
  <outline>
    <contour>
      <point x="85" y="83" type="line"/>
      <point x="85" y="147" type="line"/>
      <point x="501" y="147" type="line"/>
      <point x="501" y="83" type="line"/>
    </contour>
    <contour>
      <point x="85" y="244" type="line"/>
      <point x="85" y="307" type="line"/>
      <point x="501" y="307" type="line"/>
      <point x="501" y="244" type="line"/>
    </contour>
  </outline>
</glyph>
<glyph name="greater" format="2">
  <advance width="552"/>
  <unicode hex="003E"/>
  <outline>
    <contour>
      <point x="493" y="228" type="line"/>
      <point x="59" y="0" type="line"/>
      <point x="59" y="58" type="line"/>
      <point x="432" y="252" type="line"/>
      <point x="432" y="254" type="line"/>
      <point x="59" y="448" type="line"/>
      <point x="59" y="507" type="line"/>
      <point x="493" y="279" type="line"/>
    </contour>
  </outline>
</glyph>
<glyph name="B" format="2">
  <advance width="597"/>
  <unicode hex="0042"/>
  <outline>
    <contour>
      <point x="377" y="353" type="curve"/>
      <point x="377" y="351" type="line"/>
      <point x="496.333" y="333.667"/>
      <point x="556" y="280.667"/>
      <point x="556" y="192" type="curve" smooth="yes"/>
      <point x="556" y="126"/>
      <point x="524.333" y="75.667"/>
      <point x="461" y="41" type="curve"/>
      <point x="413.667" y="13.6667"/>
      <point x="347.667" y="0"/>
      <point x="263" y="0" type="curve" smooth="yes"/>
      <point x="36" y="0" type="line"/>
      <point x="36" y="29" type="line"/>
      <point x="78.6667" y="31.6667"/>
      <point x="104.5" y="38"/>
      <point x="113.5" y="48" type="curve" smooth="yes"/>
      <point x="122.5" y="58"/>
      <point x="127" y="83.6667"/>
      <point x="127" y="125" type="curve" smooth="yes"/>
      <point x="127" y="526" type="line" smooth="yes"/>
      <point x="127" y="567.333"/>
      <point x="122.833" y="592.833"/>
      <point x="114.5" y="602.5" type="curve" smooth="yes"/>
      <point x="106.167" y="612.169"/>
      <point x="82.6667" y="618.336"/>
      <point x="44" y="621" type="curve"/>
      <point x="44" y="650" type="line"/>
      <point x="307" y="650" type="line" smooth="yes"/>
      <point x="375" y="650"/>
      <point x="426" y="638.667"/>
      <point x="460" y="616" type="curve" smooth="yes"/>
      <point x="497.333" y="590.667"/>
      <point x="516" y="552.667"/>
      <point x="516" y="502" type="curve" smooth="yes"/>
      <point x="516" y="460"/>
      <point x="502.167" y="427"/>
      <point x="474.5" y="403" type="curve" smooth="yes"/>
      <point x="446.833" y="379"/>
      <point x="414.333" y="362.333"/>
    </contour>
    <contour>
      <point x="220" y="363" type="line"/>
      <point x="262" y="363" type="line" smooth="yes"/>
      <point x="315.334" y="363"/>
      <point x="354.167" y="373.5"/>
      <point x="378.5" y="394.5" type="curve" smooth="yes"/>
      <point x="402.833" y="415.5"/>
      <point x="415" y="447"/>
      <point x="415" y="489" type="curve" smooth="yes"/>
      <point x="415" y="527"/>
      <point x="404.167" y="557.833"/>
      <point x="382.5" y="581.5" type="curve" smooth="yes"/>
      <point x="360.833" y="605.167"/>
      <point x="329" y="617"/>
      <point x="287" y="617" type="curve" smooth="yes"/>
      <point x="261" y="617"/>
      <point x="242.667" y="613.333"/>
      <point x="232" y="606" type="curve" smooth="yes"/>
      <point x="224" y="600.667"/>
      <point x="220" y="584.667"/>
      <point x="220" y="558" type="curve" smooth="yes"/>
    </contour>
    <contour>
      <point x="220" y="328" type="line"/>
      <point x="220" y="127" type="line" smooth="yes"/>
      <point x="220" y="91"/>
      <point x="225.667" y="66.6667"/>
      <point x="237" y="54" type="curve" smooth="yes"/>
      <point x="247.767" y="41.9667"/>
      <point x="267.559" y="35.95"/>
      <point x="296.375" y="35.95" type="curve" smooth="yes"/>
      <point x="297.892" y="35.95"/>
      <point x="299.433" y="35.9667"/>
      <point x="301" y="36" type="curve" smooth="yes"/>
      <point x="343" y="36"/>
      <point x="378.167" y="48.1667"/>
      <point x="406.5" y="72.5" type="curve" smooth="yes"/>
      <point x="434.833" y="96.8334"/>
      <point x="449" y="133.333"/>
      <point x="449" y="182" type="curve" smooth="yes"/>
      <point x="449" y="279.333"/>
      <point x="386.333" y="328"/>
      <point x="261" y="328" type="curve" smooth="yes"/>
    </contour>
  </outline>
</glyph>
<glyph name="F" format="2">
  <advance width="533"/>
  <unicode hex="0046"/>
  <outline>
    <contour>
      <point x="498" y="502" type="curve"/>
      <point x="468" y="498" type="line"/>
      <point x="459.333" y="536"/>
      <point x="449.333" y="563"/>
      <point x="438" y="579" type="curve" smooth="yes"/>
      <point x="429.333" y="592.333"/>
      <point x="417.333" y="601.5"/>
      <point x="402" y="606.5" type="curve" smooth="yes"/>
      <point x="386.667" y="611.5"/>
      <point x="361.333" y="614"/>
      <point x="326" y="614" type="curve" smooth="yes"/>
      <point x="255" y="614" type="line" smooth="yes"/>
      <point x="239.667" y="614"/>
      <point x="230.167" y="612.333"/>
      <point x="226.5" y="609" type="curve" smooth="yes"/>
      <point x="222.833" y="605.667"/>
      <point x="221" y="596.667"/>
      <point x="221" y="582" type="curve" smooth="yes"/>
      <point x="221" y="347" type="line"/>
      <point x="320" y="347" type="line" smooth="yes"/>
      <point x="364" y="347"/>
      <point x="391.5" y="351"/>
      <point x="402.5" y="359" type="curve" smooth="yes"/>
      <point x="413.5" y="367"/>
      <point x="422" y="387.333"/>
      <point x="428" y="420" type="curve"/>
      <point x="458" y="420" type="line"/>
      <point x="458" y="227" type="line"/>
      <point x="428" y="227" type="line"/>
      <point x="422" y="262.333"/>
      <point x="413.5" y="284.333"/>
      <point x="402.5" y="293" type="curve" smooth="yes"/>
      <point x="391.5" y="301.667"/>
      <point x="364" y="306"/>
      <point x="320" y="306" type="curve" smooth="yes"/>
      <point x="221" y="306" type="line"/>
      <point x="221" y="129" type="line" smooth="yes"/>
      <point x="221" y="85.6666"/>
      <point x="226" y="59"/>
      <point x="236" y="49" type="curve" smooth="yes"/>
      <point x="246" y="39"/>
      <point x="273.667" y="32.3333"/>
      <point x="319" y="29" type="curve"/>
      <point x="319" y="0" type="line"/>
      <point x="40" y="0" type="line"/>
      <point x="40" y="29" type="line"/>
      <point x="80" y="32.3333"/>
      <point x="104.5" y="39"/>
      <point x="113.5" y="49" type="curve" smooth="yes"/>
      <point x="122.5" y="59"/>
      <point x="127" y="85.6667"/>
      <point x="127" y="129" type="curve" smooth="yes"/>
      <point x="127" y="522" type="line" smooth="yes"/>
      <point x="127" y="564.667"/>
      <point x="122.667" y="591"/>
      <point x="114" y="601" type="curve" smooth="yes"/>
      <point x="105.333" y="611"/>
      <point x="81.6667" y="617.667"/>
      <point x="43" y="621" type="curve"/>
      <point x="43" y="650" type="line"/>
      <point x="488" y="650" type="line"/>
      <point x="488.667" y="624.666"/>
      <point x="492" y="575.333"/>
    </contour>
  </outline>
</glyph>
<glyph name="G" format="2">
  <advance width="717"/>
  <unicode hex="0047"/>
  <outline>
    <contour>
      <point x="694" y="303" type="line"/>
      <point x="694" y="274" type="line"/>
      <point x="664.665" y="269.333"/>
      <point x="646.832" y="263.333"/>
      <point x="640.5" y="256" type="curve" smooth="yes"/>
      <point x="634.167" y="248.667"/>
      <point x="631" y="230"/>
      <point x="631" y="200" type="curve" smooth="yes"/>
      <point x="631" y="116" type="line" smooth="yes"/>
      <point x="631" y="73.3333"/>
      <point x="633.333" y="41.6667"/>
      <point x="638" y="21" type="curve"/>
      <point x="532" y="-3"/>
      <point x="457" y="-15"/>
      <point x="413" y="-15" type="curve" smooth="yes"/>
      <point x="302.333" y="-15"/>
      <point x="213.167" y="15.8333"/>
      <point x="145.5" y="77.5" type="curve" smooth="yes"/>
      <point x="77.8333" y="139.167"/>
      <point x="44" y="220"/>
      <point x="44" y="320" type="curve" smooth="yes"/>
      <point x="44" y="394"/>
      <point x="62.5" y="457.667"/>
      <point x="99.5" y="511" type="curve" smooth="yes"/>
      <point x="136.5" y="564.333"/>
      <point x="183.5" y="603.333"/>
      <point x="240.5" y="628" type="curve" smooth="yes"/>
      <point x="297.5" y="652.667"/>
      <point x="360" y="665"/>
      <point x="428" y="665" type="curve" smooth="yes"/>
      <point x="476.667" y="665"/>
      <point x="541" y="655.333"/>
      <point x="621" y="636" type="curve"/>
      <point x="625.667" y="581.333"/>
      <point x="631" y="529"/>
      <point x="637" y="479" type="curve"/>
      <point x="607" y="472" type="line"/>
      <point x="586.333" y="576.667"/>
      <point x="521.333" y="629"/>
      <point x="412" y="629" type="curve" smooth="yes"/>
      <point x="336.667" y="629"/>
      <point x="275" y="602.167"/>
      <point x="227" y="548.5" type="curve" smooth="yes"/>
      <point x="179" y="494.833"/>
      <point x="155" y="423"/>
      <point x="155" y="333" type="curve" smooth="yes"/>
      <point x="155" y="281.667"/>
      <point x="164.167" y="233"/>
      <point x="182.5" y="187" type="curve" smooth="yes"/>
      <point x="200.833" y="141"/>
      <point x="231" y="101.833"/>
      <point x="273" y="69.5" type="curve" smooth="yes"/>
      <point x="315" y="37.1667"/>
      <point x="365.667" y="21"/>
      <point x="425" y="21" type="curve" smooth="yes"/>
      <point x="459" y="21"/>
      <point x="486.333" y="26.6667"/>
      <point x="507" y="38" type="curve" smooth="yes"/>
      <point x="527" y="48.6667"/>
      <point x="537" y="69.6667"/>
      <point x="537" y="101" type="curve" smooth="yes"/>
      <point x="537" y="188" type="line" smooth="yes"/>
      <point x="537" y="224"/>
      <point x="531.833" y="246.333"/>
      <point x="521.5" y="255" type="curve" smooth="yes"/>
      <point x="511.167" y="263.667"/>
      <point x="481.333" y="270"/>
      <point x="432" y="274" type="curve"/>
      <point x="432" y="303" type="line"/>
    </contour>
  </outline>
</glyph>
<glyph name="M" format="2">
  <advance width="890"/>
  <unicode hex="004D"/>
  <outline>
    <contour>
      <point x="861" y="0" type="line"/>
      <point x="592" y="0" type="line"/>
      <point x="592" y="29" type="line"/>
      <point x="632" y="33"/>
      <point x="656" y="40.6667"/>
      <point x="664" y="52" type="curve" smooth="yes"/>
      <point x="671.385" y="62.4615"/>
      <point x="675.077" y="90.2485"/>
      <point x="675.077" y="135.361" type="curve" smooth="yes"/>
      <point x="675.077" y="139.12"/>
      <point x="675.051" y="143"/>
      <point x="675" y="147" type="curve" smooth="yes"/>
      <point x="672" y="550" type="line"/>
      <point x="668" y="550" type="line"/>
      <point x="428" y="7" type="line"/>
      <point x="407" y="7" type="line"/>
      <point x="186" y="537" type="line"/>
      <point x="184" y="537" type="line"/>
      <point x="169" y="256" type="line" smooth="yes"/>
      <point x="166.917" y="212.25"/>
      <point x="165.875" y="174.359"/>
      <point x="165.875" y="142.328" type="curve" smooth="yes"/>
      <point x="165.875" y="123.109"/>
      <point x="166.25" y="106"/>
      <point x="167" y="91" type="curve" smooth="yes"/>
      <point x="167.667" y="68.3333"/>
      <point x="174.334" y="53.3333"/>
      <point x="187" y="46" type="curve" smooth="yes"/>
      <point x="199.667" y="38.6666"/>
      <point x="223.667" y="33.3333"/>
      <point x="259" y="30" type="curve"/>
      <point x="259" y="0" type="line"/>
      <point x="24" y="0" type="line"/>
      <point x="24" y="30" type="line"/>
      <point x="53.3333" y="33.3333"/>
      <point x="73.8333" y="39"/>
      <point x="85.5" y="47" type="curve" smooth="yes"/>
      <point x="97.1667" y="55"/>
      <point x="104.667" y="69"/>
      <point x="108" y="89" type="curve" smooth="yes"/>
      <point x="114.667" y="128.333"/>
      <point x="121.333" y="189.667"/>
      <point x="128" y="273" type="curve"/>
      <point x="142" y="479" type="line" smooth="yes"/>
      <point x="143.333" y="502.334"/>
      <point x="144.333" y="520.334"/>
      <point x="145" y="533" type="curve" smooth="yes"/>
      <point x="145.167" y="536.167"/>
      <point x="145.25" y="539.313"/>
      <point x="145.25" y="542.438" type="curve" smooth="yes"/>
      <point x="145.25" y="551.813"/>
      <point x="144.5" y="561"/>
      <point x="143" y="570" type="curve" smooth="yes"/>
      <point x="141" y="582"/>
      <point x="138.667" y="590.333"/>
      <point x="136" y="595" type="curve" smooth="yes"/>
      <point x="133.333" y="599.667"/>
      <point x="127.833" y="604.167"/>
      <point x="119.5" y="608.5" type="curve" smooth="yes"/>
      <point x="111.167" y="612.833"/>
      <point x="102.667" y="615.5"/>
      <point x="94" y="616.5" type="curve" smooth="yes"/>
      <point x="55" y="621" type="line"/>
      <point x="55" y="650" type="line"/>
      <point x="228" y="650" type="line"/>
      <point x="449" y="161" type="line"/>
      <point x="675" y="650" type="line"/>
      <point x="850" y="650" type="line"/>
      <point x="850" y="621" type="line"/>
      <point x="806" y="617"/>
      <point x="779.667" y="609.833"/>
      <point x="771" y="599.5" type="curve" smooth="yes"/>
      <point x="763.489" y="590.545"/>
      <point x="759.733" y="566.942"/>
      <point x="759.733" y="528.693" type="curve" smooth="yes"/>
      <point x="759.733" y="522.809"/>
      <point x="759.822" y="516.578"/>
      <point x="760" y="510" type="curve" smooth="yes"/>
      <point x="769" y="147" type="line" smooth="yes"/>
      <point x="770.333" y="94.3333"/>
      <point x="775.333" y="62.5"/>
      <point x="784" y="51.5" type="curve" smooth="yes"/>
      <point x="792.67" y="40.5"/>
      <point x="818.336" y="33"/>
      <point x="861" y="29" type="curve"/>
    </contour>
  </outline>
</glyph>
<glyph name="T" format="2">
  <advance width="621"/>
  <unicode hex="0054"/>
  <outline>
    <contour>
      <point x="596" y="495" type="curve"/>
      <point x="566" y="492" type="line"/>
      <point x="556" y="536.669"/>
      <point x="544.667" y="567.335"/>
      <point x="532" y="584" type="curve" smooth="yes"/>
      <point x="523.333" y="596"/>
      <point x="512.167" y="604"/>
      <point x="498.5" y="608" type="curve" smooth="yes"/>
      <point x="484.833" y="612"/>
      <point x="460.333" y="614"/>
      <point x="425" y="614" type="curve" smooth="yes"/>
      <point x="359" y="614" type="line"/>
      <point x="359" y="125" type="line" smooth="yes"/>
      <point x="359" y="84.3333"/>
      <point x="364.333" y="58.8333"/>
      <point x="375" y="48.5" type="curve" smooth="yes"/>
      <point x="385.667" y="38.1667"/>
      <point x="414.333" y="31.6667"/>
      <point x="461" y="29" type="curve"/>
      <point x="461" y="0" type="line"/>
      <point x="167" y="0" type="line"/>
      <point x="167" y="29" type="line"/>
      <point x="211.667" y="31.6667"/>
      <point x="239.167" y="38.1667"/>
      <point x="249.5" y="48.5" type="curve" smooth="yes"/>
      <point x="259.833" y="58.8333"/>
      <point x="265" y="84.3333"/>
      <point x="265" y="125" type="curve" smooth="yes"/>
      <point x="265" y="614" type="line"/>
      <point x="208" y="614" type="line" smooth="yes"/>
      <point x="168.667" y="614"/>
      <point x="141.333" y="611.833"/>
      <point x="126" y="607.5" type="curve" smooth="yes"/>
      <point x="110.667" y="603.167"/>
      <point x="99.3333" y="595"/>
      <point x="92" y="583" type="curve" smooth="yes"/>
      <point x="81.3333" y="567.665"/>
      <point x="70.3333" y="537.331"/>
      <point x="59" y="492" type="curve"/>
      <point x="28" y="492" type="line"/>
      <point x="34.6667" y="572"/>
      <point x="38.6667" y="633"/>
      <point x="40" y="675" type="curve"/>
      <point x="61" y="675" type="line"/>
      <point x="68.3333" y="664.333"/>
      <point x="75.5" y="657.5"/>
      <point x="82.5" y="654.5" type="curve" smooth="yes"/>
      <point x="89.5" y="651.5"/>
      <point x="100.667" y="650"/>
      <point x="116" y="650" type="curve" smooth="yes"/>
      <point x="513" y="650" type="line" smooth="yes"/>
      <point x="526.333" y="650"/>
      <point x="536.167" y="651.667"/>
      <point x="542.5" y="655" type="curve" smooth="yes"/>
      <point x="548.833" y="658.333"/>
      <point x="556" y="665"/>
      <point x="564" y="675" type="curve"/>
      <point x="586" y="675" type="line"/>
      <point x="586" y="633.667"/>
      <point x="589.333" y="573.667"/>
    </contour>
  </outline>
</glyph>
<glyph name="bracketleft" format="2">
  <advance width="326"/>
  <unicode hex="005B"/>
  <outline>
    <contour>
      <point x="67" y="-176" type="line"/>
      <point x="67" y="829" type="line"/>
      <point x="303" y="829" type="line"/>
      <point x="303" y="800" type="line"/>
      <point x="183" y="800" type="line"/>
      <point x="183" y="-148" type="line"/>
      <point x="303" y="-148" type="line"/>
      <point x="303" y="-176" type="line"/>
    </contour>
  </outline>
</glyph>
<glyph name="grave" format="2">
  <advance width="400"/>
  <unicode hex="0060"/>
  <outline>
    <contour>
      <point x="246" y="503" type="line"/>
      <point x="218" y="490" type="line"/>
      <point x="99" y="649" type="line"/>
      <point x="102" y="658" type="line"/>
      <point x="107.333" y="661.333"/>
      <point x="120.333" y="664.833"/>
      <point x="141" y="668.5" type="curve" smooth="yes"/>
      <point x="158.487" y="671.603"/>
      <point x="171.44" y="673.154"/>
      <point x="179.858" y="673.154" type="curve" smooth="yes"/>
      <point x="181.389" y="673.154"/>
      <point x="182.769" y="673.103"/>
      <point x="184" y="673" type="curve"/>
    </contour>
  </outline>
</glyph>
<glyph name="b" format="2">
  <advance width="513"/>
  <unicode hex="0062"/>
  <outline>
    <contour>
      <point x="160" y="406" type="line"/>
      <point x="233" y="438" type="line" smooth="yes"/>
      <point x="251.667" y="446"/>
      <point x="266.667" y="450"/>
      <point x="278" y="450" type="curve" smooth="yes"/>
      <point x="333.333" y="450"/>
      <point x="380.333" y="429.5"/>
      <point x="419" y="388.5" type="curve" smooth="yes"/>
      <point x="457.667" y="347.5"/>
      <point x="477" y="297.667"/>
      <point x="477" y="239" type="curve" smooth="yes"/>
      <point x="477" y="167"/>
      <point x="452.167" y="107.167"/>
      <point x="402.5" y="59.5" type="curve" smooth="yes"/>
      <point x="352.833" y="11.8333"/>
      <point x="293.333" y="-12"/>
      <point x="224" y="-12" type="curve" smooth="yes"/>
      <point x="175.333" y="-12"/>
      <point x="124.667" y="0"/>
      <point x="72" y="24" type="curve"/>
      <point x="72" y="577" type="line" smooth="yes"/>
      <point x="72" y="608.333"/>
      <point x="68.8333" y="627.667"/>
      <point x="62.5" y="635" type="curve" smooth="yes"/>
      <point x="56.1667" y="642.333"/>
      <point x="37.6667" y="647.333"/>
      <point x="7" y="650" type="curve"/>
      <point x="7" y="675" type="line"/>
      <point x="61" y="681.668"/>
      <point x="112" y="693.335"/>
      <point x="160" y="710" type="curve"/>
    </contour>
    <contour>
      <point x="160" y="376" type="curve"/>
      <point x="160" y="115" type="line" smooth="yes"/>
      <point x="160" y="101.667"/>
      <point x="162" y="90"/>
      <point x="166" y="80" type="curve" smooth="yes"/>
      <point x="170" y="68"/>
      <point x="179.5" y="56.1667"/>
      <point x="194.5" y="44.5" type="curve" smooth="yes"/>
      <point x="209.5" y="32.8333"/>
      <point x="227.667" y="27"/>
      <point x="249" y="27" type="curve" smooth="yes"/>
      <point x="249.784" y="26.9869"/>
      <point x="250.565" y="26.9804"/>
      <point x="251.343" y="26.9804" type="curve" smooth="yes"/>
      <point x="290.238" y="26.9804"/>
      <point x="321.124" y="43.3203"/>
      <point x="344" y="76" type="curve" smooth="yes"/>
      <point x="367.333" y="109.333"/>
      <point x="379" y="155"/>
      <point x="379" y="213" type="curve" smooth="yes"/>
      <point x="379" y="269"/>
      <point x="364.833" y="312.833"/>
      <point x="336.5" y="344.5" type="curve" smooth="yes"/>
      <point x="308.167" y="376.167"/>
      <point x="273" y="392"/>
      <point x="231" y="392" type="curve" smooth="yes"/>
      <point x="205" y="392"/>
      <point x="181.333" y="386.667"/>
    </contour>
  </outline>
</glyph>
<glyph name="d" format="2">
  <advance width="531"/>
  <unicode hex="0064"/>
  <outline>
    <contour>
      <point x="522" y="52" type="line"/>
      <point x="522" y="26" type="line"/>
      <point x="448.667" y="12.6667"/>
      <point x="394.333" y="0"/>
      <point x="359" y="-12" type="curve"/>
      <point x="359" y="52" type="line"/>
      <point x="298" y="15" type="line" smooth="yes"/>
      <point x="268" y="-3"/>
      <point x="243.667" y="-12"/>
      <point x="225" y="-12" type="curve" smooth="yes"/>
      <point x="179" y="-12"/>
      <point x="136" y="7.3333"/>
      <point x="96" y="46" type="curve" smooth="yes"/>
      <point x="56" y="84.6667"/>
      <point x="36" y="136.667"/>
      <point x="36" y="202" type="curve" smooth="yes"/>
      <point x="36" y="270.667"/>
      <point x="61.8333" y="329.167"/>
      <point x="113.5" y="377.5" type="curve" smooth="yes"/>
      <point x="165.167" y="425.833"/>
      <point x="226.333" y="450"/>
      <point x="297" y="450" type="curve" smooth="yes"/>
      <point x="316.333" y="450"/>
      <point x="337" y="446.667"/>
      <point x="359" y="440" type="curve"/>
      <point x="359" y="578" type="line" smooth="yes"/>
      <point x="359" y="609.333"/>
      <point x="355.333" y="628.5"/>
      <point x="348" y="635.5" type="curve" smooth="yes"/>
      <point x="340.667" y="642.5"/>
      <point x="319.333" y="647.333"/>
      <point x="284" y="650" type="curve"/>
      <point x="284" y="676" type="line"/>
      <point x="348.667" y="684.667"/>
      <point x="403" y="696"/>
      <point x="447" y="710" type="curve"/>
      <point x="447" y="117" type="line" smooth="yes"/>
      <point x="447" y="91"/>
      <point x="449.667" y="74.6667"/>
      <point x="455" y="68" type="curve" smooth="yes"/>
      <point x="460.335" y="61.3333"/>
      <point x="472.668" y="57"/>
      <point x="492" y="55" type="curve" smooth="yes"/>
    </contour>
    <contour>
      <point x="359" y="84" type="curve"/>
      <point x="359" y="360" type="line"/>
      <point x="336.333" y="394"/>
      <point x="303.667" y="411"/>
      <point x="261" y="411" type="curve" smooth="yes"/>
      <point x="249" y="411"/>
      <point x="236.5" y="408.167"/>
      <point x="223.5" y="402.5" type="curve" smooth="yes"/>
      <point x="210.5" y="396.833"/>
      <point x="197" y="387.833"/>
      <point x="183" y="375.5" type="curve" smooth="yes"/>
      <point x="169" y="363.167"/>
      <point x="157.667" y="344.167"/>
      <point x="149" y="318.5" type="curve" smooth="yes"/>
      <point x="140.333" y="292.833"/>
      <point x="136" y="263"/>
      <point x="136" y="229" type="curve" smooth="yes"/>
      <point x="136" y="173"/>
      <point x="149.667" y="129.667"/>
      <point x="177" y="99" type="curve" smooth="yes"/>
      <point x="204.333" y="68.3333"/>
      <point x="235.333" y="53"/>
      <point x="270" y="53" type="curve" smooth="yes"/>
      <point x="300" y="53"/>
      <point x="329.667" y="63.3333"/>
    </contour>
  </outline>
</glyph>
<glyph name="g" format="2">
  <advance width="472"/>
  <unicode hex="0067"/>
  <outline>
    <contour>
      <point x="140" y="150" type="curve"/>
      <point x="91.3019" y="169.979"/>
      <point x="51" y="217.009"/>
      <point x="51" y="284" type="curve" smooth="yes"/>
      <point x="51" y="336"/>
      <point x="69.8333" y="376.667"/>
      <point x="107.5" y="406" type="curve" smooth="yes"/>
      <point x="145.167" y="435.333"/>
      <point x="186.667" y="450"/>
      <point x="232" y="450" type="curve" smooth="yes"/>
      <point x="233" y="450" type="line" smooth="yes"/>
      <point x="267" y="450"/>
      <point x="299.667" y="441.333"/>
      <point x="331" y="424" type="curve"/>
      <point x="376.333" y="426"/>
      <point x="422" y="430.667"/>
      <point x="468" y="438" type="curve"/>
      <point x="473" y="430" type="line"/>
      <point x="459.667" y="404"/>
      <point x="445" y="386.333"/>
      <point x="429" y="377" type="curve"/>
      <point x="372" y="381" type="line"/>
      <point x="391.333" y="357.667"/>
      <point x="401" y="328.667"/>
      <point x="401" y="294" type="curve" smooth="yes"/>
      <point x="401" y="244"/>
      <point x="383.167" y="205"/>
      <point x="347.5" y="177" type="curve" smooth="yes"/>
      <point x="311.833" y="149"/>
      <point x="270.333" y="135"/>
      <point x="223" y="135" type="curve" smooth="yes"/>
      <point x="216.333" y="135"/>
      <point x="199.667" y="136.667"/>
      <point x="173" y="140" type="curve"/>
      <point x="155" y="127.333"/>
      <point x="146" y="114.333"/>
      <point x="146" y="101" type="curve" smooth="yes"/>
      <point x="146" y="73.5551"/>
      <point x="176.993" y="62"/>
      <point x="208.999" y="62" type="curve" smooth="yes"/>
      <point x="228.141" y="62"/>
      <point x="293.173" y="63"/>
      <point x="312" y="63" type="curve" smooth="yes"/>
      <point x="395.306" y="63"/>
      <point x="457" y="30.4917"/>
      <point x="457" y="-55" type="curve" smooth="yes"/>
      <point x="457" y="-107"/>
      <point x="431.5" y="-153.167"/>
      <point x="380.5" y="-193.5" type="curve" smooth="yes"/>
      <point x="329.5" y="-233.833"/>
      <point x="271" y="-254"/>
      <point x="205" y="-254" type="curve" smooth="yes"/>
      <point x="151" y="-254"/>
      <point x="108.333" y="-241.5"/>
      <point x="77" y="-216.5" type="curve" smooth="yes"/>
      <point x="45.6667" y="-191.5"/>
      <point x="29.6667" y="-163.333"/>
      <point x="29" y="-132" type="curve" smooth="yes"/>
      <point x="29" y="-110"/>
      <point x="37.3333" y="-91.3333"/>
      <point x="54" y="-76" type="curve" smooth="yes"/>
      <point x="68.6667" y="-62"/>
      <point x="96" y="-40"/>
      <point x="136" y="-10" type="curve"/>
      <point x="103.333" y="0"/>
      <point x="78.6667" y="18.3333"/>
      <point x="62" y="45" type="curve" smooth="yes"/>
      <point x="53.8333" y="58.4167"/>
      <point x="49.75" y="71.3229"/>
      <point x="49.75" y="83.7188" type="curve" smooth="yes"/>
      <point x="49.75" y="85.4896"/>
      <point x="49.8333" y="87.25"/>
      <point x="50" y="89" type="curve"/>
      <point x="88" y="103.667"/>
      <point x="118" y="124"/>
    </contour>
    <contour>
      <point x="312" y="286" type="curve" smooth="yes"/>
      <point x="312" y="352.404"/>
      <point x="283.835" y="418"/>
      <point x="222" y="418" type="curve" smooth="yes"/>
      <point x="169.666" y="418"/>
      <point x="144" y="358.973"/>
      <point x="144" y="300" type="curve" smooth="yes"/>
      <point x="144" y="235.682"/>
      <point x="173.441" y="168"/>
      <point x="233" y="168" type="curve" smooth="yes"/>
      <point x="287.198" y="169.595"/>
      <point x="312" y="223.951"/>
    </contour>
    <contour>
      <point x="384" y="-95" type="curve" smooth="yes"/>
      <point x="384" y="-24.281"/>
      <point x="323.339" y="-13"/>
      <point x="241" y="-13" type="curve" smooth="yes"/>
      <point x="199.667" y="-13"/>
      <point x="171" y="-20"/>
      <point x="155" y="-34" type="curve" smooth="yes"/>
      <point x="127" y="-58.6667"/>
      <point x="113" y="-83"/>
      <point x="113" y="-107" type="curve" smooth="yes"/>
      <point x="113" y="-167.276"/>
      <point x="179.598" y="-202"/>
      <point x="244" y="-202" type="curve" smooth="yes"/>
      <point x="321.648" y="-202"/>
      <point x="384" y="-166.699"/>
    </contour>
  </outline>
</glyph>
<glyph name="i" format="2">
  <advance width="273"/>
  <unicode hex="0069"/>
  <outline>
    <contour>
      <point x="138" y="533" type="curve" smooth="yes"/>
      <point x="123.333" y="533"/>
      <point x="110.667" y="538.333"/>
      <point x="100" y="549" type="curve" smooth="yes"/>
      <point x="89.3333" y="559.669"/>
      <point x="84" y="572.336"/>
      <point x="84" y="587" type="curve" smooth="yes"/>
      <point x="84" y="603"/>
      <point x="89.3333" y="616.333"/>
      <point x="100" y="627" type="curve" smooth="yes"/>
      <point x="110.667" y="637.667"/>
      <point x="123.667" y="643"/>
      <point x="139" y="643" type="curve" smooth="yes"/>
      <point x="153.667" y="643"/>
      <point x="166.167" y="637.667"/>
      <point x="176.5" y="627" type="curve" smooth="yes"/>
      <point x="186.833" y="616.333"/>
      <point x="192" y="603"/>
      <point x="192" y="587" type="curve" smooth="yes"/>
      <point x="192" y="572.333"/>
      <point x="186.667" y="559.667"/>
      <point x="176" y="549" type="curve" smooth="yes"/>
      <point x="165.333" y="538.333"/>
      <point x="152.667" y="533"/>
    </contour>
    <contour>
      <point x="258" y="0" type="line"/>
      <point x="31" y="0" type="line"/>
      <point x="31" y="27" type="line"/>
      <point x="62.3334" y="30.3333"/>
      <point x="81.6667" y="36"/>
      <point x="89" y="44" type="curve" smooth="yes"/>
      <point x="96.3333" y="52"/>
      <point x="100" y="73"/>
      <point x="100" y="107" type="curve" smooth="yes"/>
      <point x="100" y="312" type="line" smooth="yes"/>
      <point x="100" y="343.333"/>
      <point x="97" y="362.667"/>
      <point x="91" y="370" type="curve" smooth="yes"/>
      <point x="85" y="377.333"/>
      <point x="67.6667" y="383.333"/>
      <point x="39" y="388" type="curve"/>
      <point x="39" y="412" type="line"/>
      <point x="97.6667" y="422"/>
      <point x="147.333" y="435"/>
      <point x="188" y="451" type="curve"/>
      <point x="188" y="107" type="line" smooth="yes"/>
      <point x="188" y="73"/>
      <point x="191.667" y="52"/>
      <point x="199" y="44" type="curve" smooth="yes"/>
      <point x="206.333" y="36"/>
      <point x="226" y="30.3333"/>
      <point x="258" y="27" type="curve"/>
    </contour>
  </outline>
</glyph>
<glyph name="j" format="2">
  <advance width="262"/>
  <unicode hex="006A"/>
  <outline>
    <contour>
      <point x="138" y="533" type="curve" smooth="yes"/>
      <point x="123.333" y="533"/>
      <point x="110.667" y="538.5"/>
      <point x="100" y="549.5" type="curve" smooth="yes"/>
      <point x="89.3333" y="560.5"/>
      <point x="84" y="573.333"/>
      <point x="84" y="588" type="curve" smooth="yes"/>
      <point x="84" y="603.333"/>
      <point x="89.3333" y="616.333"/>
      <point x="100" y="627" type="curve" smooth="yes"/>
      <point x="110.667" y="637.667"/>
      <point x="123.667" y="643"/>
      <point x="139" y="643" type="curve" smooth="yes"/>
      <point x="153.667" y="643"/>
      <point x="166.167" y="637.667"/>
      <point x="176.5" y="627" type="curve" smooth="yes"/>
      <point x="186.833" y="616.333"/>
      <point x="192" y="603.333"/>
      <point x="192" y="588" type="curve" smooth="yes"/>
      <point x="192" y="572.667"/>
      <point x="186.667" y="559.667"/>
      <point x="176" y="549" type="curve" smooth="yes"/>
      <point x="165.333" y="538.333"/>
      <point x="152.667" y="533"/>
    </contour>
    <contour>
      <point x="34" y="388" type="curve"/>
      <point x="34" y="412" type="line"/>
      <point x="90.6667" y="420.667"/>
      <point x="142" y="433.667"/>
      <point x="188" y="451" type="curve"/>
      <point x="188" y="115" type="line" smooth="yes"/>
      <point x="188" y="51"/>
      <point x="180" y="-3"/>
      <point x="164" y="-47" type="curve" smooth="yes"/>
      <point x="148" y="-90.3333"/>
      <point x="127.333" y="-130.333"/>
      <point x="102" y="-167" type="curve" smooth="yes"/>
      <point x="76.6667" y="-203.667"/>
      <point x="56" y="-228.667"/>
      <point x="40" y="-242" type="curve" smooth="yes"/>
      <point x="29.3333" y="-250"/>
      <point x="20" y="-254"/>
      <point x="12" y="-254" type="curve" smooth="yes"/>
      <point x="4" y="-254"/>
      <point x="-4" y="-249.333"/>
      <point x="-12" y="-240" type="curve" smooth="yes"/>
      <point x="-20" y="-230.667"/>
      <point x="-24" y="-220"/>
      <point x="-24" y="-208" type="curve" smooth="yes"/>
      <point x="-24" y="-195"/>
      <point x="-17" y="-187"/>
      <point x="-3" y="-184" type="curve" smooth="yes"/>
      <point x="35" y="-176.667"/>
      <point x="59.3333" y="-165.333"/>
      <point x="70" y="-150" type="curve" smooth="yes"/>
      <point x="80.6667" y="-135.333"/>
      <point x="88" y="-111.333"/>
      <point x="92" y="-78" type="curve" smooth="yes"/>
      <point x="97.3333" y="-37.3334"/>
      <point x="100" y="26.667"/>
      <point x="100" y="114" type="curve" smooth="yes"/>
      <point x="100" y="307" type="line" smooth="yes"/>
      <point x="100" y="341"/>
      <point x="96.6667" y="361.833"/>
      <point x="90" y="369.5" type="curve" smooth="yes"/>
      <point x="83.3333" y="377.167"/>
      <point x="64.6666" y="383.333"/>
    </contour>
  </outline>
</glyph>
<glyph name="k" format="2">
  <advance width="499"/>
  <unicode hex="006B"/>
  <outline>
    <contour>
      <point x="517" y="0" type="line"/>
      <point x="373" y="-1" type="line"/>
      <point x="363" y="9.6667"/>
      <point x="351" y="23.6667"/>
      <point x="337" y="41" type="curve" smooth="yes"/>
      <point x="323" y="58.3333"/>
      <point x="310.5" y="74"/>
      <point x="299.5" y="88" type="curve" smooth="yes"/>
      <point x="288.5" y="102"/>
      <point x="273.833" y="120.833"/>
      <point x="255.5" y="144.5" type="curve" smooth="yes"/>
      <point x="237.167" y="168.167"/>
      <point x="224" y="185.334"/>
      <point x="216" y="196" type="curve" smooth="yes"/>
      <point x="204" y="210"/>
      <point x="194" y="217"/>
      <point x="186" y="217" type="curve" smooth="yes"/>
      <point x="180.667" y="217"/>
      <point x="176" y="216.333"/>
      <point x="172" y="215" type="curve"/>
      <point x="172" y="105" type="line" smooth="yes"/>
      <point x="172" y="72.3333"/>
      <point x="175.833" y="52"/>
      <point x="183.5" y="44" type="curve" smooth="yes"/>
      <point x="191.167" y="36"/>
      <point x="211" y="30.3333"/>
      <point x="243" y="27" type="curve"/>
      <point x="243" y="0" type="line"/>
      <point x="13" y="0" type="line"/>
      <point x="13" y="27" type="line"/>
      <point x="45.6667" y="29.6667"/>
      <point x="65.8333" y="35.1667"/>
      <point x="73.5" y="43.5" type="curve" smooth="yes"/>
      <point x="81.1667" y="51.8333"/>
      <point x="85" y="72.3333"/>
      <point x="85" y="105" type="curve" smooth="yes"/>
      <point x="85" y="576" type="line" smooth="yes"/>
      <point x="85" y="608"/>
      <point x="81.6667" y="627.833"/>
      <point x="75" y="635.5" type="curve" smooth="yes"/>
      <point x="68.3333" y="643.177"/>
      <point x="50" y="648.343"/>
      <point x="20" y="651" type="curve"/>
      <point x="20" y="675" type="line"/>
      <point x="61.3333" y="679.672"/>
      <point x="112" y="691.339"/>
      <point x="172" y="710" type="curve"/>
      <point x="172" y="242" type="line"/>
      <point x="196" y="246.667"/>
      <point x="216.667" y="258.333"/>
      <point x="234" y="277" type="curve" smooth="yes"/>
      <point x="256" y="300.334"/>
      <point x="278.667" y="329.667"/>
      <point x="302" y="365" type="curve" smooth="yes"/>
      <point x="309.317" y="375.732"/>
      <point x="312.976" y="384.054"/>
      <point x="312.976" y="389.967" type="curve" smooth="yes"/>
      <point x="312.976" y="392.136"/>
      <point x="312.484" y="393.98"/>
      <point x="311.5" y="395.5" type="curve" smooth="yes"/>
      <point x="307.832" y="401.167"/>
      <point x="294.666" y="405.333"/>
      <point x="272" y="408" type="curve"/>
      <point x="272" y="435" type="line"/>
      <point x="478" y="444" type="line"/>
      <point x="478" y="418" type="line"/>
      <point x="444.667" y="412.667"/>
      <point x="419.667" y="406.167"/>
      <point x="403" y="398.5" type="curve" smooth="yes"/>
      <point x="386.333" y="390.833"/>
      <point x="368.666" y="378.333"/>
      <point x="350" y="361" type="curve" smooth="yes"/>
      <point x="331.333" y="342.333"/>
      <point x="303.666" y="311"/>
      <point x="267" y="267" type="curve"/>
      <point x="277" y="252.333"/>
      <point x="300.333" y="222.667"/>
      <point x="337" y="178" type="curve" smooth="yes"/>
      <point x="373.667" y="133.333"/>
      <point x="401.333" y="101"/>
      <point x="420" y="81" type="curve" smooth="yes"/>
      <point x="451.334" y="47.6667"/>
      <point x="483.667" y="29.6667"/>
      <point x="517" y="27" type="curve"/>
    </contour>
  </outline>
</glyph>
<glyph name="t" format="2">
  <advance width="311"/>
  <unicode hex="0074"/>
  <outline>
    <contour>
      <point x="304" y="36" type="line"/>
      <point x="233" y="1" type="line" smooth="yes"/>
      <point x="216.333" y="-7.66667"/>
      <point x="202.667" y="-12"/>
      <point x="192" y="-12" type="curve" smooth="yes"/>
      <point x="123.333" y="-12"/>
      <point x="89" y="28"/>
      <point x="89" y="108" type="curve" smooth="yes"/>
      <point x="89" y="397" type="line"/>
      <point x="22" y="397" type="line"/>
      <point x="17" y="408" type="line"/>
      <point x="45" y="438" type="line"/>
      <point x="89" y="438" type="line"/>
      <point x="89" y="510" type="line"/>
      <point x="163" y="579" type="line"/>
      <point x="177" y="576" type="line"/>
      <point x="177" y="438" type="line"/>
      <point x="287" y="438" type="line"/>
      <point x="292.333" y="432.667"/>
      <point x="294.333" y="425.5"/>
      <point x="293" y="416.5" type="curve" smooth="yes"/>
      <point x="291.667" y="407.5"/>
      <point x="287.667" y="401"/>
      <point x="281" y="397" type="curve"/>
      <point x="177" y="397" type="line"/>
      <point x="177" y="142" type="line" smooth="yes"/>
      <point x="177" y="79.3333"/>
      <point x="196.333" y="48"/>
      <point x="235" y="48" type="curve" smooth="yes"/>
      <point x="253.667" y="48"/>
      <point x="273.667" y="53"/>
      <point x="295" y="63" type="curve"/>
    </contour>
  </outline>
</glyph>
<glyph name="v" format="2">
  <advance width="463"/>
  <unicode hex="0076"/>
  <outline>
    <contour>
      <point x="478" y="438" type="line"/>
      <point x="478" y="411" type="line"/>
      <point x="452.667" y="407.667"/>
      <point x="435.167" y="401.833"/>
      <point x="425.5" y="393.5" type="curve" smooth="yes"/>
      <point x="415.833" y="385.167"/>
      <point x="404.333" y="366.333"/>
      <point x="391" y="337" type="curve" smooth="yes"/>
      <point x="345.667" y="235.667"/>
      <point x="298" y="119.667"/>
      <point x="248" y="-11" type="curve"/>
      <point x="219" y="-11" type="line"/>
      <point x="80" y="340" type="line" smooth="yes"/>
      <point x="68.6667" y="367.333"/>
      <point x="58.5" y="385"/>
      <point x="49.5" y="393" type="curve" smooth="yes"/>
      <point x="40.5" y="401"/>
      <point x="23" y="407"/>
      <point x="-3" y="411" type="curve"/>
      <point x="-3" y="438" type="line"/>
      <point x="209" y="438" type="line"/>
      <point x="209" y="411" type="line"/>
      <point x="183" y="407.667"/>
      <point x="167.833" y="402.667"/>
      <point x="163.5" y="396" type="curve" smooth="yes"/>
      <point x="161.977" y="393.657"/>
      <point x="161.216" y="390.451"/>
      <point x="161.216" y="386.381" type="curve" smooth="yes"/>
      <point x="161.216" y="378.866"/>
      <point x="163.811" y="368.405"/>
      <point x="169" y="355" type="curve" smooth="yes"/>
      <point x="261" y="115" type="line"/>
      <point x="289" y="181"/>
      <point x="317.667" y="258.333"/>
      <point x="347" y="347" type="curve" smooth="yes"/>
      <point x="351.683" y="360.268"/>
      <point x="354.024" y="371.081"/>
      <point x="354.024" y="379.438" type="curve" smooth="yes"/>
      <point x="354.024" y="385.359"/>
      <point x="352.849" y="390.046"/>
      <point x="350.5" y="393.5" type="curve" smooth="yes"/>
      <point x="344.833" y="401.835"/>
      <point x="328" y="407.668"/>
      <point x="300" y="411" type="curve"/>
      <point x="300" y="438" type="line"/>
    </contour>
  </outline>
</glyph>
<glyph name="x" format="2">
  <advance width="473"/>
  <unicode hex="0078"/>
  <outline>
    <contour>
      <point x="478" y="0" type="line"/>
      <point x="258" y="0" type="line"/>
      <point x="258" y="27" type="line"/>
      <point x="278.667" y="30.3333"/>
      <point x="291.167" y="34.6667"/>
      <point x="295.5" y="40" type="curve" smooth="yes"/>
      <point x="299.833" y="45.3333"/>
      <point x="298" y="54.6667"/>
      <point x="290" y="68" type="curve" smooth="yes"/>
      <point x="220" y="180" type="line"/>
      <point x="206.667" y="160.667"/>
      <point x="186" y="126.667"/>
      <point x="158" y="78" type="curve" smooth="yes"/>
      <point x="151.467" y="66.3333"/>
      <point x="148.2" y="57.1166"/>
      <point x="148.2" y="50.35" type="curve" smooth="yes"/>
      <point x="148.2" y="47.45"/>
      <point x="148.8" y="45"/>
      <point x="150" y="43" type="curve" smooth="yes"/>
      <point x="154" y="36.3333"/>
      <point x="168" y="31"/>
      <point x="192" y="27" type="curve"/>
      <point x="192" y="0" type="line"/>
      <point x="5" y="0" type="line"/>
      <point x="5" y="27" type="line"/>
      <point x="35" y="31"/>
      <point x="56.1667" y="36.6667"/>
      <point x="68.5" y="44" type="curve" smooth="yes"/>
      <point x="80.8334" y="51.3333"/>
      <point x="96.6667" y="67.3333"/>
      <point x="116" y="92" type="curve" smooth="yes"/>
      <point x="126.667" y="104.667"/>
      <point x="154.667" y="143.667"/>
      <point x="200" y="209" type="curve"/>
      <point x="113" y="347" type="line" smooth="yes"/>
      <point x="97.6667" y="371"/>
      <point x="84.5" y="386.833"/>
      <point x="73.5" y="394.5" type="curve" smooth="yes"/>
      <point x="62.5" y="402.167"/>
      <point x="43.3333" y="407.667"/>
      <point x="16" y="411" type="curve"/>
      <point x="16" y="438" type="line"/>
      <point x="222" y="438" type="line"/>
      <point x="222" y="411" type="line"/>
      <point x="202" y="408.333"/>
      <point x="190.167" y="404"/>
      <point x="186.5" y="398" type="curve" smooth="yes"/>
      <point x="182.833" y="392"/>
      <point x="185.667" y="382.333"/>
      <point x="195" y="369" type="curve" smooth="yes"/>
      <point x="252" y="279" type="line"/>
      <point x="274.667" y="313.667"/>
      <point x="293.333" y="344"/>
      <point x="308" y="370" type="curve" smooth="yes"/>
      <point x="316" y="385.333"/>
      <point x="318.167" y="395.333"/>
      <point x="314.5" y="400" type="curve" smooth="yes"/>
      <point x="310.833" y="404.667"/>
      <point x="298" y="408.333"/>
      <point x="276" y="411" type="curve"/>
      <point x="276" y="438" type="line"/>
      <point x="459" y="438" type="line"/>
      <point x="459" y="411" type="line"/>
      <point x="428.333" y="407.667"/>
      <point x="407" y="403"/>
      <point x="395" y="397" type="curve" smooth="yes"/>
      <point x="383" y="391"/>
      <point x="368.333" y="378"/>
      <point x="351" y="358" type="curve" smooth="yes"/>
      <point x="335.667" y="339.333"/>
      <point x="309.333" y="303.333"/>
      <point x="272" y="250" type="curve"/>
      <point x="370" y="101" type="line" smooth="yes"/>
      <point x="388" y="73"/>
      <point x="403.333" y="54.6667"/>
      <point x="416" y="46" type="curve" smooth="yes"/>
      <point x="428.667" y="37.3333"/>
      <point x="449.333" y="31"/>
      <point x="478" y="27" type="curve"/>
    </contour>
  </outline>
</glyph>
<glyph name="z" format="2">
  <advance width="424"/>
  <unicode hex="007A"/>
  <outline>
    <contour>
      <point x="391" y="141" type="line"/>
      <point x="417" y="128" type="line"/>
      <point x="388.333" y="48"/>
      <point x="373" y="5.333"/>
      <point x="371" y="0" type="curve"/>
      <point x="37" y="0" type="line"/>
      <point x="29" y="15" type="line"/>
      <point x="274" y="403" type="line"/>
      <point x="192" y="403" type="line" smooth="yes"/>
      <point x="157.333" y="403"/>
      <point x="133.167" y="398.5"/>
      <point x="119.5" y="389.5" type="curve" smooth="yes"/>
      <point x="105.833" y="380.5"/>
      <point x="91.6666" y="361"/>
      <point x="77" y="331" type="curve" smooth="yes"/>
      <point x="63" y="303" type="line"/>
      <point x="37" y="313" type="line"/>
      <point x="53" y="371.667"/>
      <point x="64.6667" y="420.333"/>
      <point x="72" y="459" type="curve"/>
      <point x="93" y="459" type="line"/>
      <point x="98.3333" y="445"/>
      <point x="117" y="438"/>
      <point x="149" y="438" type="curve" smooth="yes"/>
      <point x="382" y="438" type="line"/>
      <point x="388" y="424" type="line"/>
      <point x="149" y="35" type="line"/>
      <point x="241" y="35" type="line" smooth="yes"/>
      <point x="277" y="35"/>
      <point x="303.667" y="40.5"/>
      <point x="321" y="51.5" type="curve" smooth="yes"/>
      <point x="338.333" y="62.5"/>
      <point x="357" y="84"/>
      <point x="377" y="116" type="curve"/>
    </contour>
  </outline>
</glyph>
<glyph name="braceleft" format="2">
  <advance width="365"/>
  <unicode hex="007B"/>
  <outline>
    <contour>
      <point x="345.52" y="-142.35" type="curve"/>
      <point x="345.52" y="-176.85" type="line"/>
      <point x="184.52" y="-176.85"/>
      <point x="134.02" y="-127.017"/>
      <point x="134.02" y="-27.3496" type="curve" smooth="yes"/>
      <point x="134.02" y="1.7832"/>
      <point x="136.166" y="43.375"/>
      <point x="140.46" y="97.4248" type="curve" smooth="yes"/>
      <point x="144.753" y="151.475"/>
      <point x="146.899" y="189.233"/>
      <point x="146.899" y="210.7" type="curve" smooth="yes"/>
      <point x="146.899" y="223.733"/>
      <point x="145.826" y="234.467"/>
      <point x="143.68" y="242.9" type="curve" smooth="yes"/>
      <point x="141.532" y="251.333"/>
      <point x="136.165" y="261.108"/>
      <point x="127.58" y="272.225" type="curve" smooth="yes"/>
      <point x="118.994" y="283.342"/>
      <point x="103.966" y="292.159"/>
      <point x="82.5" y="298.675" type="curve" smooth="yes"/>
      <point x="61.0332" y="305.192"/>
      <point x="43.6641" y="309.217"/>
      <point x="10.3906" y="310.75" type="curve"/>
      <point x="10" y="345.25" type="line"/>
      <point x="43.2734" y="346.783"/>
      <point x="62.375" y="350.808"/>
      <point x="83.3047" y="357.325" type="curve" smooth="yes"/>
      <point x="104.235" y="363.842"/>
      <point x="118.994" y="372.658"/>
      <point x="127.58" y="383.775" type="curve" smooth="yes"/>
      <point x="136.166" y="394.892"/>
      <point x="141.533" y="404.667"/>
      <point x="143.68" y="413.1" type="curve" smooth="yes"/>
      <point x="145.826" y="421.535"/>
      <point x="146.899" y="432.269"/>
      <point x="146.899" y="445.3" type="curve" smooth="yes"/>
      <point x="146.899" y="472.9"/>
      <point x="144.753" y="513.342"/>
      <point x="140.46" y="566.625" type="curve" smooth="yes"/>
      <point x="136.166" y="619.908"/>
      <point x="134.02" y="657.283"/>
      <point x="134.02" y="678.75" type="curve" smooth="yes"/>
      <point x="134.02" y="781.483"/>
      <point x="184.52" y="832.85"/>
      <point x="345.52" y="832.85" type="curve"/>
      <point x="345.52" y="798.35" type="line"/>
      <point x="290.78" y="793.75"/>
      <point x="284.286" y="782.25"/>
      <point x="266.041" y="763.85" type="curve" smooth="yes"/>
      <point x="247.794" y="745.45"/>
      <point x="238.67" y="720.917"/>
      <point x="238.67" y="690.25" type="curve" smooth="yes"/>
      <point x="238.67" y="664.95"/>
      <point x="242.427" y="626.617"/>
      <point x="249.94" y="575.25" type="curve" smooth="yes"/>
      <point x="257.453" y="523.883"/>
      <point x="261.21" y="486.7"/>
      <point x="261.21" y="463.7" type="curve" smooth="yes"/>
      <point x="261.21" y="388.567"/>
      <point x="226.13" y="344.1"/>
      <point x="135.97" y="330.3" type="curve"/>
      <point x="135.97" y="325.7" type="line"/>
      <point x="182.124" y="318.8"/>
      <point x="206.203" y="303.275"/>
      <point x="228.205" y="279.125" type="curve" smooth="yes"/>
      <point x="250.209" y="254.975"/>
      <point x="261.21" y="226.033"/>
      <point x="261.21" y="192.3" type="curve" smooth="yes"/>
      <point x="261.21" y="166.233"/>
      <point x="257.453" y="127.9"/>
      <point x="249.94" y="77.2998" type="curve" smooth="yes"/>
      <point x="242.427" y="26.7002"/>
      <point x="238.67" y="-9.33301"/>
      <point x="238.67" y="-30.7998" type="curve" smooth="yes"/>
      <point x="238.67" y="-63"/>
      <point x="247.794" y="-88.2998"/>
      <point x="266.041" y="-106.7" type="curve" smooth="yes"/>
      <point x="284.286" y="-125.1"/>
      <point x="290.78" y="-136.983"/>
    </contour>
  </outline>
</glyph>
<glyph name="section" format="2">
  <advance width="477"/>
  <unicode hex="00A7"/>
  <outline>
    <contour>
      <point x="427" y="202" type="curve" smooth="yes"/>
      <point x="426.333" y="132.667"/>
      <point x="393.333" y="61.667"/>
      <point x="328" y="-11" type="curve"/>
      <point x="284.667" y="-57.6667"/>
      <point x="237.667" y="-88.6667"/>
      <point x="187" y="-104" type="curve"/>
      <point x="160.333" y="-104"/>
      <point x="137.333" y="-96.6667"/>
      <point x="118" y="-82" type="curve" smooth="yes"/>
      <point x="105.333" y="-72"/>
      <point x="99" y="-62.3333"/>
      <point x="99" y="-53" type="curve" smooth="yes"/>
      <point x="99" y="-42.3334"/>
      <point x="106.333" y="-30.6667"/>
      <point x="121" y="-18" type="curve" smooth="yes"/>
      <point x="128.333" y="-12.6667"/>
      <point x="135.667" y="-11.6667"/>
      <point x="143" y="-15" type="curve"/>
      <point x="167.667" y="-33.6666"/>
      <point x="194" y="-43"/>
      <point x="222" y="-43" type="curve" smooth="yes"/>
      <point x="240" y="-43"/>
      <point x="255.667" y="-38"/>
      <point x="269" y="-28" type="curve" smooth="yes"/>
      <point x="282.333" y="-18"/>
      <point x="289.333" y="-4"/>
      <point x="290" y="14" type="curve" smooth="yes"/>
      <point x="290" y="39.3333"/>
      <point x="268" y="73"/>
      <point x="224" y="115" type="curve" smooth="yes"/>
      <point x="123" y="214" type="line" smooth="yes"/>
      <point x="75.6667" y="260"/>
      <point x="52" y="311"/>
      <point x="52" y="367" type="curve" smooth="yes"/>
      <point x="52.6667" y="427.667"/>
      <point x="79.6667" y="486.333"/>
      <point x="133" y="543" type="curve" smooth="yes"/>
      <point x="158.333" y="571"/>
      <point x="182.167" y="592.5"/>
      <point x="204.5" y="607.5" type="curve" smooth="yes"/>
      <point x="226.833" y="622.5"/>
      <point x="253" y="633.667"/>
      <point x="283" y="641" type="curve"/>
      <point x="310.333" y="641"/>
      <point x="333" y="633.333"/>
      <point x="351" y="618" type="curve" smooth="yes"/>
      <point x="359" y="610"/>
      <point x="363" y="602"/>
      <point x="363" y="594" type="curve" smooth="yes"/>
      <point x="362.332" y="580"/>
      <point x="355.665" y="568.667"/>
      <point x="343" y="560" type="curve" smooth="yes"/>
      <point x="335.667" y="554.667"/>
      <point x="329" y="554.333"/>
      <point x="323" y="559" type="curve" smooth="yes"/>
      <point x="303" y="577"/>
      <point x="277.333" y="586"/>
      <point x="246" y="586" type="curve" smooth="yes"/>
      <point x="226.667" y="586"/>
      <point x="211.5" y="580.667"/>
      <point x="200.5" y="570" type="curve" smooth="yes"/>
      <point x="189.5" y="559.333"/>
      <point x="184" y="548"/>
      <point x="184" y="536" type="curve" smooth="yes"/>
      <point x="184" y="513.333"/>
      <point x="196.333" y="491"/>
      <point x="221" y="469" type="curve" smooth="yes"/>
      <point x="331" y="374" type="line"/>
      <point x="395.007" y="321.211"/>
      <point x="427.01" y="264.503"/>
      <point x="427.01" y="203.876" type="curve" smooth="yes"/>
      <point x="427.01" y="203.251"/>
      <point x="427.007" y="202.626"/>
    </contour>
    <contour>
      <point x="104" y="412" type="curve" smooth="yes"/>
      <point x="104" y="360"/>
      <point x="133.333" y="306.667"/>
      <point x="192" y="252" type="curve"/>
      <point x="258.667" y="192"/>
      <point x="299.667" y="149.667"/>
      <point x="315" y="125" type="curve" smooth="yes"/>
      <point x="327.907" y="102.707"/>
      <point x="334.36" y="80.1552"/>
      <point x="334.36" y="57.3456" type="curve" smooth="yes"/>
      <point x="334.36" y="54.2352"/>
      <point x="334.24" y="51.12"/>
      <point x="334" y="48" type="curve"/>
      <point x="336" y="46" type="line"/>
      <point x="360.667" y="82"/>
      <point x="373" y="119"/>
      <point x="373" y="157" type="curve" smooth="yes"/>
      <point x="373" y="208.333"/>
      <point x="345.667" y="258"/>
      <point x="291" y="306" type="curve"/>
      <point x="227" y="364"/>
      <point x="190.333" y="397.667"/>
      <point x="181" y="407" type="curve" smooth="yes"/>
      <point x="154.111" y="433.889"/>
      <point x="140.667" y="463.578"/>
      <point x="140.667" y="496.069" type="curve" smooth="yes"/>
      <point x="140.667" y="499.023"/>
      <point x="140.778" y="502"/>
      <point x="141" y="505" type="curve"/>
      <point x="138" y="506" type="line"/>
      <point x="115.333" y="476"/>
      <point x="104" y="444.667"/>
    </contour>
  </outline>
</glyph>
<glyph name="guillemotleft" format="2">
  <advance width="446"/>
  <unicode hex="00AB"/>
  <outline>
    <contour>
      <point x="231" y="53" type="line"/>
      <point x="207" y="37" type="line"/>
      <point x="143.667" y="119.667"/>
      <point x="91" y="181.333"/>
      <point x="49" y="222" type="curve"/>
      <point x="94.3333" y="267.333"/>
      <point x="147" y="329"/>
      <point x="207" y="407" type="curve"/>
      <point x="231" y="391" type="line"/>
      <point x="140" y="222" type="line"/>
    </contour>
    <contour>
      <point x="399" y="53" type="line"/>
      <point x="375" y="37" type="line"/>
      <point x="309.667" y="119.667"/>
      <point x="257" y="181.333"/>
      <point x="217" y="222" type="curve"/>
      <point x="262.333" y="268.667"/>
      <point x="315" y="330.333"/>
      <point x="375" y="407" type="curve"/>
      <point x="399" y="391" type="line"/>
      <point x="308" y="222" type="line"/>
    </contour>
  </outline>
</glyph>
<glyph name="acute" format="2">
  <advance width="400"/>
  <unicode hex="00B4"/>
  <outline>
    <contour>
      <point x="195" y="492" type="line"/>
      <point x="168" y="506" type="line"/>
      <point x="173.333" y="518"/>
      <point x="180.667" y="535.833"/>
      <point x="190" y="559.5" type="curve" smooth="yes"/>
      <point x="199.333" y="583.168"/>
      <point x="208.333" y="605.834"/>
      <point x="217" y="627.5" type="curve" smooth="yes"/>
      <point x="232" y="665" type="line"/>
      <point x="237.333" y="667.687"/>
      <point x="251.5" y="670.354"/>
      <point x="274.5" y="673" type="curve" smooth="yes"/>
      <point x="289.833" y="674.778"/>
      <point x="301.389" y="675.667"/>
      <point x="309.167" y="675.667" type="curve" smooth="yes"/>
      <point x="313.056" y="675.667"/>
      <point x="316" y="675.445"/>
      <point x="318" y="675" type="curve"/>
      <point x="322" y="665" type="line"/>
    </contour>
  </outline>
</glyph>
<glyph name="paragraph" format="2">
  <advance width="501"/>
  <unicode hex="00B6"/>
  <outline>
    <contour>
      <point x="469" y="534" type="line"/>
      <point x="439" y="506" type="line"/>
      <point x="351" y="496" type="line"/>
      <point x="351" y="23" type="line" smooth="yes"/>
      <point x="351" y="-54.3333"/>
      <point x="328" y="-116.333"/>
      <point x="282" y="-163" type="curve" smooth="yes"/>
      <point x="268.667" y="-177.667"/>
      <point x="252.333" y="-189.833"/>
      <point x="233" y="-199.5" type="curve" smooth="yes"/>
      <point x="213.667" y="-209.167"/>
      <point x="200.333" y="-214"/>
      <point x="193" y="-214" type="curve" smooth="yes"/>
      <point x="165" y="-214"/>
      <point x="142.667" y="-206.333"/>
      <point x="126" y="-191" type="curve" smooth="yes"/>
      <point x="118.667" y="-184.333"/>
      <point x="115" y="-177"/>
      <point x="115" y="-169" type="curve" smooth="yes"/>
      <point x="115" y="-166.333"/>
      <point x="115.333" y="-163.333"/>
      <point x="116" y="-160" type="curve" smooth="yes"/>
      <point x="118" y="-150.667"/>
      <point x="124.667" y="-141.667"/>
      <point x="136" y="-133" type="curve" smooth="yes"/>
      <point x="142.667" y="-127.668"/>
      <point x="149.334" y="-127.334"/>
      <point x="156" y="-132" type="curve" smooth="yes"/>
      <point x="178" y="-146.667"/>
      <point x="199.667" y="-154"/>
      <point x="221" y="-154" type="curve" smooth="yes"/>
      <point x="272.333" y="-154"/>
      <point x="298" y="-101.667"/>
      <point x="298" y="3" type="curve" smooth="yes"/>
      <point x="298" y="150" type="line"/>
      <point x="230" y="121" type="line" smooth="yes"/>
      <point x="228" y="119.667"/>
      <point x="222.333" y="119"/>
      <point x="213" y="119" type="curve" smooth="yes"/>
      <point x="179" y="119"/>
      <point x="143" y="138.167"/>
      <point x="105" y="176.5" type="curve" smooth="yes"/>
      <point x="67" y="214.833"/>
      <point x="48" y="263"/>
      <point x="48" y="321" type="curve" smooth="yes"/>
      <point x="48" y="385.667"/>
      <point x="70.6667" y="439.667"/>
      <point x="116" y="483" type="curve" smooth="yes"/>
      <point x="136.667" y="502.333"/>
      <point x="160.667" y="517.667"/>
      <point x="188" y="529" type="curve" smooth="yes"/>
      <point x="215.333" y="540.333"/>
      <point x="241.333" y="546"/>
      <point x="266" y="546" type="curve" smooth="yes"/>
      <point x="465" y="546" type="line"/>
    </contour>
  </outline>
</glyph>
<glyph name="periodcentered" format="2">
  <advance width="231"/>
  <unicode hex="00B7"/>
  <outline>
    <contour>
      <point x="115" y="171" type="curve" smooth="yes"/>
      <point x="98.3333" y="171"/>
      <point x="84.3333" y="176.833"/>
      <point x="73" y="188.5" type="curve" smooth="yes"/>
      <point x="61.6667" y="200.167"/>
      <point x="56" y="215"/>
      <point x="56" y="233" type="curve" smooth="yes"/>
      <point x="56" y="250.333"/>
      <point x="61.6667" y="264.833"/>
      <point x="73" y="276.5" type="curve" smooth="yes"/>
      <point x="84.3334" y="288.167"/>
      <point x="98.6668" y="294"/>
      <point x="116" y="294" type="curve" smooth="yes"/>
      <point x="133.333" y="294"/>
      <point x="147.667" y="288.167"/>
      <point x="159" y="276.5" type="curve" smooth="yes"/>
      <point x="170.333" y="264.833"/>
      <point x="176" y="250.333"/>
      <point x="176" y="233" type="curve" smooth="yes"/>
      <point x="176" y="215"/>
      <point x="170.333" y="200.167"/>
      <point x="159" y="188.5" type="curve" smooth="yes"/>
      <point x="147.667" y="176.833"/>
      <point x="133" y="171"/>
    </contour>
  </outline>
</glyph>
<glyph name="Ccedilla" format="2">
  <advance width="664"/>
  <unicode hex="00C7"/>
  <outline>
    <contour>
      <point x="614" y="179" type="curve"/>
      <point x="645" y="168" type="line"/>
      <point x="625.664" y="98"/>
      <point x="607.331" y="46"/>
      <point x="590" y="12" type="curve"/>
      <point x="526.666" y="-3.3333"/>
      <point x="471.666" y="-11.6667"/>
      <point x="425" y="-13" type="curve"/>
      <point x="414" y="-26" type="line" smooth="yes"/>
      <point x="409.509" y="-31.3333"/>
      <point x="407.263" y="-36.903"/>
      <point x="407.263" y="-42.7091" type="curve" smooth="yes"/>
      <point x="407.263" y="-50.6925"/>
      <point x="411.509" y="-59.1228"/>
      <point x="420" y="-68" type="curve" smooth="yes"/>
      <point x="445.333" y="-94"/>
      <point x="458" y="-117"/>
      <point x="458" y="-137" type="curve" smooth="yes"/>
      <point x="458" y="-157"/>
      <point x="447.667" y="-176.167"/>
      <point x="427" y="-194.5" type="curve" smooth="yes"/>
      <point x="406.333" y="-212.833"/>
      <point x="378.333" y="-227.666"/>
      <point x="343" y="-239" type="curve"/>
      <point x="328" y="-211" type="line"/>
      <point x="368.667" y="-193"/>
      <point x="389" y="-173"/>
      <point x="389" y="-151" type="curve" smooth="yes"/>
      <point x="389" y="-141.667"/>
      <point x="381.667" y="-129"/>
      <point x="367" y="-113" type="curve" smooth="yes"/>
      <point x="354.332" y="-100.333"/>
      <point x="347.165" y="-89.8333"/>
      <point x="345.5" y="-81.5" type="curve" smooth="yes"/>
      <point x="345.231" y="-80.1559"/>
      <point x="345.097" y="-78.7555"/>
      <point x="345.097" y="-77.2986" type="curve" smooth="yes"/>
      <point x="345.097" y="-69.7232"/>
      <point x="348.731" y="-60.6237"/>
      <point x="356" y="-50" type="curve" smooth="yes"/>
      <point x="383" y="-14" type="line"/>
      <point x="326.333" y="-12"/>
      <point x="275.666" y="-1"/>
      <point x="231" y="19" type="curve" smooth="yes"/>
      <point x="186.333" y="39"/>
      <point x="150.833" y="64.8333"/>
      <point x="124.5" y="96.5" type="curve" smooth="yes"/>
      <point x="98.1667" y="128.167"/>
      <point x="78.3333" y="162.667"/>
      <point x="65" y="200" type="curve" smooth="yes"/>
      <point x="51.6667" y="237.333"/>
      <point x="45" y="275.667"/>
      <point x="45" y="315" type="curve" smooth="yes"/>
      <point x="45" y="418.333"/>
      <point x="80.6667" y="502.5"/>
      <point x="152" y="567.5" type="curve" smooth="yes"/>
      <point x="223.333" y="632.5"/>
      <point x="315.333" y="665"/>
      <point x="428" y="665" type="curve" smooth="yes"/>
      <point x="474" y="665"/>
      <point x="533" y="656"/>
      <point x="605" y="638" type="curve"/>
      <point x="613.667" y="583.333"/>
      <point x="620.667" y="531.667"/>
      <point x="626" y="483" type="curve"/>
      <point x="595" y="477" type="line"/>
      <point x="579" y="531.668"/>
      <point x="556.167" y="570.334"/>
      <point x="526.5" y="593" type="curve" smooth="yes"/>
      <point x="496.833" y="615.667"/>
      <point x="455" y="627"/>
      <point x="401" y="627" type="curve" smooth="yes"/>
      <point x="327.667" y="627"/>
      <point x="268.833" y="599.5"/>
      <point x="224.5" y="544.5" type="curve" smooth="yes"/>
      <point x="180.167" y="489.5"/>
      <point x="158" y="420.333"/>
      <point x="158" y="337" type="curve" smooth="yes"/>
      <point x="158" y="245.667"/>
      <point x="180.833" y="170.667"/>
      <point x="226.5" y="112" type="curve" smooth="yes"/>
      <point x="272.167" y="53.3333"/>
      <point x="332.667" y="24"/>
      <point x="408" y="24" type="curve" smooth="yes"/>
      <point x="456.667" y="24"/>
      <point x="496.333" y="36.3333"/>
      <point x="527" y="61" type="curve" smooth="yes"/>
      <point x="557.667" y="85.6667"/>
      <point x="586.667" y="125"/>
    </contour>
  </outline>
</glyph>
<glyph name="Abreve" format="2">
  <advance width="694"/>
  <unicode hex="0102"/>
  <outline>
    <contour>
      <point x="676" y="0" type="line"/>
      <point x="423" y="0" type="line"/>
      <point x="423" y="29" type="line"/>
      <point x="453.667" y="33"/>
      <point x="472.5" y="38.5"/>
      <point x="479.5" y="45.5" type="curve" smooth="yes"/>
      <point x="483.085" y="49.0853"/>
      <point x="484.878" y="54.3759"/>
      <point x="484.878" y="61.3718" type="curve" smooth="yes"/>
      <point x="484.878" y="68.0345"/>
      <point x="483.252" y="76.2439"/>
      <point x="480" y="86" type="curve" smooth="yes"/>
      <point x="471.333" y="113.333"/>
      <point x="454" y="162"/>
      <point x="428" y="232" type="curve"/>
      <point x="218" y="232" type="line"/>
      <point x="175" y="108" type="line" smooth="yes"/>
      <point x="169.231" y="90.3077"/>
      <point x="166.346" y="76.2211"/>
      <point x="166.346" y="65.7404" type="curve" smooth="yes"/>
      <point x="166.346" y="58.0545"/>
      <point x="167.897" y="52.3077"/>
      <point x="171" y="48.5" type="curve" smooth="yes"/>
      <point x="178.333" y="39.5"/>
      <point x="200.667" y="33"/>
      <point x="238" y="29" type="curve"/>
      <point x="238" y="3.8147e-06" type="line"/>
      <point x="19" y="3.8147e-06" type="line"/>
      <point x="19" y="29" type="line"/>
      <point x="52.3333" y="33.6667"/>
      <point x="75.1667" y="41.5"/>
      <point x="87.5" y="52.5" type="curve" smooth="yes"/>
      <point x="99.8333" y="63.5"/>
      <point x="114.333" y="90"/>
      <point x="131" y="132" type="curve" smooth="yes"/>
      <point x="338" y="655" type="line"/>
      <point x="373" y="665" type="line"/>
      <point x="566" y="132" type="line" smooth="yes"/>
      <point x="582" y="89.3333"/>
      <point x="596" y="62.3333"/>
      <point x="608" y="51" type="curve" smooth="yes"/>
      <point x="620" y="39.6666"/>
      <point x="642.667" y="32.3333"/>
      <point x="676" y="29" type="curve"/>
    </contour>
    <contour>
      <point x="413" y="277" type="line"/>
      <point x="328" y="525" type="line"/>
      <point x="325" y="525" type="line"/>
      <point x="234" y="277" type="line"/>
    </contour>
    <contour>
      <point x="446" y="816" type="curve"/>
      <point x="476" y="816" type="line"/>
      <point x="475.332" y="776"/>
      <point x="464.165" y="745.833"/>
      <point x="442.5" y="725.5" type="curve" smooth="yes"/>
      <point x="420.833" y="705.167"/>
      <point x="392" y="695"/>
      <point x="356" y="695" type="curve" smooth="yes"/>
      <point x="319.333" y="695"/>
      <point x="290.5" y="705.167"/>
      <point x="269.5" y="725.5" type="curve" smooth="yes"/>
      <point x="248.5" y="745.833"/>
      <point x="237.667" y="776"/>
      <point x="237" y="816" type="curve"/>
      <point x="267" y="816" type="line"/>
      <point x="277" y="774.667"/>
      <point x="306.667" y="754"/>
      <point x="356" y="754" type="curve" smooth="yes"/>
      <point x="404.667" y="754"/>
      <point x="434.667" y="774.667"/>
    </contour>
  </outline>
</glyph>
<glyph name="Aogonek" format="2">
  <advance width="694"/>
  <unicode hex="0104"/>
  <outline>
    <contour>
      <point x="675" y="0" type="line"/>
      <point x="499" y="0" type="line"/>
      <point x="484.332" y="-12.6667"/>
      <point x="470.666" y="-31.5"/>
      <point x="458" y="-56.5" type="curve" smooth="yes"/>
      <point x="445.333" y="-81.5"/>
      <point x="439" y="-103.333"/>
      <point x="439" y="-122" type="curve" smooth="yes"/>
      <point x="439" y="-139.333"/>
      <point x="444.167" y="-152.667"/>
      <point x="454.5" y="-162" type="curve" smooth="yes"/>
      <point x="464.834" y="-171.333"/>
      <point x="478.668" y="-176"/>
      <point x="496" y="-176" type="curve" smooth="yes"/>
      <point x="507.333" y="-176"/>
      <point x="522.333" y="-172.667"/>
      <point x="541" y="-166" type="curve"/>
      <point x="549" y="-192" type="line"/>
      <point x="490" y="-226" type="line" smooth="yes"/>
      <point x="480" y="-232.667"/>
      <point x="469" y="-236"/>
      <point x="457" y="-236" type="curve" smooth="yes"/>
      <point x="427" y="-236"/>
      <point x="404.667" y="-227.833"/>
      <point x="390" y="-211.5" type="curve" smooth="yes"/>
      <point x="375.333" y="-195.167"/>
      <point x="368" y="-175"/>
      <point x="368" y="-151" type="curve" smooth="yes"/>
      <point x="368" y="-104.333"/>
      <point x="405.333" y="-44.333"/>
      <point x="480" y="29" type="curve" smooth="yes"/>
      <point x="485.939" y="34.9394"/>
      <point x="488.909" y="41.8237"/>
      <point x="488.909" y="49.6529" type="curve" smooth="yes"/>
      <point x="488.909" y="54.1267"/>
      <point x="487.939" y="58.9091"/>
      <point x="486" y="64" type="curve" smooth="yes"/>
      <point x="482.667" y="76"/>
      <point x="463" y="132.333"/>
      <point x="427" y="233" type="curve"/>
      <point x="219" y="233" type="line"/>
      <point x="192.333" y="155.667"/>
      <point x="178" y="114.333"/>
      <point x="176" y="109" type="curve" smooth="yes"/>
      <point x="169.56" y="90.0817"/>
      <point x="166.34" y="75.1734"/>
      <point x="166.34" y="64.2752" type="curve" smooth="yes"/>
      <point x="166.34" y="57.1232"/>
      <point x="167.727" y="51.6981"/>
      <point x="170.5" y="48" type="curve" smooth="yes"/>
      <point x="177.5" y="38.6667"/>
      <point x="200" y="32"/>
      <point x="238" y="28" type="curve"/>
      <point x="238" y="0" type="line"/>
      <point x="19" y="0" type="line"/>
      <point x="19" y="28" type="line"/>
      <point x="51.6667" y="32.6667"/>
      <point x="74.5" y="40.8334"/>
      <point x="87.5" y="52.5" type="curve" smooth="yes"/>
      <point x="100.5" y="64.1667"/>
      <point x="115.333" y="91.3333"/>
      <point x="132" y="134" type="curve" smooth="yes"/>
      <point x="339" y="655" type="line"/>
      <point x="344.335" y="657"/>
      <point x="355.668" y="660.333"/>
      <point x="373" y="665" type="curve"/>
      <point x="565" y="133" type="line" smooth="yes"/>
      <point x="581.667" y="89.6666"/>
      <point x="596.167" y="62"/>
      <point x="608.5" y="50" type="curve" smooth="yes"/>
      <point x="620.833" y="38"/>
      <point x="643" y="30.3333"/>
      <point x="675" y="27" type="curve"/>
    </contour>
    <contour>
      <point x="413" y="277" type="line"/>
      <point x="329" y="524" type="line"/>
      <point x="326" y="524" type="line"/>
      <point x="234" y="277" type="line"/>
    </contour>
  </outline>
</glyph>
<glyph name="cacute" format="2">
  <advance width="423"/>
  <unicode hex="0107"/>
  <outline>
    <contour>
      <point x="392" y="113" type="curve"/>
      <point x="410" y="91" type="line"/>
      <point x="386.667" y="60.3333"/>
      <point x="359.667" y="35.5"/>
      <point x="329" y="16.5" type="curve" smooth="yes"/>
      <point x="298.333" y="-2.5"/>
      <point x="268.666" y="-12"/>
      <point x="240" y="-12" type="curve" smooth="yes"/>
      <point x="178.667" y="-12"/>
      <point x="129.333" y="8.6667"/>
      <point x="92" y="50" type="curve" smooth="yes"/>
      <point x="54.6667" y="91.3333"/>
      <point x="36" y="140.333"/>
      <point x="36" y="197" type="curve" smooth="yes"/>
      <point x="36" y="275"/>
      <point x="69.6667" y="340"/>
      <point x="137" y="392" type="curve" smooth="yes"/>
      <point x="187" y="430.667"/>
      <point x="238" y="450"/>
      <point x="290" y="450" type="curve" smooth="yes"/>
      <point x="291" y="450" type="line" smooth="yes"/>
      <point x="329" y="450"/>
      <point x="358.667" y="441.333"/>
      <point x="380" y="424" type="curve" smooth="yes"/>
      <point x="390.667" y="414.667"/>
      <point x="396" y="404"/>
      <point x="396" y="392" type="curve" smooth="yes"/>
      <point x="396" y="381.333"/>
      <point x="391.833" y="371.166"/>
      <point x="383.5" y="361.5" type="curve" smooth="yes"/>
      <point x="375.167" y="351.833"/>
      <point x="367.667" y="347"/>
      <point x="361" y="347" type="curve" smooth="yes"/>
      <point x="355.667" y="347"/>
      <point x="349.333" y="350.667"/>
      <point x="342" y="358" type="curve" smooth="yes"/>
      <point x="311.333" y="386.667"/>
      <point x="277.666" y="401"/>
      <point x="241" y="401" type="curve" smooth="yes"/>
      <point x="208.333" y="401"/>
      <point x="180.833" y="387.333"/>
      <point x="158.5" y="360" type="curve" smooth="yes"/>
      <point x="136.167" y="332.667"/>
      <point x="125" y="293.667"/>
      <point x="125" y="243" type="curve" smooth="yes"/>
      <point x="125" y="211"/>
      <point x="130.167" y="182.5"/>
      <point x="140.5" y="157.5" type="curve" smooth="yes"/>
      <point x="150.833" y="132.5"/>
      <point x="163.833" y="113.333"/>
      <point x="179.5" y="100" type="curve" smooth="yes"/>
      <point x="195.167" y="86.6667"/>
      <point x="211.167" y="76.6667"/>
      <point x="227.5" y="70" type="curve" smooth="yes"/>
      <point x="243.833" y="63.3333"/>
      <point x="259.333" y="60"/>
      <point x="274" y="60" type="curve" smooth="yes"/>
      <point x="314.667" y="60"/>
      <point x="354" y="77.6667"/>
    </contour>
    <contour>
      <point x="231" y="492" type="line"/>
      <point x="204" y="506" type="line"/>
      <point x="209.333" y="518"/>
      <point x="216.667" y="535.833"/>
      <point x="226" y="559.5" type="curve" smooth="yes"/>
      <point x="235.333" y="583.168"/>
      <point x="244.333" y="605.834"/>
      <point x="253" y="627.5" type="curve" smooth="yes"/>
      <point x="268" y="665" type="line"/>
      <point x="273.333" y="667.687"/>
      <point x="287.5" y="670.354"/>
      <point x="310.5" y="673" type="curve" smooth="yes"/>
      <point x="325.833" y="674.778"/>
      <point x="337.389" y="675.667"/>
      <point x="345.167" y="675.667" type="curve" smooth="yes"/>
      <point x="349.056" y="675.667"/>
      <point x="352" y="675.445"/>
      <point x="354" y="675" type="curve"/>
      <point x="358" y="665" type="line"/>
    </contour>
  </outline>
</glyph>
<glyph name="Ccircumflex" format="2">
  <advance width="667"/>
  <unicode hex="0108"/>
  <outline>
    <contour>
      <point x="616" y="177" type="curve"/>
      <point x="645" y="166" type="line"/>
      <point x="627" y="102"/>
      <point x="608.333" y="50.333"/>
      <point x="589" y="11" type="curve"/>
      <point x="508.333" y="-6.3333"/>
      <point x="446.666" y="-15"/>
      <point x="404" y="-15" type="curve" smooth="yes"/>
      <point x="343.333" y="-15"/>
      <point x="289.333" y="-5.33333"/>
      <point x="242" y="14" type="curve" smooth="yes"/>
      <point x="194.667" y="33.3333"/>
      <point x="156.833" y="59"/>
      <point x="128.5" y="91" type="curve" smooth="yes"/>
      <point x="100.167" y="123"/>
      <point x="78.8333" y="158.167"/>
      <point x="64.5" y="196.5" type="curve" smooth="yes"/>
      <point x="50.1667" y="234.833"/>
      <point x="43" y="274.667"/>
      <point x="43" y="316" type="curve" smooth="yes"/>
      <point x="43" y="420"/>
      <point x="79" y="504.167"/>
      <point x="151" y="568.5" type="curve" smooth="yes"/>
      <point x="223" y="632.833"/>
      <point x="316" y="665"/>
      <point x="430" y="665" type="curve" smooth="yes"/>
      <point x="448.667" y="665"/>
      <point x="468.333" y="663.833"/>
      <point x="489" y="661.5" type="curve" smooth="yes"/>
      <point x="509.667" y="659.167"/>
      <point x="526" y="656.667"/>
      <point x="538" y="654" type="curve" smooth="yes"/>
      <point x="550" y="651.333"/>
      <point x="564.333" y="648"/>
      <point x="581" y="644" type="curve" smooth="yes"/>
      <point x="597.667" y="640"/>
      <point x="606.667" y="638"/>
      <point x="608" y="638" type="curve"/>
      <point x="617.333" y="572.667"/>
      <point x="624" y="521.667"/>
      <point x="628" y="485" type="curve"/>
      <point x="597" y="478" type="line"/>
      <point x="583.664" y="530.667"/>
      <point x="561.331" y="568.667"/>
      <point x="530" y="592" type="curve" smooth="yes"/>
      <point x="498.667" y="615.333"/>
      <point x="457" y="627"/>
      <point x="405" y="627" type="curve" smooth="yes"/>
      <point x="327" y="627"/>
      <point x="265.667" y="598.667"/>
      <point x="221" y="542" type="curve" smooth="yes"/>
      <point x="176.333" y="485.333"/>
      <point x="154" y="416.666"/>
      <point x="154" y="336" type="curve" smooth="yes"/>
      <point x="154" y="243.333"/>
      <point x="178.167" y="168"/>
      <point x="226.5" y="110" type="curve" smooth="yes"/>
      <point x="274.833" y="52"/>
      <point x="336.333" y="23"/>
      <point x="411" y="23" type="curve" smooth="yes"/>
      <point x="458.333" y="23"/>
      <point x="497.5" y="35.5"/>
      <point x="528.5" y="60.5" type="curve" smooth="yes"/>
      <point x="559.5" y="85.5"/>
      <point x="588.667" y="124.333"/>
    </contour>
    <contour>
      <point x="537" y="723" type="curve"/>
      <point x="521" y="697" type="line"/>
      <point x="487" y="711.668"/>
      <point x="446" y="732.335"/>
      <point x="398" y="759" type="curve"/>
      <point x="332.667" y="724.333"/>
      <point x="292" y="703.667"/>
      <point x="276" y="697" type="curve"/>
      <point x="260" y="723" type="line"/>
      <point x="315.334" y="765.668"/>
      <point x="357.667" y="802.335"/>
      <point x="387" y="833" type="curve"/>
      <point x="410" y="833" type="line"/>
      <point x="440" y="800.333"/>
      <point x="482.333" y="763.667"/>
    </contour>
  </outline>
</glyph>
<glyph name="cdotaccent" format="2">
  <advance width="423"/>
  <unicode hex="010B"/>
  <outline>
    <contour>
      <point x="392" y="113" type="curve"/>
      <point x="410" y="91" type="line"/>
      <point x="386.667" y="60.3333"/>
      <point x="359.667" y="35.5"/>
      <point x="329" y="16.5" type="curve" smooth="yes"/>
      <point x="298.333" y="-2.5"/>
      <point x="268.666" y="-12"/>
      <point x="240" y="-12" type="curve" smooth="yes"/>
      <point x="178.667" y="-12"/>
      <point x="129.333" y="8.6667"/>
      <point x="92" y="50" type="curve" smooth="yes"/>
      <point x="54.6667" y="91.3333"/>
      <point x="36" y="140.333"/>
      <point x="36" y="197" type="curve" smooth="yes"/>
      <point x="36" y="275"/>
      <point x="69.6667" y="340"/>
      <point x="137" y="392" type="curve" smooth="yes"/>
      <point x="187" y="430.667"/>
      <point x="238" y="450"/>
      <point x="290" y="450" type="curve" smooth="yes"/>
      <point x="291" y="450" type="line" smooth="yes"/>
      <point x="329" y="450"/>
      <point x="358.667" y="441.333"/>
      <point x="380" y="424" type="curve" smooth="yes"/>
      <point x="390.667" y="414.667"/>
      <point x="396" y="404"/>
      <point x="396" y="392" type="curve" smooth="yes"/>
      <point x="396" y="381.333"/>
      <point x="391.833" y="371.166"/>
      <point x="383.5" y="361.5" type="curve" smooth="yes"/>
      <point x="375.167" y="351.833"/>
      <point x="367.667" y="347"/>
      <point x="361" y="347" type="curve" smooth="yes"/>
      <point x="355.667" y="347"/>
      <point x="349.333" y="350.667"/>
      <point x="342" y="358" type="curve" smooth="yes"/>
      <point x="311.333" y="386.667"/>
      <point x="277.666" y="401"/>
      <point x="241" y="401" type="curve" smooth="yes"/>
      <point x="208.333" y="401"/>
      <point x="180.833" y="387.333"/>
      <point x="158.5" y="360" type="curve" smooth="yes"/>
      <point x="136.167" y="332.667"/>
      <point x="125" y="293.667"/>
      <point x="125" y="243" type="curve" smooth="yes"/>
      <point x="125" y="181.667"/>
      <point x="141.167" y="135.833"/>
      <point x="173.5" y="105.5" type="curve" smooth="yes"/>
      <point x="205.833" y="75.1667"/>
      <point x="239" y="60"/>
      <point x="273" y="60" type="curve" smooth="yes"/>
      <point x="314.333" y="60"/>
      <point x="354" y="77.6667"/>
    </contour>
    <contour>
      <point x="243" y="534" type="curve" smooth="yes"/>
      <point x="228.333" y="534"/>
      <point x="215.667" y="539.333"/>
      <point x="205" y="550" type="curve" smooth="yes"/>
      <point x="194.333" y="560.669"/>
      <point x="189" y="573.336"/>
      <point x="189" y="588" type="curve" smooth="yes"/>
      <point x="189" y="604"/>
      <point x="194.333" y="617.333"/>
      <point x="205" y="628" type="curve" smooth="yes"/>
      <point x="215.667" y="638.667"/>
      <point x="228.667" y="644"/>
      <point x="244" y="644" type="curve" smooth="yes"/>
      <point x="258.667" y="644"/>
      <point x="271.167" y="638.667"/>
      <point x="281.5" y="628" type="curve" smooth="yes"/>
      <point x="291.833" y="617.333"/>
      <point x="297" y="604"/>
      <point x="297" y="588" type="curve" smooth="yes"/>
      <point x="297" y="573.333"/>
      <point x="291.667" y="560.667"/>
      <point x="281" y="550" type="curve" smooth="yes"/>
      <point x="270.333" y="539.333"/>
      <point x="257.666" y="534"/>
    </contour>
  </outline>
</glyph>
<glyph name="Dcaron" format="2">
  <advance width="739"/>
  <unicode hex="010E"/>
  <outline>
    <contour>
      <point x="41" y="650" type="line"/>
      <point x="326" y="650" type="line" smooth="yes"/>
      <point x="456" y="650"/>
      <point x="550.667" y="621.667"/>
      <point x="610" y="565" type="curve" smooth="yes"/>
      <point x="666.667" y="509.667"/>
      <point x="695" y="438"/>
      <point x="695" y="350" type="curve" smooth="yes"/>
      <point x="695" y="234.667"/>
      <point x="654" y="145.667"/>
      <point x="572" y="83" type="curve" smooth="yes"/>
      <point x="499.333" y="27.6667"/>
      <point x="399.667" y="0"/>
      <point x="273" y="0" type="curve" smooth="yes"/>
      <point x="33" y="0" type="line"/>
      <point x="33" y="29" type="line"/>
      <point x="75.6667" y="32.3333"/>
      <point x="101.833" y="38.8333"/>
      <point x="111.5" y="48.5" type="curve" smooth="yes"/>
      <point x="121.167" y="58.1667"/>
      <point x="126" y="84"/>
      <point x="126" y="126" type="curve" smooth="yes"/>
      <point x="126" y="524" type="line" smooth="yes"/>
      <point x="126" y="554"/>
      <point x="124" y="574.833"/>
      <point x="120" y="586.5" type="curve" smooth="yes"/>
      <point x="116" y="598.167"/>
      <point x="108.833" y="606.167"/>
      <point x="98.5" y="610.5" type="curve" smooth="yes"/>
      <point x="88.1667" y="614.833"/>
      <point x="69" y="618"/>
      <point x="41" y="620" type="curve"/>
    </contour>
    <contour>
      <point x="220" y="546" type="curve" smooth="yes"/>
      <point x="220" y="133" type="line" smooth="yes"/>
      <point x="220" y="96.3333"/>
      <point x="227.667" y="71.3333"/>
      <point x="243" y="58" type="curve" smooth="yes"/>
      <point x="258.334" y="44.6667"/>
      <point x="284.667" y="38"/>
      <point x="322" y="38" type="curve" smooth="yes"/>
      <point x="407.333" y="38"/>
      <point x="473" y="66"/>
      <point x="519" y="122" type="curve" smooth="yes"/>
      <point x="565" y="178"/>
      <point x="588" y="249"/>
      <point x="588" y="335" type="curve" smooth="yes"/>
      <point x="588" y="387"/>
      <point x="578.5" y="433.5"/>
      <point x="559.5" y="474.5" type="curve" smooth="yes"/>
      <point x="540.5" y="515.5"/>
      <point x="513" y="547.333"/>
      <point x="477" y="570" type="curve"/>
      <point x="434.333" y="600"/>
      <point x="378" y="615"/>
      <point x="308" y="615" type="curve" smooth="yes"/>
      <point x="268" y="615"/>
      <point x="243" y="611"/>
      <point x="233" y="603" type="curve" smooth="yes"/>
      <point x="224.333" y="596.333"/>
      <point x="220" y="577.333"/>
    </contour>
    <contour>
      <point x="469" y="823" type="curve"/>
      <point x="484" y="797" type="line"/>
      <point x="432" y="757"/>
      <point x="389.667" y="720.333"/>
      <point x="357" y="687" type="curve"/>
      <point x="334" y="687" type="line"/>
      <point x="304.667" y="717.667"/>
      <point x="262.333" y="754.334"/>
      <point x="207" y="797" type="curve"/>
      <point x="222" y="823" type="line"/>
      <point x="267.333" y="803.667"/>
      <point x="308.667" y="783"/>
      <point x="346" y="761" type="curve"/>
      <point x="385.333" y="783.67"/>
      <point x="426.333" y="804.336"/>
    </contour>
  </outline>
</glyph>
<glyph name="dcaron" format="2">
  <advance width="531"/>
  <unicode hex="010F"/>
  <outline>
    <contour>
      <point x="522" y="52" type="line"/>
      <point x="522" y="26" type="line"/>
      <point x="452.667" y="14"/>
      <point x="398.333" y="1.3333"/>
      <point x="359" y="-12" type="curve"/>
      <point x="359" y="52" type="line"/>
      <point x="298" y="15" type="line" smooth="yes"/>
      <point x="268" y="-3"/>
      <point x="243.667" y="-12"/>
      <point x="225" y="-12" type="curve" smooth="yes"/>
      <point x="179" y="-12"/>
      <point x="136" y="7.3333"/>
      <point x="96" y="46" type="curve" smooth="yes"/>
      <point x="56" y="84.6667"/>
      <point x="36" y="136.667"/>
      <point x="36" y="202" type="curve" smooth="yes"/>
      <point x="36" y="270.667"/>
      <point x="61.8333" y="329.167"/>
      <point x="113.5" y="377.5" type="curve" smooth="yes"/>
      <point x="165.167" y="425.833"/>
      <point x="226.333" y="450"/>
      <point x="297" y="450" type="curve" smooth="yes"/>
      <point x="316.333" y="450"/>
      <point x="337" y="446.667"/>
      <point x="359" y="440" type="curve"/>
      <point x="359" y="578" type="line" smooth="yes"/>
      <point x="359" y="609.333"/>
      <point x="355.333" y="628.5"/>
      <point x="348" y="635.5" type="curve" smooth="yes"/>
      <point x="340.667" y="642.5"/>
      <point x="319.333" y="647.333"/>
      <point x="284" y="650" type="curve"/>
      <point x="284" y="676" type="line"/>
      <point x="348.667" y="684.667"/>
      <point x="403" y="696"/>
      <point x="447" y="710" type="curve"/>
      <point x="447" y="117" type="line" smooth="yes"/>
      <point x="447" y="91"/>
      <point x="449.5" y="74.6667"/>
      <point x="454.5" y="68" type="curve" smooth="yes"/>
      <point x="459.5" y="61.3333"/>
      <point x="471.667" y="57"/>
      <point x="491" y="55" type="curve" smooth="yes"/>
    </contour>
    <contour>
      <point x="359" y="84" type="curve"/>
      <point x="359" y="360" type="line"/>
      <point x="336.333" y="394"/>
      <point x="303.667" y="411"/>
      <point x="261" y="411" type="curve" smooth="yes"/>
      <point x="249" y="411"/>
      <point x="236.5" y="408.167"/>
      <point x="223.5" y="402.5" type="curve" smooth="yes"/>
      <point x="210.5" y="396.833"/>
      <point x="197" y="387.833"/>
      <point x="183" y="375.5" type="curve" smooth="yes"/>
      <point x="169" y="363.167"/>
      <point x="157.667" y="344.167"/>
      <point x="149" y="318.5" type="curve" smooth="yes"/>
      <point x="140.333" y="292.833"/>
      <point x="136" y="263"/>
      <point x="136" y="229" type="curve" smooth="yes"/>
      <point x="136" y="173"/>
      <point x="149.667" y="129.667"/>
      <point x="177" y="99" type="curve" smooth="yes"/>
      <point x="204.333" y="68.3333"/>
      <point x="235.333" y="53"/>
      <point x="270" y="53" type="curve" smooth="yes"/>
      <point x="300" y="53"/>
      <point x="329.667" y="63.3333"/>
    </contour>
    <contour>
      <point x="537" y="711" type="curve" smooth="yes"/>
      <point x="554.333" y="711"/>
      <point x="569.167" y="703.333"/>
      <point x="581.5" y="688" type="curve" smooth="yes"/>
      <point x="593.833" y="672.667"/>
      <point x="600" y="653"/>
      <point x="600" y="629" type="curve" smooth="yes"/>
      <point x="600" y="575"/>
      <point x="570" y="539.333"/>
      <point x="510" y="522" type="curve"/>
      <point x="500" y="549" type="line"/>
      <point x="530.667" y="565"/>
      <point x="546" y="584.667"/>
      <point x="546" y="608" type="curve" smooth="yes"/>
      <point x="546" y="628"/>
      <point x="535" y="641.333"/>
      <point x="513" y="648" type="curve"/>
      <point x="503.667" y="652.672"/>
      <point x="499" y="661.338"/>
      <point x="499" y="674" type="curve" smooth="yes"/>
      <point x="499" y="685.333"/>
      <point x="502.833" y="694.333"/>
      <point x="510.5" y="701" type="curve" smooth="yes"/>
      <point x="518.167" y="707.667"/>
      <point x="527" y="711"/>
    </contour>
  </outline>
</glyph>
<glyph name="dcroat" format="2">
  <advance width="530"/>
  <unicode hex="0111"/>
  <outline>
    <contour>
      <point x="522" y="52" type="line"/>
      <point x="522" y="26" type="line"/>
      <point x="451.333" y="13.3333"/>
      <point x="396.666" y="0.6667"/>
      <point x="358" y="-12" type="curve"/>
      <point x="358" y="52" type="line"/>
      <point x="296" y="15" type="line" smooth="yes"/>
      <point x="264" y="-3"/>
      <point x="240.333" y="-12"/>
      <point x="225" y="-12" type="curve" smooth="yes"/>
      <point x="179.667" y="-12"/>
      <point x="137" y="7.3333"/>
      <point x="97" y="46" type="curve" smooth="yes"/>
      <point x="57" y="84.6667"/>
      <point x="36.6667" y="137"/>
      <point x="36" y="203" type="curve" smooth="yes"/>
      <point x="36" y="270.333"/>
      <point x="61.6667" y="328.333"/>
      <point x="113" y="377" type="curve" smooth="yes"/>
      <point x="164.333" y="425.667"/>
      <point x="225.333" y="450"/>
      <point x="296" y="450" type="curve" smooth="yes"/>
      <point x="316" y="450"/>
      <point x="336.667" y="446.333"/>
      <point x="358" y="439" type="curve"/>
      <point x="358" y="532" type="line"/>
      <point x="225" y="532" type="line"/>
      <point x="225" y="570" type="line"/>
      <point x="358" y="570" type="line"/>
      <point x="358" y="591" type="line" smooth="yes"/>
      <point x="357.333" y="617"/>
      <point x="353.5" y="633"/>
      <point x="346.5" y="639" type="curve" smooth="yes"/>
      <point x="339.5" y="645"/>
      <point x="319.333" y="649.667"/>
      <point x="286" y="653" type="curve"/>
      <point x="286" y="678" type="line"/>
      <point x="343.334" y="685.333"/>
      <point x="396.667" y="697"/>
      <point x="446" y="713" type="curve"/>
      <point x="446" y="570" type="line"/>
      <point x="522" y="570" type="line"/>
      <point x="522" y="532" type="line"/>
      <point x="446" y="532" type="line"/>
      <point x="446" y="119" type="line" smooth="yes"/>
      <point x="446" y="91.6667"/>
      <point x="448.667" y="74.5"/>
      <point x="454" y="67.5" type="curve" smooth="yes"/>
      <point x="459.334" y="60.5"/>
      <point x="471.667" y="56.3333"/>
      <point x="491" y="55" type="curve" smooth="yes"/>
    </contour>
    <contour>
      <point x="358" y="84" type="curve"/>
      <point x="358" y="361" type="line"/>
      <point x="347.333" y="377.667"/>
      <point x="333" y="390.5"/>
      <point x="315" y="399.5" type="curve" smooth="yes"/>
      <point x="297" y="408.5"/>
      <point x="279.333" y="413"/>
      <point x="262" y="413" type="curve" smooth="yes"/>
      <point x="251.333" y="413"/>
      <point x="239.5" y="410.167"/>
      <point x="226.5" y="404.5" type="curve" smooth="yes"/>
      <point x="213.5" y="398.833"/>
      <point x="199.833" y="389.833"/>
      <point x="185.5" y="377.5" type="curve" smooth="yes"/>
      <point x="171.166" y="365.167"/>
      <point x="159.333" y="346"/>
      <point x="150" y="320" type="curve" smooth="yes"/>
      <point x="140.667" y="294"/>
      <point x="136" y="263.667"/>
      <point x="136" y="229" type="curve" smooth="yes"/>
      <point x="136" y="172.333"/>
      <point x="149.833" y="128.667"/>
      <point x="177.5" y="98" type="curve" smooth="yes"/>
      <point x="205.167" y="67.3333"/>
      <point x="236.333" y="52"/>
      <point x="271" y="52" type="curve" smooth="yes"/>
      <point x="299" y="52"/>
      <point x="328" y="62.6667"/>
    </contour>
  </outline>
</glyph>
<glyph name="emacron" format="2">
  <advance width="427"/>
  <unicode hex="0113"/>
  <outline>
    <contour>
      <point x="383" y="109" type="curve"/>
      <point x="398" y="87" type="line"/>
      <point x="370.667" y="51.6667"/>
      <point x="341.833" y="26.3333"/>
      <point x="311.5" y="11" type="curve" smooth="yes"/>
      <point x="281.167" y="-4.3333"/>
      <point x="254.667" y="-12"/>
      <point x="232" y="-12" type="curve" smooth="yes"/>
      <point x="172" y="-12"/>
      <point x="124.333" y="8.6667"/>
      <point x="89" y="50" type="curve" smooth="yes"/>
      <point x="53.6667" y="91.3333"/>
      <point x="36" y="141.667"/>
      <point x="36" y="201" type="curve" smooth="yes"/>
      <point x="36" y="270.333"/>
      <point x="58.3333" y="329"/>
      <point x="103" y="377" type="curve" smooth="yes"/>
      <point x="148.333" y="425.667"/>
      <point x="197.333" y="450"/>
      <point x="250" y="450" type="curve" smooth="yes"/>
      <point x="251" y="450" type="line" smooth="yes"/>
      <point x="292.333" y="450"/>
      <point x="328" y="434.5"/>
      <point x="358" y="403.5" type="curve" smooth="yes"/>
      <point x="388" y="372.5"/>
      <point x="403" y="337"/>
      <point x="403" y="297" type="curve" smooth="yes"/>
      <point x="403" y="286.333"/>
      <point x="401.333" y="278.5"/>
      <point x="398" y="273.5" type="curve" smooth="yes"/>
      <point x="394.667" y="268.5"/>
      <point x="388.333" y="265.333"/>
      <point x="379" y="264" type="curve" smooth="yes"/>
      <point x="341" y="257.333"/>
      <point x="255.333" y="251.667"/>
      <point x="122" y="247" type="curve"/>
      <point x="122.667" y="185.667"/>
      <point x="137.667" y="139.167"/>
      <point x="167" y="107.5" type="curve" smooth="yes"/>
      <point x="196.333" y="75.8333"/>
      <point x="230.333" y="60"/>
      <point x="269" y="60" type="curve" smooth="yes"/>
      <point x="309.667" y="60"/>
      <point x="347.667" y="76.3334"/>
    </contour>
    <contour>
      <point x="227" y="412" type="curve" smooth="yes"/>
      <point x="204.333" y="412"/>
      <point x="183.667" y="401.167"/>
      <point x="165" y="379.5" type="curve" smooth="yes"/>
      <point x="146.333" y="357.833"/>
      <point x="133.667" y="327.666"/>
      <point x="127" y="289" type="curve"/>
      <point x="179.667" y="289"/>
      <point x="233.333" y="290"/>
      <point x="288" y="292" type="curve" smooth="yes"/>
      <point x="303.333" y="292"/>
      <point x="311" y="298.667"/>
      <point x="311" y="312" type="curve" smooth="yes"/>
      <point x="311.027" y="313.115"/>
      <point x="311.041" y="314.225"/>
      <point x="311.041" y="315.328" type="curve" smooth="yes"/>
      <point x="311.041" y="341.245"/>
      <point x="303.527" y="363.636"/>
      <point x="288.5" y="382.5" type="curve" smooth="yes"/>
      <point x="272.833" y="402.167"/>
      <point x="252.333" y="412"/>
    </contour>
    <contour>
      <point x="343" y="547" type="line"/>
      <point x="118" y="547" type="line"/>
      <point x="118" y="605" type="line"/>
      <point x="343" y="605" type="line"/>
    </contour>
  </outline>
</glyph>
<glyph name="Eogonek" format="2">
  <advance width="570"/>
  <unicode hex="0118"/>
  <outline>
    <contour>
      <point x="520" y="165" type="curve"/>
      <point x="550" y="159" type="line"/>
      <point x="539.333" y="96.3333"/>
      <point x="527.667" y="43.333"/>
      <point x="515" y="0" type="curve"/>
      <point x="476" y="0" type="line"/>
      <point x="452" y="-20"/>
      <point x="432.667" y="-42.1667"/>
      <point x="418" y="-66.5" type="curve" smooth="yes"/>
      <point x="403.333" y="-90.8333"/>
      <point x="396" y="-112.667"/>
      <point x="396" y="-132" type="curve" smooth="yes"/>
      <point x="396" y="-161.333"/>
      <point x="412.333" y="-176"/>
      <point x="445" y="-176" type="curve" smooth="yes"/>
      <point x="460.333" y="-176"/>
      <point x="476.333" y="-172.333"/>
      <point x="493" y="-165" type="curve"/>
      <point x="500" y="-192" type="line"/>
      <point x="448" y="-224" type="line" smooth="yes"/>
      <point x="434.667" y="-232"/>
      <point x="421.667" y="-236"/>
      <point x="409" y="-236" type="curve" smooth="yes"/>
      <point x="380.333" y="-236"/>
      <point x="359.166" y="-229"/>
      <point x="345.5" y="-215" type="curve" smooth="yes"/>
      <point x="331.833" y="-201"/>
      <point x="325" y="-183"/>
      <point x="325" y="-161" type="curve" smooth="yes"/>
      <point x="325" y="-136.333"/>
      <point x="335.333" y="-109.667"/>
      <point x="356" y="-81" type="curve" smooth="yes"/>
      <point x="376.667" y="-52.3333"/>
      <point x="403" y="-25.3333"/>
      <point x="435" y="0" type="curve"/>
      <point x="28" y="0" type="line"/>
      <point x="28" y="29" type="line"/>
      <point x="73.3333" y="32.3333"/>
      <point x="101" y="39.1667"/>
      <point x="111" y="49.5" type="curve" smooth="yes"/>
      <point x="121" y="59.8333"/>
      <point x="126" y="86.3333"/>
      <point x="126" y="129" type="curve" smooth="yes"/>
      <point x="126" y="519" type="line" smooth="yes"/>
      <point x="126" y="563"/>
      <point x="121.667" y="590.167"/>
      <point x="113" y="600.5" type="curve" smooth="yes"/>
      <point x="104.333" y="610.833"/>
      <point x="80.3333" y="617.667"/>
      <point x="41" y="621" type="curve"/>
      <point x="41" y="650" type="line"/>
      <point x="490" y="650" type="line"/>
      <point x="490.667" y="632"/>
      <point x="494" y="584"/>
      <point x="500" y="506" type="curve"/>
      <point x="470" y="502" type="line"/>
      <point x="460.667" y="541.333"/>
      <point x="448.333" y="570"/>
      <point x="433" y="588" type="curve" smooth="yes"/>
      <point x="424.333" y="598"/>
      <point x="412.333" y="604.833"/>
      <point x="397" y="608.5" type="curve" smooth="yes"/>
      <point x="381.667" y="612.167"/>
      <point x="356.667" y="614"/>
      <point x="322" y="614" type="curve" smooth="yes"/>
      <point x="255" y="614" type="line" smooth="yes"/>
      <point x="239" y="614"/>
      <point x="229.167" y="612.333"/>
      <point x="225.5" y="609" type="curve" smooth="yes"/>
      <point x="221.833" y="605.662"/>
      <point x="220" y="596.329"/>
      <point x="220" y="581" type="curve" smooth="yes"/>
      <point x="220" y="359" type="line"/>
      <point x="311" y="359" type="line" smooth="yes"/>
      <point x="355.667" y="359"/>
      <point x="383" y="362.5"/>
      <point x="393" y="369.5" type="curve" smooth="yes"/>
      <point x="403" y="376.5"/>
      <point x="411.333" y="397"/>
      <point x="418" y="431" type="curve"/>
      <point x="448" y="431" type="line"/>
      <point x="448" y="242" type="line"/>
      <point x="418" y="242" type="line"/>
      <point x="411.333" y="277.333"/>
      <point x="403" y="298.667"/>
      <point x="393" y="306" type="curve" smooth="yes"/>
      <point x="383" y="313.333"/>
      <point x="356" y="317"/>
      <point x="312" y="317" type="curve" smooth="yes"/>
      <point x="220" y="317" type="line"/>
      <point x="220" y="131" type="line" smooth="yes"/>
      <point x="220" y="86.3333"/>
      <point x="228" y="58.6667"/>
      <point x="244" y="48" type="curve" smooth="yes"/>
      <point x="256.667" y="40"/>
      <point x="290.333" y="36"/>
      <point x="345" y="36" type="curve" smooth="yes"/>
      <point x="380.334" y="36"/>
      <point x="407.167" y="38.5"/>
      <point x="425.5" y="43.5" type="curve" smooth="yes"/>
      <point x="443.834" y="48.5"/>
      <point x="458.668" y="57.6667"/>
      <point x="470" y="71" type="curve" smooth="yes"/>
      <point x="486" y="89.6667"/>
      <point x="502.667" y="121"/>
    </contour>
  </outline>
</glyph>
<glyph name="eogonek" format="2">
  <advance width="426"/>
  <unicode hex="0119"/>
  <outline>
    <contour>
      <point x="267" y="-7" type="curve"/>
      <point x="266" y="-5" type="line"/>
      <point x="250.666" y="-9.66666"/>
      <point x="239.333" y="-12"/>
      <point x="232" y="-12" type="curve" smooth="yes"/>
      <point x="172" y="-12"/>
      <point x="124.167" y="8.8333"/>
      <point x="88.5" y="50.5" type="curve" smooth="yes"/>
      <point x="52.8333" y="92.1667"/>
      <point x="35" y="142.667"/>
      <point x="35" y="202" type="curve" smooth="yes"/>
      <point x="35" y="271.333"/>
      <point x="57" y="329"/>
      <point x="101" y="375" type="curve"/>
      <point x="147" y="425"/>
      <point x="196.333" y="450"/>
      <point x="249" y="450" type="curve" smooth="yes"/>
      <point x="250" y="450" type="line" smooth="yes"/>
      <point x="292" y="450"/>
      <point x="328.167" y="434.5"/>
      <point x="358.5" y="403.5" type="curve" smooth="yes"/>
      <point x="388.833" y="372.5"/>
      <point x="404" y="337"/>
      <point x="404" y="297" type="curve" smooth="yes"/>
      <point x="404" y="277.667"/>
      <point x="396" y="266.667"/>
      <point x="380" y="264" type="curve" smooth="yes"/>
      <point x="342" y="257.333"/>
      <point x="256" y="251.667"/>
      <point x="122" y="247" type="curve"/>
      <point x="122.667" y="185.667"/>
      <point x="137.5" y="139.167"/>
      <point x="166.5" y="107.5" type="curve" smooth="yes"/>
      <point x="195.5" y="75.8333"/>
      <point x="229.333" y="60"/>
      <point x="268" y="60" type="curve" smooth="yes"/>
      <point x="309.334" y="60"/>
      <point x="347.667" y="76.3334"/>
      <point x="383" y="109" type="curve"/>
      <point x="399" y="88" type="line"/>
      <point x="381" y="66"/>
      <point x="363.333" y="48"/>
      <point x="346" y="34" type="curve" smooth="yes"/>
      <point x="316.667" y="9.3333"/>
      <point x="290.833" y="-18.5"/>
      <point x="268.5" y="-49.5" type="curve" smooth="yes"/>
      <point x="246.167" y="-80.5"/>
      <point x="235" y="-107.667"/>
      <point x="235" y="-131" type="curve" smooth="yes"/>
      <point x="235" y="-145"/>
      <point x="239.5" y="-155.833"/>
      <point x="248.5" y="-163.5" type="curve" smooth="yes"/>
      <point x="257.5" y="-171.167"/>
      <point x="269" y="-175"/>
      <point x="283" y="-175" type="curve" smooth="yes"/>
      <point x="297.667" y="-175"/>
      <point x="314.333" y="-170.667"/>
      <point x="333" y="-162" type="curve"/>
      <point x="341" y="-187" type="line"/>
      <point x="285" y="-222" type="line" smooth="yes"/>
      <point x="271.667" y="-229.333"/>
      <point x="259" y="-233"/>
      <point x="247" y="-233" type="curve" smooth="yes"/>
      <point x="219.667" y="-233"/>
      <point x="199" y="-225.833"/>
      <point x="185" y="-211.5" type="curve" smooth="yes"/>
      <point x="171" y="-197.167"/>
      <point x="164" y="-180.333"/>
      <point x="164" y="-161" type="curve" smooth="yes"/>
      <point x="164" y="-115"/>
      <point x="198.333" y="-63.6667"/>
    </contour>
    <contour>
      <point x="226" y="413" type="curve" smooth="yes"/>
      <point x="203.333" y="413"/>
      <point x="182.5" y="401.833"/>
      <point x="163.5" y="379.5" type="curve" smooth="yes"/>
      <point x="144.5" y="357.167"/>
      <point x="132.333" y="327"/>
      <point x="127" y="289" type="curve"/>
      <point x="143" y="289"/>
      <point x="159.833" y="289.167"/>
      <point x="177.5" y="289.5" type="curve" smooth="yes"/>
      <point x="195.167" y="289.833"/>
      <point x="215" y="290.333"/>
      <point x="237" y="291" type="curve" smooth="yes"/>
      <point x="259" y="291.667"/>
      <point x="276" y="292"/>
      <point x="288" y="292" type="curve" smooth="yes"/>
      <point x="297.334" y="292"/>
      <point x="303.668" y="293.333"/>
      <point x="307" y="296" type="curve" smooth="yes"/>
      <point x="310.333" y="298.667"/>
      <point x="312" y="303.667"/>
      <point x="312" y="311" type="curve" smooth="yes"/>
      <point x="312.026" y="312.072"/>
      <point x="312.039" y="313.139"/>
      <point x="312.039" y="314.2" type="curve" smooth="yes"/>
      <point x="312.039" y="340.197"/>
      <point x="304.193" y="362.964"/>
      <point x="288.5" y="382.5" type="curve" smooth="yes"/>
      <point x="272.167" y="402.833"/>
      <point x="251.333" y="413"/>
    </contour>
  </outline>
</glyph>
<glyph name="Gcommaaccent" format="2">
  <advance width="717"/>
  <unicode hex="0122"/>
  <outline>
    <contour>
      <point x="694" y="303" type="line"/>
      <point x="694" y="274" type="line"/>
      <point x="665.333" y="269.333"/>
      <point x="647.833" y="263.333"/>
      <point x="641.5" y="256" type="curve" smooth="yes"/>
      <point x="635.167" y="248.667"/>
      <point x="632" y="230"/>
      <point x="632" y="200" type="curve" smooth="yes"/>
      <point x="632" y="116" type="line" smooth="yes"/>
      <point x="632" y="73.3333"/>
      <point x="634.333" y="41.6667"/>
      <point x="639" y="21" type="curve"/>
      <point x="533" y="-3"/>
      <point x="458" y="-15"/>
      <point x="414" y="-15" type="curve" smooth="yes"/>
      <point x="302.667" y="-15"/>
      <point x="213.167" y="15.8333"/>
      <point x="145.5" y="77.5" type="curve" smooth="yes"/>
      <point x="77.8333" y="139.167"/>
      <point x="44" y="220"/>
      <point x="44" y="320" type="curve" smooth="yes"/>
      <point x="44" y="394"/>
      <point x="62.5" y="457.667"/>
      <point x="99.5" y="511" type="curve" smooth="yes"/>
      <point x="136.5" y="564.333"/>
      <point x="183.5" y="603.333"/>
      <point x="240.5" y="628" type="curve" smooth="yes"/>
      <point x="297.5" y="652.667"/>
      <point x="360.333" y="665"/>
      <point x="429" y="665" type="curve" smooth="yes"/>
      <point x="471.667" y="665"/>
      <point x="535.667" y="655.667"/>
      <point x="621" y="637" type="curve"/>
      <point x="625.667" y="583"/>
      <point x="631" y="530"/>
      <point x="637" y="478" type="curve"/>
      <point x="607" y="472" type="line"/>
      <point x="586.333" y="576"/>
      <point x="521.333" y="628"/>
      <point x="412" y="628" type="curve" smooth="yes"/>
      <point x="336.667" y="628"/>
      <point x="275" y="601.333"/>
      <point x="227" y="548" type="curve" smooth="yes"/>
      <point x="179" y="494.667"/>
      <point x="155" y="423"/>
      <point x="155" y="333" type="curve" smooth="yes"/>
      <point x="155" y="281.667"/>
      <point x="164.167" y="233"/>
      <point x="182.5" y="187" type="curve" smooth="yes"/>
      <point x="200.833" y="141"/>
      <point x="231" y="101.833"/>
      <point x="273" y="69.5" type="curve" smooth="yes"/>
      <point x="315" y="37.1667"/>
      <point x="365.667" y="21"/>
      <point x="425" y="21" type="curve" smooth="yes"/>
      <point x="459" y="21"/>
      <point x="486.333" y="26.6667"/>
      <point x="507" y="38" type="curve" smooth="yes"/>
      <point x="527" y="48.6667"/>
      <point x="537" y="69.6667"/>
      <point x="537" y="101" type="curve" smooth="yes"/>
      <point x="537" y="188" type="line" smooth="yes"/>
      <point x="537" y="224"/>
      <point x="531.833" y="246.333"/>
      <point x="521.5" y="255" type="curve" smooth="yes"/>
      <point x="511.167" y="263.667"/>
      <point x="481.333" y="270"/>
      <point x="432" y="274" type="curve"/>
      <point x="432" y="303" type="line"/>
    </contour>
    <contour>
      <point x="396" y="-47" type="curve" smooth="yes"/>
      <point x="416" y="-47"/>
      <point x="433.5" y="-54.6667"/>
      <point x="448.5" y="-70" type="curve" smooth="yes"/>
      <point x="463.5" y="-85.3333"/>
      <point x="471" y="-105"/>
      <point x="471" y="-129" type="curve" smooth="yes"/>
      <point x="471" y="-182.333"/>
      <point x="434.667" y="-218.333"/>
      <point x="362" y="-237" type="curve"/>
      <point x="352" y="-210" type="line"/>
      <point x="392.667" y="-192"/>
      <point x="413" y="-172.333"/>
      <point x="413" y="-151" type="curve" smooth="yes"/>
      <point x="413" y="-131"/>
      <point x="397.667" y="-117"/>
      <point x="367" y="-109" type="curve" smooth="yes"/>
      <point x="357" y="-106.333"/>
      <point x="352" y="-98.3333"/>
      <point x="352" y="-85" type="curve" smooth="yes"/>
      <point x="352" y="-73"/>
      <point x="356.333" y="-63.6667"/>
      <point x="365" y="-57" type="curve" smooth="yes"/>
      <point x="373.667" y="-50.3333"/>
      <point x="384" y="-47"/>
    </contour>
  </outline>
</glyph>
<glyph name="gcommaaccent" format="2">
  <advance width="472"/>
  <unicode hex="0123"/>
  <outline>
    <contour>
      <point x="140" y="150" type="curve"/>
      <point x="91.3019" y="169.979"/>
      <point x="51" y="217.009"/>
      <point x="51" y="284" type="curve" smooth="yes"/>
      <point x="51" y="336"/>
      <point x="69.8333" y="376.667"/>
      <point x="107.5" y="406" type="curve" smooth="yes"/>
      <point x="145.167" y="435.333"/>
      <point x="186.333" y="450"/>
      <point x="231" y="450" type="curve" smooth="yes"/>
      <point x="232" y="450" type="line" smooth="yes"/>
      <point x="265.333" y="450"/>
      <point x="298.333" y="441.333"/>
      <point x="331" y="424" type="curve"/>
      <point x="363" y="425.333"/>
      <point x="408.667" y="430"/>
      <point x="468" y="438" type="curve"/>
      <point x="473" y="430" type="line"/>
      <point x="459.667" y="404"/>
      <point x="445" y="386.333"/>
      <point x="429" y="377" type="curve"/>
      <point x="372" y="381" type="line"/>
      <point x="392" y="356.333"/>
      <point x="402" y="327.333"/>
      <point x="402" y="294" type="curve" smooth="yes"/>
      <point x="402" y="244"/>
      <point x="384.167" y="205"/>
      <point x="348.5" y="177" type="curve" smooth="yes"/>
      <point x="312.833" y="149"/>
      <point x="271" y="135"/>
      <point x="223" y="135" type="curve" smooth="yes"/>
      <point x="214.333" y="135"/>
      <point x="197.667" y="136.667"/>
      <point x="173" y="140" type="curve"/>
      <point x="155" y="127.333"/>
      <point x="146" y="114.333"/>
      <point x="146" y="101" type="curve" smooth="yes"/>
      <point x="146" y="73.4922"/>
      <point x="175.869" y="62"/>
      <point x="207.999" y="62" type="curve" smooth="yes"/>
      <point x="227.141" y="62"/>
      <point x="292.173" y="63"/>
      <point x="311" y="63" type="curve" smooth="yes"/>
      <point x="395.001" y="63"/>
      <point x="457" y="31.0349"/>
      <point x="457" y="-55" type="curve" smooth="yes"/>
      <point x="457" y="-107"/>
      <point x="431.5" y="-153.167"/>
      <point x="380.5" y="-193.5" type="curve" smooth="yes"/>
      <point x="329.5" y="-233.833"/>
      <point x="271" y="-254"/>
      <point x="205" y="-254" type="curve" smooth="yes"/>
      <point x="151" y="-254"/>
      <point x="108.333" y="-241.5"/>
      <point x="77" y="-216.5" type="curve" smooth="yes"/>
      <point x="45.6667" y="-191.5"/>
      <point x="29.6667" y="-163.333"/>
      <point x="29" y="-132" type="curve" smooth="yes"/>
      <point x="29" y="-96.799"/>
      <point x="54.4207" y="-76.2109"/>
      <point x="78" y="-56" type="curve" smooth="yes"/>
      <point x="91.4874" y="-44.4393"/>
      <point x="122.744" y="-20.5042"/>
      <point x="135" y="-10" type="curve"/>
      <point x="102.333" y="0"/>
      <point x="78" y="18.3333"/>
      <point x="62" y="45" type="curve" smooth="yes"/>
      <point x="53.8333" y="57.8333"/>
      <point x="49.75" y="70.6667"/>
      <point x="49.75" y="83.5" type="curve" smooth="yes"/>
      <point x="49.75" y="85.3337"/>
      <point x="49.8333" y="87.167"/>
      <point x="50" y="89" type="curve"/>
      <point x="86.6667" y="102.333"/>
      <point x="116.667" y="122.667"/>
    </contour>
    <contour>
      <point x="313" y="286" type="curve" smooth="yes"/>
      <point x="313" y="352.451"/>
      <point x="283.882" y="418"/>
      <point x="222" y="418" type="curve" smooth="yes"/>
      <point x="169.666" y="418"/>
      <point x="144" y="358.973"/>
      <point x="144" y="300" type="curve" smooth="yes"/>
      <point x="144" y="234.202"/>
      <point x="173.061" y="168"/>
      <point x="234" y="168" type="curve" smooth="yes"/>
      <point x="288.198" y="169.595"/>
      <point x="313" y="223.951"/>
    </contour>
    <contour>
      <point x="384" y="-94" type="curve" smooth="yes"/>
      <point x="384" y="-27.8906"/>
      <point x="324.384" y="-12.9286"/>
      <point x="250.577" y="-12.9286" type="curve" smooth="yes"/>
      <point x="247.764" y="-12.9286"/>
      <point x="244.905" y="-12.9524"/>
      <point x="242" y="-13" type="curve" smooth="yes"/>
      <point x="200" y="-13"/>
      <point x="171" y="-20"/>
      <point x="155" y="-34" type="curve" smooth="yes"/>
      <point x="127" y="-57.3333"/>
      <point x="113" y="-81.6667"/>
      <point x="113" y="-107" type="curve" smooth="yes"/>
      <point x="113" y="-167.276"/>
      <point x="179.598" y="-202"/>
      <point x="244" y="-202" type="curve" smooth="yes"/>
      <point x="322.26" y="-202"/>
      <point x="384" y="-166.608"/>
    </contour>
    <contour>
      <point x="281" y="554" type="curve" smooth="yes"/>
      <point x="281" y="530.052"/>
      <point x="261.817" y="516"/>
      <point x="238" y="516" type="curve" smooth="yes"/>
      <point x="195.311" y="516"/>
      <point x="162" y="553.537"/>
      <point x="162" y="598" type="curve" smooth="yes"/>
      <point x="162" y="651.333"/>
      <point x="198.667" y="687.333"/>
      <point x="272" y="706" type="curve"/>
      <point x="281" y="679" type="line"/>
      <point x="240.333" y="661"/>
      <point x="220" y="641.333"/>
      <point x="220" y="620" type="curve" smooth="yes"/>
      <point x="220" y="598.667"/>
      <point x="235.667" y="584.667"/>
      <point x="267" y="578" type="curve" smooth="yes"/>
      <point x="276.333" y="575.333"/>
      <point x="281" y="567.333"/>
    </contour>
  </outline>
</glyph>
<glyph name="hbar" format="2">
  <advance width="536"/>
  <unicode hex="0127"/>
  <outline>
    <contour>
      <point x="517" y="0" type="line"/>
      <point x="302" y="0" type="line"/>
      <point x="302" y="27" type="line"/>
      <point x="330" y="30.3333"/>
      <point x="347.333" y="36"/>
      <point x="354" y="44" type="curve" smooth="yes"/>
      <point x="360.667" y="52"/>
      <point x="364" y="72"/>
      <point x="364" y="104" type="curve" smooth="yes"/>
      <point x="364" y="272" type="line" smooth="yes"/>
      <point x="364" y="350.667"/>
      <point x="333" y="390"/>
      <point x="271" y="390" type="curve" smooth="yes"/>
      <point x="231.667" y="390"/>
      <point x="198.667" y="374"/>
      <point x="172" y="342" type="curve"/>
      <point x="172" y="104" type="line" smooth="yes"/>
      <point x="172" y="72"/>
      <point x="175.333" y="52"/>
      <point x="182" y="44" type="curve" smooth="yes"/>
      <point x="188.667" y="36"/>
      <point x="205.667" y="30.3333"/>
      <point x="233" y="27" type="curve"/>
      <point x="233" y="0" type="line"/>
      <point x="18" y="0" type="line"/>
      <point x="18" y="27" type="line"/>
      <point x="47.3333" y="30.3333"/>
      <point x="65.6667" y="36.1667"/>
      <point x="73" y="44.5" type="curve" smooth="yes"/>
      <point x="80.3333" y="52.8333"/>
      <point x="84" y="73.3333"/>
      <point x="84" y="106" type="curve" smooth="yes"/>
      <point x="84" y="534" type="line"/>
      <point x="15" y="534" type="line"/>
      <point x="15" y="572" type="line"/>
      <point x="84" y="572" type="line"/>
      <point x="84" y="623" type="line" smooth="yes"/>
      <point x="84" y="639"/>
      <point x="81.6667" y="649.167"/>
      <point x="77" y="653.5" type="curve" smooth="yes"/>
      <point x="72.3333" y="657.833"/>
      <point x="60.3333" y="661.333"/>
      <point x="41" y="664" type="curve"/>
      <point x="41" y="688" type="line"/>
      <point x="80.3333" y="692.667"/>
      <point x="124" y="701.667"/>
      <point x="172" y="715" type="curve"/>
      <point x="172" y="572" type="line"/>
      <point x="327" y="572" type="line"/>
      <point x="327" y="534" type="line"/>
      <point x="172" y="534" type="line"/>
      <point x="172" y="379" type="line"/>
      <point x="216" y="425.667"/>
      <point x="263.667" y="449.333"/>
      <point x="315" y="450" type="curve" smooth="yes"/>
      <point x="316.917" y="450.06"/>
      <point x="318.816" y="450.09"/>
      <point x="320.697" y="450.09" type="curve" smooth="yes"/>
      <point x="360.659" y="450.09"/>
      <point x="392.26" y="436.56"/>
      <point x="415.5" y="409.5" type="curve" smooth="yes"/>
      <point x="439.833" y="381.167"/>
      <point x="452" y="339.667"/>
      <point x="452" y="285" type="curve" smooth="yes"/>
      <point x="452" y="105" type="line" smooth="yes"/>
      <point x="452" y="72.3333"/>
      <point x="455.5" y="52"/>
      <point x="462.5" y="44" type="curve" smooth="yes"/>
      <point x="469.5" y="36"/>
      <point x="487.667" y="30.3333"/>
      <point x="517" y="27" type="curve"/>
    </contour>
  </outline>
</glyph>
<glyph name="Itilde" format="2">
  <advance width="347"/>
  <unicode hex="0128"/>
  <outline>
    <contour>
      <point x="309" y="0" type="line"/>
      <point x="37" y="0" type="line"/>
      <point x="37" y="29" type="line"/>
      <point x="77.6667" y="32.3333"/>
      <point x="102.667" y="38.8333"/>
      <point x="112" y="48.5" type="curve" smooth="yes"/>
      <point x="121.333" y="58.1667"/>
      <point x="126" y="84"/>
      <point x="126" y="126" type="curve" smooth="yes"/>
      <point x="126" y="524" type="line" smooth="yes"/>
      <point x="126" y="566"/>
      <point x="121.333" y="591.833"/>
      <point x="112" y="601.5" type="curve" smooth="yes"/>
      <point x="102.667" y="611.167"/>
      <point x="77.6667" y="617.667"/>
      <point x="37" y="621" type="curve"/>
      <point x="37" y="650" type="line"/>
      <point x="309" y="650" type="line"/>
      <point x="309" y="621" type="line"/>
      <point x="268.333" y="617.667"/>
      <point x="243.333" y="611.167"/>
      <point x="234" y="601.5" type="curve" smooth="yes"/>
      <point x="224.667" y="591.833"/>
      <point x="220" y="566"/>
      <point x="220" y="524" type="curve" smooth="yes"/>
      <point x="220" y="126" type="line" smooth="yes"/>
      <point x="220" y="84"/>
      <point x="224.667" y="58.1667"/>
      <point x="234" y="48.5" type="curve" smooth="yes"/>
      <point x="243.333" y="38.8333"/>
      <point x="268.333" y="32.3333"/>
      <point x="309" y="29" type="curve"/>
    </contour>
    <contour>
      <point x="122" y="790" type="curve" smooth="yes"/>
      <point x="136" y="790"/>
      <point x="156.667" y="783.667"/>
      <point x="184" y="771" type="curve" smooth="yes"/>
      <point x="206.667" y="760.333"/>
      <point x="225" y="755"/>
      <point x="239" y="755" type="curve" smooth="yes"/>
      <point x="256.333" y="755"/>
      <point x="272" y="769.333"/>
      <point x="286" y="798" type="curve"/>
      <point x="312" y="784" type="line"/>
      <point x="293.333" y="726"/>
      <point x="265.333" y="697"/>
      <point x="228" y="697" type="curve" smooth="yes"/>
      <point x="212.666" y="697"/>
      <point x="189.333" y="704"/>
      <point x="158" y="718" type="curve" smooth="yes"/>
      <point x="138" y="727.333"/>
      <point x="122.667" y="732"/>
      <point x="112" y="732" type="curve" smooth="yes"/>
      <point x="95.3333" y="732"/>
      <point x="79.3333" y="717.333"/>
      <point x="64" y="688" type="curve"/>
      <point x="39" y="706" type="line"/>
      <point x="61" y="762"/>
      <point x="88.6667" y="790"/>
    </contour>
  </outline>
</glyph>
<glyph name="itilde" format="2">
  <advance width="273"/>
  <unicode hex="0129"/>
  <outline>
    <contour>
      <point x="258" y="0" type="line"/>
      <point x="32" y="0" type="line"/>
      <point x="32" y="27" type="line"/>
      <point x="63.3334" y="30.3333"/>
      <point x="82.6667" y="36.3333"/>
      <point x="90" y="45" type="curve" smooth="yes"/>
      <point x="97.3333" y="53.6667"/>
      <point x="101" y="75.3333"/>
      <point x="101" y="110" type="curve" smooth="yes"/>
      <point x="101" y="308" type="line" smooth="yes"/>
      <point x="101" y="340.667"/>
      <point x="98" y="361"/>
      <point x="92" y="369" type="curve" smooth="yes"/>
      <point x="86" y="377"/>
      <point x="68.6667" y="383.333"/>
      <point x="40" y="388" type="curve"/>
      <point x="40" y="412" type="line"/>
      <point x="98.6667" y="422"/>
      <point x="148.333" y="435"/>
      <point x="189" y="451" type="curve"/>
      <point x="189" y="110" type="line" smooth="yes"/>
      <point x="189" y="75.3333"/>
      <point x="192.5" y="53.6667"/>
      <point x="199.5" y="45" type="curve" smooth="yes"/>
      <point x="206.5" y="36.3333"/>
      <point x="226" y="30.3333"/>
      <point x="258" y="27" type="curve"/>
    </contour>
    <contour>
      <point x="31" y="519" type="curve"/>
      <point x="4" y="536" type="line"/>
      <point x="24" y="598"/>
      <point x="51.6667" y="629"/>
      <point x="87" y="629" type="curve" smooth="yes"/>
      <point x="100.333" y="629"/>
      <point x="120" y="622.333"/>
      <point x="146" y="609" type="curve" smooth="yes"/>
      <point x="171.333" y="596.333"/>
      <point x="189.333" y="590"/>
      <point x="200" y="590" type="curve" smooth="yes"/>
      <point x="215.333" y="590"/>
      <point x="230" y="605.333"/>
      <point x="244" y="636" type="curve"/>
      <point x="270" y="622" type="line"/>
      <point x="251.333" y="559.333"/>
      <point x="224.667" y="528"/>
      <point x="190" y="528" type="curve" smooth="yes"/>
      <point x="174" y="528"/>
      <point x="152" y="535.667"/>
      <point x="124" y="551" type="curve" smooth="yes"/>
      <point x="105.333" y="561.667"/>
      <point x="89.3333" y="567"/>
      <point x="76" y="567" type="curve" smooth="yes"/>
      <point x="59.3333" y="567"/>
      <point x="44.3333" y="551"/>
    </contour>
  </outline>
</glyph>
<glyph name="Ibreve" format="2">
  <advance width="347"/>
  <unicode hex="012C"/>
  <outline>
    <contour>
      <point x="309" y="0" type="line"/>
      <point x="37" y="0" type="line"/>
      <point x="37" y="29" type="line"/>
      <point x="77.6667" y="32.3333"/>
      <point x="102.667" y="38.8333"/>
      <point x="112" y="48.5" type="curve" smooth="yes"/>
      <point x="121.333" y="58.1667"/>
      <point x="126" y="84"/>
      <point x="126" y="126" type="curve" smooth="yes"/>
      <point x="126" y="524" type="line" smooth="yes"/>
      <point x="126" y="566"/>
      <point x="121.333" y="591.833"/>
      <point x="112" y="601.5" type="curve" smooth="yes"/>
      <point x="102.667" y="611.167"/>
      <point x="77.6667" y="617.667"/>
      <point x="37" y="621" type="curve"/>
      <point x="37" y="650" type="line"/>
      <point x="309" y="650" type="line"/>
      <point x="309" y="621" type="line"/>
      <point x="268.333" y="617.667"/>
      <point x="243.333" y="611.167"/>
      <point x="234" y="601.5" type="curve" smooth="yes"/>
      <point x="224.667" y="591.833"/>
      <point x="220" y="566"/>
      <point x="220" y="524" type="curve" smooth="yes"/>
      <point x="220" y="126" type="line" smooth="yes"/>
      <point x="220" y="84"/>
      <point x="224.667" y="58.1667"/>
      <point x="234" y="48.5" type="curve" smooth="yes"/>
      <point x="243.333" y="38.8333"/>
      <point x="268.333" y="32.3333"/>
      <point x="309" y="29" type="curve"/>
    </contour>
    <contour>
      <point x="263" y="816" type="curve"/>
      <point x="293" y="816" type="line"/>
      <point x="292.333" y="775.333"/>
      <point x="281.333" y="744.833"/>
      <point x="260" y="724.5" type="curve" smooth="yes"/>
      <point x="238.667" y="704.167"/>
      <point x="210" y="694"/>
      <point x="174" y="694" type="curve" smooth="yes"/>
      <point x="137.333" y="694"/>
      <point x="108.5" y="704.167"/>
      <point x="87.5" y="724.5" type="curve" smooth="yes"/>
      <point x="66.5" y="744.833"/>
      <point x="55.6667" y="775.333"/>
      <point x="55" y="816" type="curve"/>
      <point x="85" y="816" type="line"/>
      <point x="95" y="774.667"/>
      <point x="124.667" y="754"/>
      <point x="174" y="754" type="curve" smooth="yes"/>
      <point x="223.333" y="754"/>
      <point x="253" y="774.667"/>
    </contour>
  </outline>
</glyph>
<glyph name="Idotaccent" format="2">
  <advance width="347"/>
  <unicode hex="0130"/>
  <outline>
    <contour>
      <point x="308" y="0" type="line"/>
      <point x="38" y="0" type="line"/>
      <point x="38" y="29" type="line"/>
      <point x="78.6667" y="32.3333"/>
      <point x="103.5" y="38.8333"/>
      <point x="112.5" y="48.5" type="curve" smooth="yes"/>
      <point x="121.5" y="58.1667"/>
      <point x="126" y="84"/>
      <point x="126" y="126" type="curve" smooth="yes"/>
      <point x="126" y="524" type="line" smooth="yes"/>
      <point x="126" y="566"/>
      <point x="121.5" y="591.833"/>
      <point x="112.5" y="601.5" type="curve" smooth="yes"/>
      <point x="103.5" y="611.167"/>
      <point x="78.6667" y="617.667"/>
      <point x="38" y="621" type="curve"/>
      <point x="38" y="650" type="line"/>
      <point x="308" y="650" type="line"/>
      <point x="308" y="621" type="line"/>
      <point x="267.333" y="617.667"/>
      <point x="242.5" y="611.167"/>
      <point x="233.5" y="601.5" type="curve" smooth="yes"/>
      <point x="224.5" y="591.833"/>
      <point x="220" y="566"/>
      <point x="220" y="524" type="curve" smooth="yes"/>
      <point x="220" y="126" type="line" smooth="yes"/>
      <point x="220" y="84"/>
      <point x="224.5" y="58.1667"/>
      <point x="233.5" y="48.5" type="curve" smooth="yes"/>
      <point x="242.5" y="38.8333"/>
      <point x="267.333" y="32.3333"/>
      <point x="308" y="29" type="curve"/>
    </contour>
    <contour>
      <point x="174" y="813" type="curve" smooth="yes"/>
      <point x="188.667" y="813"/>
      <point x="201.334" y="807.5"/>
      <point x="212" y="796.5" type="curve" smooth="yes"/>
      <point x="222.667" y="785.5"/>
      <point x="228" y="772.333"/>
      <point x="228" y="757" type="curve" smooth="yes"/>
      <point x="228" y="741.667"/>
      <point x="222.667" y="728.667"/>
      <point x="212" y="718" type="curve" smooth="yes"/>
      <point x="201.333" y="707.333"/>
      <point x="188.333" y="702"/>
      <point x="173" y="702" type="curve" smooth="yes"/>
      <point x="158.333" y="702"/>
      <point x="145.667" y="707.333"/>
      <point x="135" y="718" type="curve" smooth="yes"/>
      <point x="124.333" y="728.667"/>
      <point x="119" y="741.667"/>
      <point x="119" y="757" type="curve" smooth="yes"/>
      <point x="119" y="772.333"/>
      <point x="124.333" y="785.5"/>
      <point x="135" y="796.5" type="curve" smooth="yes"/>
      <point x="145.667" y="807.5"/>
      <point x="158.667" y="813"/>
    </contour>
  </outline>
</glyph>
<glyph name="ij" format="2">
  <advance width="533"/>
  <unicode hex="0133"/>
  <outline>
    <contour>
      <point x="138" y="533" type="curve" smooth="yes"/>
      <point x="123.333" y="533"/>
      <point x="110.667" y="538.5"/>
      <point x="100" y="549.5" type="curve" smooth="yes"/>
      <point x="89.3333" y="560.5"/>
      <point x="84" y="573.333"/>
      <point x="84" y="588" type="curve" smooth="yes"/>
      <point x="84" y="603.333"/>
      <point x="89.3333" y="616.333"/>
      <point x="100" y="627" type="curve" smooth="yes"/>
      <point x="110.667" y="637.667"/>
      <point x="123.667" y="643"/>
      <point x="139" y="643" type="curve" smooth="yes"/>
      <point x="153.667" y="643"/>
      <point x="166.167" y="637.667"/>
      <point x="176.5" y="627" type="curve" smooth="yes"/>
      <point x="186.833" y="616.333"/>
      <point x="192" y="603.333"/>
      <point x="192" y="588" type="curve" smooth="yes"/>
      <point x="192" y="572.667"/>
      <point x="186.667" y="559.667"/>
      <point x="176" y="549" type="curve" smooth="yes"/>
      <point x="165.333" y="538.333"/>
      <point x="152.667" y="533"/>
    </contour>
    <contour>
      <point x="258" y="0" type="line"/>
      <point x="31" y="0" type="line"/>
      <point x="31" y="27" type="line"/>
      <point x="62.3334" y="30.3333"/>
      <point x="81.6667" y="36"/>
      <point x="89" y="44" type="curve" smooth="yes"/>
      <point x="96.3333" y="52"/>
      <point x="100" y="73"/>
      <point x="100" y="107" type="curve" smooth="yes"/>
      <point x="100" y="312" type="line" smooth="yes"/>
      <point x="100" y="343.333"/>
      <point x="97" y="362.667"/>
      <point x="91" y="370" type="curve" smooth="yes"/>
      <point x="85" y="377.333"/>
      <point x="67.6667" y="383.333"/>
      <point x="39" y="388" type="curve"/>
      <point x="39" y="412" type="line"/>
      <point x="99" y="422.667"/>
      <point x="148.667" y="436"/>
      <point x="188" y="452" type="curve"/>
      <point x="188" y="107" type="line" smooth="yes"/>
      <point x="188" y="73"/>
      <point x="191.667" y="52"/>
      <point x="199" y="44" type="curve" smooth="yes"/>
      <point x="206.333" y="36"/>
      <point x="226" y="30.3333"/>
      <point x="258" y="27" type="curve"/>
    </contour>
    <contour>
      <point x="399" y="533" type="curve" smooth="yes"/>
      <point x="384.333" y="533"/>
      <point x="371.833" y="538.333"/>
      <point x="361.5" y="549" type="curve" smooth="yes"/>
      <point x="351.167" y="559.669"/>
      <point x="346" y="572.336"/>
      <point x="346" y="587" type="curve" smooth="yes"/>
      <point x="346" y="603"/>
      <point x="351.167" y="616.333"/>
      <point x="361.5" y="627" type="curve" smooth="yes"/>
      <point x="371.834" y="637.667"/>
      <point x="384.667" y="643"/>
      <point x="400" y="643" type="curve" smooth="yes"/>
      <point x="415.334" y="643"/>
      <point x="428.167" y="637.667"/>
      <point x="438.5" y="627" type="curve" smooth="yes"/>
      <point x="448.833" y="616.333"/>
      <point x="454" y="603"/>
      <point x="454" y="587" type="curve" smooth="yes"/>
      <point x="454" y="572.333"/>
      <point x="448.667" y="559.667"/>
      <point x="438" y="549" type="curve" smooth="yes"/>
      <point x="427.333" y="538.333"/>
      <point x="414.333" y="533"/>
    </contour>
    <contour>
      <point x="296" y="388" type="curve"/>
      <point x="296" y="412" type="line"/>
      <point x="353.333" y="420.667"/>
      <point x="404.333" y="433.667"/>
      <point x="449" y="451" type="curve"/>
      <point x="450" y="115" type="line" smooth="yes"/>
      <point x="450" y="51"/>
      <point x="442" y="-3"/>
      <point x="426" y="-47" type="curve" smooth="yes"/>
      <point x="410" y="-90.3333"/>
      <point x="389.167" y="-130.5"/>
      <point x="363.5" y="-167.5" type="curve" smooth="yes"/>
      <point x="337.833" y="-204.5"/>
      <point x="317" y="-229.333"/>
      <point x="301" y="-242" type="curve" smooth="yes"/>
      <point x="291" y="-250"/>
      <point x="282" y="-254"/>
      <point x="274" y="-254" type="curve" smooth="yes"/>
      <point x="266" y="-254"/>
      <point x="257.833" y="-249.333"/>
      <point x="249.5" y="-240" type="curve" smooth="yes"/>
      <point x="241.167" y="-230.667"/>
      <point x="237" y="-220"/>
      <point x="237" y="-208" type="curve" smooth="yes"/>
      <point x="237" y="-194.667"/>
      <point x="244.333" y="-186.667"/>
      <point x="259" y="-184" type="curve" smooth="yes"/>
      <point x="295.667" y="-176.667"/>
      <point x="320" y="-165.333"/>
      <point x="332" y="-150" type="curve" smooth="yes"/>
      <point x="342.667" y="-135.333"/>
      <point x="350" y="-111.333"/>
      <point x="354" y="-78" type="curve" smooth="yes"/>
      <point x="359.333" y="-38"/>
      <point x="362" y="26"/>
      <point x="362" y="114" type="curve" smooth="yes"/>
      <point x="362" y="308" type="line" smooth="yes"/>
      <point x="362" y="342"/>
      <point x="358.667" y="362.833"/>
      <point x="352" y="370.5" type="curve" smooth="yes"/>
      <point x="345.333" y="378.167"/>
      <point x="326.666" y="384"/>
    </contour>
  </outline>
</glyph>
<glyph name="kgreenlandic" format="2">
  <advance width="530"/>
  <unicode hex="0138"/>
  <outline>
    <contour>
      <point x="526" y="0" type="line"/>
      <point x="381" y="0" type="line"/>
      <point x="355" y="30.6667"/>
      <point x="306.333" y="93.6667"/>
      <point x="235" y="189" type="curve" smooth="yes"/>
      <point x="227" y="199.667"/>
      <point x="219.5" y="206.167"/>
      <point x="212.5" y="208.5" type="curve" smooth="yes"/>
      <point x="205.5" y="210.833"/>
      <point x="198.667" y="210"/>
      <point x="192" y="206" type="curve"/>
      <point x="192" y="108" type="line" smooth="yes"/>
      <point x="192" y="73.3333"/>
      <point x="195.5" y="51.8333"/>
      <point x="202.5" y="43.5" type="curve" smooth="yes"/>
      <point x="209.5" y="35.1667"/>
      <point x="228.667" y="29.6667"/>
      <point x="260" y="27" type="curve"/>
      <point x="260" y="0" type="line"/>
      <point x="36" y="0" type="line"/>
      <point x="36" y="27" type="line"/>
      <point x="66.6667" y="29.6667"/>
      <point x="85.6667" y="35.1667"/>
      <point x="93" y="43.5" type="curve" smooth="yes"/>
      <point x="100.333" y="51.8333"/>
      <point x="104" y="73.3333"/>
      <point x="104" y="108" type="curve" smooth="yes"/>
      <point x="104" y="321" type="line" smooth="yes"/>
      <point x="104" y="354.333"/>
      <point x="100.5" y="375.333"/>
      <point x="93.5" y="384" type="curve" smooth="yes"/>
      <point x="86.5" y="392.667"/>
      <point x="68" y="398.333"/>
      <point x="38" y="401" type="curve"/>
      <point x="38" y="427" type="line"/>
      <point x="92" y="431.667"/>
      <point x="143.333" y="440"/>
      <point x="192" y="452" type="curve"/>
      <point x="192" y="235" type="line"/>
      <point x="210" y="238.333"/>
      <point x="226.333" y="246.667"/>
      <point x="241" y="260" type="curve" smooth="yes"/>
      <point x="283.667" y="297.333"/>
      <point x="316.667" y="332.333"/>
      <point x="340" y="365" type="curve" smooth="yes"/>
      <point x="347.363" y="374.818"/>
      <point x="351.045" y="383.018"/>
      <point x="351.045" y="389.601" type="curve" smooth="yes"/>
      <point x="351.045" y="399.11"/>
      <point x="343.363" y="405.243"/>
      <point x="328" y="408" type="curve" smooth="yes"/>
      <point x="311" y="411" type="line"/>
      <point x="311" y="438" type="line"/>
      <point x="511" y="438" type="line"/>
      <point x="511" y="411" type="line"/>
      <point x="485" y="408.333"/>
      <point x="464" y="403.833"/>
      <point x="448" y="397.5" type="curve" smooth="yes"/>
      <point x="432" y="391.167"/>
      <point x="414.333" y="379.333"/>
      <point x="395" y="362" type="curve" smooth="yes"/>
      <point x="381" y="350.667"/>
      <point x="345" y="316.667"/>
      <point x="287" y="260" type="curve"/>
      <point x="345" y="180.667"/>
      <point x="394.667" y="120"/>
      <point x="436" y="78" type="curve" smooth="yes"/>
      <point x="454.667" y="58.6667"/>
      <point x="469.5" y="45.8333"/>
      <point x="480.5" y="39.5" type="curve" smooth="yes"/>
      <point x="491.5" y="33.1667"/>
      <point x="506.667" y="29"/>
      <point x="526" y="27" type="curve"/>
    </contour>
  </outline>
</glyph>
<glyph name="Lcaron" format="2">
  <advance width="541"/>
  <unicode hex="013D"/>
  <outline>
    <contour>
      <point x="499" y="166" type="curve"/>
      <point x="529" y="160" type="line"/>
      <point x="517.665" y="95.3333"/>
      <point x="505.665" y="42"/>
      <point x="493" y="0" type="curve"/>
      <point x="34" y="0" type="line"/>
      <point x="34" y="29" type="line"/>
      <point x="76.6667" y="32.3333"/>
      <point x="102.833" y="39"/>
      <point x="112.5" y="49" type="curve" smooth="yes"/>
      <point x="122.167" y="59"/>
      <point x="127" y="85"/>
      <point x="127" y="127" type="curve" smooth="yes"/>
      <point x="127" y="524" type="line" smooth="yes"/>
      <point x="127" y="547.333"/>
      <point x="126.333" y="564.333"/>
      <point x="125" y="575" type="curve" smooth="yes"/>
      <point x="123.667" y="585.667"/>
      <point x="119.667" y="594.667"/>
      <point x="113" y="602" type="curve" smooth="yes"/>
      <point x="106.333" y="609.333"/>
      <point x="98" y="614"/>
      <point x="88" y="616" type="curve" smooth="yes"/>
      <point x="78" y="618"/>
      <point x="62" y="619.667"/>
      <point x="40" y="621" type="curve"/>
      <point x="40" y="650" type="line"/>
      <point x="309" y="650" type="line"/>
      <point x="309" y="621" type="line"/>
      <point x="280.333" y="619"/>
      <point x="260.666" y="615.833"/>
      <point x="250" y="611.5" type="curve" smooth="yes"/>
      <point x="239.333" y="607.167"/>
      <point x="231.833" y="599"/>
      <point x="227.5" y="587" type="curve" smooth="yes"/>
      <point x="223.167" y="575"/>
      <point x="221" y="554"/>
      <point x="221" y="524" type="curve" smooth="yes"/>
      <point x="221" y="130" type="line" smooth="yes"/>
      <point x="221" y="103.333"/>
      <point x="222.667" y="84.1666"/>
      <point x="226" y="72.5" type="curve" smooth="yes"/>
      <point x="229.333" y="60.8333"/>
      <point x="235.333" y="52.6667"/>
      <point x="244" y="48" type="curve" smooth="yes"/>
      <point x="258.667" y="40"/>
      <point x="289.333" y="36"/>
      <point x="336" y="36" type="curve" smooth="yes"/>
      <point x="391.333" y="36"/>
      <point x="428" y="46.3333"/>
      <point x="446" y="67" type="curve" smooth="yes"/>
      <point x="466.667" y="89.6667"/>
      <point x="484.333" y="122.667"/>
    </contour>
    <contour>
      <point x="392" y="655" type="curve" smooth="yes"/>
      <point x="408.667" y="655"/>
      <point x="423.333" y="647.167"/>
      <point x="436" y="631.5" type="curve" smooth="yes"/>
      <point x="448.667" y="615.833"/>
      <point x="455" y="596.333"/>
      <point x="455" y="573" type="curve" smooth="yes"/>
      <point x="455" y="519"/>
      <point x="424.667" y="483"/>
      <point x="364" y="465" type="curve"/>
      <point x="354" y="492" type="line"/>
      <point x="385.333" y="508"/>
      <point x="401" y="528"/>
      <point x="401" y="552" type="curve" smooth="yes"/>
      <point x="401" y="570.667"/>
      <point x="390" y="584"/>
      <point x="368" y="592" type="curve" smooth="yes"/>
      <point x="358.667" y="595.333"/>
      <point x="354" y="603.667"/>
      <point x="354" y="617" type="curve" smooth="yes"/>
      <point x="354" y="628.333"/>
      <point x="357.833" y="637.5"/>
      <point x="365.5" y="644.5" type="curve" smooth="yes"/>
      <point x="373.167" y="651.5"/>
      <point x="382" y="655"/>
    </contour>
  </outline>
</glyph>
<glyph name="lcaron" format="2">
  <advance width="258"/>
  <unicode hex="013E"/>
  <outline>
    <contour>
      <point x="244" y="0" type="line"/>
      <point x="15" y="0" type="line"/>
      <point x="15" y="27" type="line"/>
      <point x="46.3333" y="30.3333"/>
      <point x="65.8333" y="36"/>
      <point x="73.5" y="44" type="curve" smooth="yes"/>
      <point x="81.1667" y="52"/>
      <point x="85" y="72.3333"/>
      <point x="85" y="105" type="curve" smooth="yes"/>
      <point x="85" y="576" type="line" smooth="yes"/>
      <point x="85" y="608.667"/>
      <point x="81.6667" y="628.5"/>
      <point x="75" y="635.5" type="curve" smooth="yes"/>
      <point x="68.3333" y="642.5"/>
      <point x="49" y="647.667"/>
      <point x="17" y="651" type="curve"/>
      <point x="17" y="676" type="line"/>
      <point x="67" y="681.333"/>
      <point x="119" y="692.667"/>
      <point x="173" y="710" type="curve"/>
      <point x="173" y="105" type="line" smooth="yes"/>
      <point x="173" y="72.3333"/>
      <point x="176.833" y="52"/>
      <point x="184.5" y="44" type="curve" smooth="yes"/>
      <point x="192.167" y="36"/>
      <point x="212" y="30.3333"/>
      <point x="244" y="27" type="curve"/>
    </contour>
    <contour>
      <point x="256" y="711" type="curve" smooth="yes"/>
      <point x="273.334" y="711"/>
      <point x="288.167" y="703.333"/>
      <point x="300.5" y="688" type="curve" smooth="yes"/>
      <point x="312.833" y="672.664"/>
      <point x="319" y="653.331"/>
      <point x="319" y="630" type="curve" smooth="yes"/>
      <point x="319" y="576"/>
      <point x="288.667" y="540"/>
      <point x="228" y="522" type="curve"/>
      <point x="218" y="549" type="line"/>
      <point x="249.333" y="565"/>
      <point x="265" y="584.667"/>
      <point x="265" y="608" type="curve" smooth="yes"/>
      <point x="265" y="627.333"/>
      <point x="254" y="641"/>
      <point x="232" y="649" type="curve" smooth="yes"/>
      <point x="222.667" y="652.333"/>
      <point x="218" y="660.667"/>
      <point x="218" y="674" type="curve" smooth="yes"/>
      <point x="218" y="685.333"/>
      <point x="221.833" y="694.333"/>
      <point x="229.5" y="701" type="curve" smooth="yes"/>
      <point x="237.167" y="707.667"/>
      <point x="246" y="711"/>
    </contour>
  </outline>
</glyph>
<glyph name="Ldot" format="2">
  <advance width="541"/>
  <unicode hex="013F"/>
  <outline>
    <contour>
      <point x="499" y="166" type="curve"/>
      <point x="529" y="160" type="line"/>
      <point x="517.665" y="95.3333"/>
      <point x="505.665" y="42"/>
      <point x="493" y="0" type="curve"/>
      <point x="34" y="0" type="line"/>
      <point x="34" y="29" type="line"/>
      <point x="76.6667" y="32.3333"/>
      <point x="102.833" y="39"/>
      <point x="112.5" y="49" type="curve" smooth="yes"/>
      <point x="122.167" y="59"/>
      <point x="127" y="85"/>
      <point x="127" y="127" type="curve" smooth="yes"/>
      <point x="127" y="524" type="line" smooth="yes"/>
      <point x="127" y="547.333"/>
      <point x="126.333" y="564.333"/>
      <point x="125" y="575" type="curve" smooth="yes"/>
      <point x="123.667" y="585.667"/>
      <point x="119.667" y="594.667"/>
      <point x="113" y="602" type="curve" smooth="yes"/>
      <point x="106.333" y="609.333"/>
      <point x="98" y="614"/>
      <point x="88" y="616" type="curve" smooth="yes"/>
      <point x="78" y="618"/>
      <point x="62" y="619.667"/>
      <point x="40" y="621" type="curve"/>
      <point x="40" y="650" type="line"/>
      <point x="309" y="650" type="line"/>
      <point x="309" y="621" type="line"/>
      <point x="280.333" y="619"/>
      <point x="260.666" y="615.833"/>
      <point x="250" y="611.5" type="curve" smooth="yes"/>
      <point x="239.333" y="607.167"/>
      <point x="231.833" y="599"/>
      <point x="227.5" y="587" type="curve" smooth="yes"/>
      <point x="223.167" y="575"/>
      <point x="221" y="554"/>
      <point x="221" y="524" type="curve" smooth="yes"/>
      <point x="221" y="130" type="line" smooth="yes"/>
      <point x="221" y="103.333"/>
      <point x="222.667" y="84.1666"/>
      <point x="226" y="72.5" type="curve" smooth="yes"/>
      <point x="229.333" y="60.8333"/>
      <point x="235.333" y="52.6667"/>
      <point x="244" y="48" type="curve" smooth="yes"/>
      <point x="258.667" y="40"/>
      <point x="289.333" y="36"/>
      <point x="336" y="36" type="curve" smooth="yes"/>
      <point x="391.333" y="36"/>
      <point x="428" y="46.3333"/>
      <point x="446" y="67" type="curve" smooth="yes"/>
      <point x="466.667" y="89.6667"/>
      <point x="484.333" y="122.667"/>
    </contour>
    <contour>
      <point x="368" y="410" type="curve" smooth="yes"/>
      <point x="383.334" y="410"/>
      <point x="396.167" y="404.667"/>
      <point x="406.5" y="394" type="curve" smooth="yes"/>
      <point x="416.833" y="383.333"/>
      <point x="422" y="370"/>
      <point x="422" y="354" type="curve" smooth="yes"/>
      <point x="422" y="338.667"/>
      <point x="416.667" y="325.833"/>
      <point x="406" y="315.5" type="curve" smooth="yes"/>
      <point x="395.333" y="305.167"/>
      <point x="382.333" y="300"/>
      <point x="367" y="300" type="curve" smooth="yes"/>
      <point x="351.667" y="300"/>
      <point x="338.833" y="305.333"/>
      <point x="328.5" y="316" type="curve" smooth="yes"/>
      <point x="318.167" y="326.667"/>
      <point x="313" y="339.333"/>
      <point x="313" y="354" type="curve" smooth="yes"/>
      <point x="313" y="370"/>
      <point x="318.333" y="383.333"/>
      <point x="329" y="394" type="curve" smooth="yes"/>
      <point x="339.667" y="404.667"/>
      <point x="352.667" y="410"/>
    </contour>
  </outline>
</glyph>
<glyph name="ldot" format="2">
  <advance width="282"/>
  <unicode hex="0140"/>
  <outline>
    <contour>
      <point x="271" y="411" type="curve" smooth="yes"/>
      <point x="285" y="411"/>
      <point x="297" y="405.667"/>
      <point x="307" y="395" type="curve" smooth="yes"/>
      <point x="317" y="384.333"/>
      <point x="322" y="371.333"/>
      <point x="322" y="356" type="curve" smooth="yes"/>
      <point x="322" y="342"/>
      <point x="317" y="329.667"/>
      <point x="307" y="319" type="curve" smooth="yes"/>
      <point x="297" y="308.333"/>
      <point x="284.667" y="303"/>
      <point x="270" y="303" type="curve" smooth="yes"/>
      <point x="256" y="303"/>
      <point x="243.833" y="308.167"/>
      <point x="233.5" y="318.5" type="curve" smooth="yes"/>
      <point x="223.167" y="328.833"/>
      <point x="218" y="341.333"/>
      <point x="218" y="356" type="curve" smooth="yes"/>
      <point x="218" y="371.333"/>
      <point x="223.167" y="384.333"/>
      <point x="233.5" y="395" type="curve" smooth="yes"/>
      <point x="243.833" y="405.667"/>
      <point x="256.333" y="411"/>
    </contour>
    <contour>
      <point x="244" y="0" type="line"/>
      <point x="14" y="0" type="line"/>
      <point x="14" y="27" type="line"/>
      <point x="46" y="30.3333"/>
      <point x="65.8333" y="36"/>
      <point x="73.5" y="44" type="curve" smooth="yes"/>
      <point x="81.1667" y="52"/>
      <point x="85" y="72.3333"/>
      <point x="85" y="105" type="curve" smooth="yes"/>
      <point x="85" y="576" type="line" smooth="yes"/>
      <point x="85" y="608.667"/>
      <point x="81.6667" y="628.5"/>
      <point x="75" y="635.5" type="curve" smooth="yes"/>
      <point x="68.3333" y="642.5"/>
      <point x="49" y="647.667"/>
      <point x="17" y="651" type="curve"/>
      <point x="17" y="676" type="line"/>
      <point x="67" y="682"/>
      <point x="119" y="693.333"/>
      <point x="173" y="710" type="curve"/>
      <point x="173" y="105" type="line" smooth="yes"/>
      <point x="173" y="72.3333"/>
      <point x="176.833" y="52"/>
      <point x="184.5" y="44" type="curve" smooth="yes"/>
      <point x="192.167" y="36"/>
      <point x="212" y="30.3333"/>
      <point x="244" y="27" type="curve"/>
    </contour>
  </outline>
</glyph>
<glyph name="nacute" format="2">
  <advance width="550"/>
  <unicode hex="0144"/>
  <outline>
    <contour>
      <point x="527" y="0" type="line"/>
      <point x="315" y="0" type="line"/>
      <point x="315" y="27" type="line"/>
      <point x="343" y="30.3333"/>
      <point x="360.333" y="36.3333"/>
      <point x="367" y="45" type="curve" smooth="yes"/>
      <point x="373.667" y="53.6667"/>
      <point x="377" y="75.3333"/>
      <point x="377" y="110" type="curve" smooth="yes"/>
      <point x="377" y="277" type="line" smooth="yes"/>
      <point x="377" y="350.333"/>
      <point x="348.333" y="387"/>
      <point x="291" y="387" type="curve" smooth="yes"/>
      <point x="259" y="387"/>
      <point x="224.667" y="371.333"/>
      <point x="188" y="340" type="curve"/>
      <point x="188" y="104" type="line" smooth="yes"/>
      <point x="188" y="71.3333"/>
      <point x="191.167" y="51.1667"/>
      <point x="197.5" y="43.5" type="curve" smooth="yes"/>
      <point x="203.833" y="35.8333"/>
      <point x="221" y="30.3333"/>
      <point x="249" y="27" type="curve"/>
      <point x="249" y="0" type="line"/>
      <point x="28" y="0" type="line"/>
      <point x="28" y="27" type="line"/>
      <point x="61.3333" y="30.3333"/>
      <point x="81.6667" y="36"/>
      <point x="89" y="44" type="curve" smooth="yes"/>
      <point x="96.3333" y="52"/>
      <point x="100" y="72.3333"/>
      <point x="100" y="105" type="curve" smooth="yes"/>
      <point x="100" y="311" type="line" smooth="yes"/>
      <point x="100" y="342.333"/>
      <point x="97" y="361.667"/>
      <point x="91" y="369" type="curve" smooth="yes"/>
      <point x="85" y="376.335"/>
      <point x="68.3333" y="382.668"/>
      <point x="41" y="388" type="curve"/>
      <point x="41" y="412" type="line"/>
      <point x="99.6667" y="422.667"/>
      <point x="148.667" y="436.333"/>
      <point x="188" y="453" type="curve"/>
      <point x="188" y="374" type="line"/>
      <point x="230" y="403.334"/>
      <point x="252" y="418.667"/>
      <point x="254" y="420" type="curve" smooth="yes"/>
      <point x="283.334" y="440"/>
      <point x="310.667" y="450"/>
      <point x="336" y="450" type="curve" smooth="yes"/>
      <point x="376" y="450"/>
      <point x="407.5" y="436.333"/>
      <point x="430.5" y="409" type="curve" smooth="yes"/>
      <point x="453.5" y="381.667"/>
      <point x="465" y="344"/>
      <point x="465" y="296" type="curve" smooth="yes"/>
      <point x="465" y="104" type="line" smooth="yes"/>
      <point x="465" y="71.3333"/>
      <point x="468.167" y="51.1667"/>
      <point x="474.5" y="43.5" type="curve" smooth="yes"/>
      <point x="480.833" y="35.8333"/>
      <point x="498.333" y="30.3333"/>
      <point x="527" y="27" type="curve"/>
    </contour>
    <contour>
      <point x="269" y="492" type="line"/>
      <point x="242" y="506" type="line"/>
      <point x="247.333" y="518"/>
      <point x="254.667" y="535.833"/>
      <point x="264" y="559.5" type="curve" smooth="yes"/>
      <point x="273.333" y="583.168"/>
      <point x="282.333" y="605.834"/>
      <point x="291" y="627.5" type="curve" smooth="yes"/>
      <point x="306" y="665" type="line"/>
      <point x="311.333" y="667.687"/>
      <point x="325.5" y="670.354"/>
      <point x="348.5" y="673" type="curve" smooth="yes"/>
      <point x="363.833" y="674.778"/>
      <point x="375.389" y="675.667"/>
      <point x="383.167" y="675.667" type="curve" smooth="yes"/>
      <point x="387.056" y="675.667"/>
      <point x="390" y="675.445"/>
      <point x="392" y="675" type="curve"/>
      <point x="396" y="665" type="line"/>
    </contour>
  </outline>
</glyph>
<glyph name="ncommaaccent" format="2">
  <advance width="550"/>
  <unicode hex="0146"/>
  <outline>
    <contour>
      <point x="528" y="0" type="line"/>
      <point x="315" y="0" type="line"/>
      <point x="315" y="27" type="line"/>
      <point x="343" y="30.3333"/>
      <point x="360.5" y="36.3333"/>
      <point x="367.5" y="45" type="curve" smooth="yes"/>
      <point x="374.5" y="53.6667"/>
      <point x="378" y="75.3333"/>
      <point x="378" y="110" type="curve" smooth="yes"/>
      <point x="378" y="277" type="line" smooth="yes"/>
      <point x="378" y="350.333"/>
      <point x="349" y="387"/>
      <point x="291" y="387" type="curve" smooth="yes"/>
      <point x="259" y="387"/>
      <point x="224.667" y="371.333"/>
      <point x="188" y="340" type="curve"/>
      <point x="188" y="104" type="line" smooth="yes"/>
      <point x="188" y="71.3333"/>
      <point x="191.167" y="51.1667"/>
      <point x="197.5" y="43.5" type="curve" smooth="yes"/>
      <point x="203.833" y="35.8333"/>
      <point x="221.333" y="30.3333"/>
      <point x="250" y="27" type="curve"/>
      <point x="250" y="0" type="line"/>
      <point x="28" y="0" type="line"/>
      <point x="28" y="27" type="line"/>
      <point x="61.3333" y="30.3333"/>
      <point x="81.6667" y="36"/>
      <point x="89" y="44" type="curve" smooth="yes"/>
      <point x="96.3333" y="52"/>
      <point x="100" y="72.3333"/>
      <point x="100" y="105" type="curve" smooth="yes"/>
      <point x="100" y="311" type="line" smooth="yes"/>
      <point x="100" y="342.333"/>
      <point x="97" y="361.667"/>
      <point x="91" y="369" type="curve" smooth="yes"/>
      <point x="85" y="376.335"/>
      <point x="68.3333" y="382.668"/>
      <point x="41" y="388" type="curve"/>
      <point x="41" y="412" type="line"/>
      <point x="99.6667" y="422.667"/>
      <point x="148.667" y="436.333"/>
      <point x="188" y="453" type="curve"/>
      <point x="188" y="374" type="line"/>
      <point x="230" y="403.334"/>
      <point x="252" y="418.667"/>
      <point x="254" y="420" type="curve" smooth="yes"/>
      <point x="283.334" y="440"/>
      <point x="310.667" y="450"/>
      <point x="336" y="450" type="curve" smooth="yes"/>
      <point x="376" y="450"/>
      <point x="407.5" y="436.333"/>
      <point x="430.5" y="409" type="curve" smooth="yes"/>
      <point x="453.5" y="381.667"/>
      <point x="465" y="344"/>
      <point x="465" y="296" type="curve" smooth="yes"/>
      <point x="465" y="104" type="line" smooth="yes"/>
      <point x="465" y="71.3333"/>
      <point x="468.167" y="51.1667"/>
      <point x="474.5" y="43.5" type="curve" smooth="yes"/>
      <point x="480.834" y="35.8333"/>
      <point x="498.668" y="30.3333"/>
      <point x="528" y="27" type="curve"/>
    </contour>
    <contour>
      <point x="283" y="-43" type="curve" smooth="yes"/>
      <point x="285" y="-43" type="line" smooth="yes"/>
      <point x="305" y="-43"/>
      <point x="322.5" y="-50.6667"/>
      <point x="337.5" y="-66" type="curve" smooth="yes"/>
      <point x="352.5" y="-81.3333"/>
      <point x="360" y="-101"/>
      <point x="360" y="-125" type="curve" smooth="yes"/>
      <point x="360" y="-178.333"/>
      <point x="323.667" y="-214.333"/>
      <point x="251" y="-233" type="curve"/>
      <point x="241" y="-206" type="line"/>
      <point x="281.667" y="-188"/>
      <point x="302" y="-168.333"/>
      <point x="302" y="-147" type="curve" smooth="yes"/>
      <point x="302" y="-127"/>
      <point x="286.667" y="-113"/>
      <point x="256" y="-105" type="curve" smooth="yes"/>
      <point x="246" y="-102.333"/>
      <point x="241" y="-94.3333"/>
      <point x="241" y="-81" type="curve" smooth="yes"/>
      <point x="241" y="-69"/>
      <point x="245.167" y="-59.6667"/>
      <point x="253.5" y="-53" type="curve" smooth="yes"/>
      <point x="261.834" y="-46.3333"/>
      <point x="271.668" y="-43"/>
    </contour>
  </outline>
</glyph>
<glyph name="Ncaron" format="2">
  <advance width="743"/>
  <unicode hex="0147"/>
  <outline>
    <contour>
      <point x="720" y="650" type="line"/>
      <point x="720" y="621" type="line"/>
      <point x="691.333" y="619.667"/>
      <point x="670.833" y="614.667"/>
      <point x="658.5" y="606" type="curve" smooth="yes"/>
      <point x="646.167" y="597.333"/>
      <point x="638.667" y="582.333"/>
      <point x="636" y="561" type="curve" smooth="yes"/>
      <point x="632" y="519.666"/>
      <point x="630" y="463.666"/>
      <point x="630" y="393" type="curve" smooth="yes"/>
      <point x="630" y="-9" type="line"/>
      <point x="596" y="-9" type="line"/>
      <point x="172" y="510" type="line"/>
      <point x="170" y="510" type="line"/>
      <point x="170" y="263" type="line" smooth="yes"/>
      <point x="170" y="190.333"/>
      <point x="172" y="134.667"/>
      <point x="176" y="96" type="curve" smooth="yes"/>
      <point x="178.667" y="71.3333"/>
      <point x="186.667" y="54.5"/>
      <point x="200" y="45.5" type="curve" smooth="yes"/>
      <point x="213.333" y="36.5"/>
      <point x="237.667" y="31"/>
      <point x="273" y="29" type="curve"/>
      <point x="273" y="0" type="line"/>
      <point x="34" y="0" type="line"/>
      <point x="34" y="29" type="line"/>
      <point x="63.3333" y="30.3333"/>
      <point x="84.5" y="35.6667"/>
      <point x="97.5" y="45" type="curve" smooth="yes"/>
      <point x="110.5" y="54.3333"/>
      <point x="118.333" y="70.6667"/>
      <point x="121" y="94" type="curve" smooth="yes"/>
      <point x="125.667" y="142"/>
      <point x="128" y="198.333"/>
      <point x="128" y="263" type="curve" smooth="yes"/>
      <point x="128" y="482" type="line" smooth="yes"/>
      <point x="128" y="517.333"/>
      <point x="127" y="540.167"/>
      <point x="125" y="550.5" type="curve" smooth="yes"/>
      <point x="123" y="560.833"/>
      <point x="117.333" y="572"/>
      <point x="108" y="584" type="curve" smooth="yes"/>
      <point x="91.3333" y="605.333"/>
      <point x="62" y="617.667"/>
      <point x="20" y="621" type="curve"/>
      <point x="20" y="650" type="line"/>
      <point x="174" y="650" type="line"/>
      <point x="585" y="159" type="line"/>
      <point x="588" y="159" type="line"/>
      <point x="588" y="393" type="line" smooth="yes"/>
      <point x="588" y="458.333"/>
      <point x="585.667" y="513.667"/>
      <point x="581" y="559" type="curve" smooth="yes"/>
      <point x="578.333" y="581"/>
      <point x="570.167" y="596.333"/>
      <point x="556.5" y="605" type="curve" smooth="yes"/>
      <point x="542.833" y="613.667"/>
      <point x="518.333" y="619"/>
      <point x="483" y="621" type="curve"/>
      <point x="483" y="650" type="line"/>
    </contour>
    <contour>
      <point x="498" y="808" type="curve"/>
      <point x="513" y="782" type="line"/>
      <point x="461" y="742"/>
      <point x="418.667" y="705.333"/>
      <point x="386" y="672" type="curve"/>
      <point x="363" y="672" type="line"/>
      <point x="333.667" y="702.668"/>
      <point x="291.333" y="739.335"/>
      <point x="236" y="782" type="curve"/>
      <point x="251" y="808" type="line"/>
      <point x="299" y="787.333"/>
      <point x="340.333" y="766.667"/>
      <point x="375" y="746" type="curve"/>
      <point x="417" y="770"/>
      <point x="458" y="790.667"/>
    </contour>
  </outline>
</glyph>
